<svg width="500" height="260" viewBox="0 0 500 260" version="1.1" xmlns="http://www.w3.org/2000/svg" xmlns:xlink="http://www.w3.org/1999/xlink">
<title>Group 3</title>
<desc>Created using Figma</desc>
<g id="Canvas" transform="translate(-11 -212)">
<g id="Group 3">
<g id="Group">
<g id="Type">
<use xlink:href="#path0_fill" transform="translate(95 296)" fill="#CCD6DD"/>
</g>
<g id="in">
<use xlink:href="#path1_fill" transform="translate(199 291)" fill="#CCD6DD"/>
</g>
<g id="any">
<use xlink:href="#path2_fill" transform="translate(248 292)" fill="#CCD6DD"/>
</g>
<g id="song">
<use xlink:href="#path3_fill" transform="translate(327 299)" fill="#CCD6DD"/>
</g>
<g id="to">
<use xlink:href="#path4_fill" transform="translate(144 348)" fill="#CCD6DD"/>
</g>
<g id="share">
<use xlink:href="#path5_fill" transform="translate(195.142 339)" fill="#CCD6DD"/>
</g>
<g id="it!">
<use xlink:href="#path6_fill" transform="translate(320 345)" fill="#CCD6DD"/>
</g>
</g>
<g id="1f3a4">
<g id="g10">
<g id="g12">
<g id="g14">
<g id="g20">
<g id="path22">
<use xlink:href="#path7_fill" transform="matrix(1.25 0 0 -1.25 258.788 438.253)" fill="#8899A6"/>
</g>
</g>
<g id="g24">
<g id="path26">
<use xlink:href="#path8_fill" transform="matrix(1.25 0 0 -1.25 258.767 438.276)" fill="#292F33"/>
</g>
</g>
<g id="g28">
<g id="path30">
<use xlink:href="#path9_fill" transform="matrix(1.25 0 0 -1.25 237.144 459.88)" fill="#292F33"/>
</g>
</g>
<g id="g32">
<g id="path34">
<use xlink:href="#path10_fill" transform="matrix(1.25 0 0 -1.25 231 441)" fill="#55ACEE"/>
</g>
</g>
<g id="g36">
<g id="path38">
<use xlink:href="#path11_fill" transform="matrix(1.25 0 0 -1.25 248.5 431)" fill="#55ACEE"/>
</g>
</g>
</g>
</g>
</g>
</g>
<g id="1f3b9">
<g id="g10">
<g id="g12">
<g id="g14">
<g id="g20">
<g id="path22">
<use xlink:href="#path12_fill" transform="matrix(1.25 0 0 -1.25 410 433)" fill="#292F33"/>
</g>
</g>
<g id="g24">
<g id="path26">
<use xlink:href="#path13_fill" transform="matrix(1.25 0 0 -1.25 433.75 430.5)" fill="#E1E8ED"/>
</g>
</g>
<g id="g28">
<g id="path30">
<use xlink:href="#path14_fill" transform="matrix(1.25 0 0 -1.25 445 430.5)" fill="#E1E8ED"/>
</g>
</g>
<g id="g32">
<g id="path34">
<use xlink:href="#path13_fill" transform="matrix(1.25 0 0 -1.25 422.5 430.5)" fill="#E1E8ED"/>
</g>
</g>
<g id="g36">
<g id="path38">
<use xlink:href="#path15_fill" transform="matrix(1.25 0 0 -1.25 412.5 430.5)" fill="#E1E8ED"/>
</g>
</g>
<g id="g40">
<g id="path42">
<use xlink:href="#path16_fill" transform="matrix(1.25 0 0 -1.25 440 418)" fill="#292F33"/>
</g>
</g>
<g id="g44">
<g id="path46">
<use xlink:href="#path16_fill" transform="matrix(1.25 0 0 -1.25 428.75 418)" fill="#292F33"/>
</g>
</g>
<g id="g48">
<g id="path50">
<use xlink:href="#path16_fill" transform="matrix(1.25 0 0 -1.25 417.5 418)" fill="#292F33"/>
</g>
</g>
</g>
</g>
</g>
</g>
<g id="1f3bc">
<g id="g10">
<g id="g12">
<g id="path14">
<use xlink:href="#path17_fill" transform="matrix(1.25 0 0 -1.25 11 328.434)" fill="#8899A6"/>
</g>
</g>
<g id="g16">
<g id="g18">
<g id="g24">
<g id="path26">
<use xlink:href="#path18_fill" transform="matrix(1.25 0 0 -1.25 29.7491 332.184)" fill="#292F33"/>
</g>
</g>
</g>
</g>
</g>
</g>
<g id="1f3ba">
<g id="g10">
<g id="g12">
<g id="g14">
<g id="g20">
<g id="path22">
<use xlink:href="#path19_fill" transform="matrix(1.25 0 0 -1.25 86.9073 258.064)" fill="#FCAB40"/>
</g>
</g>
<g id="g24">
<g id="path26">
<use xlink:href="#path20_fill" transform="matrix(1.25 0 0 -1.25 84 260.972)" fill="#CCD6DD"/>
</g>
</g>
<g id="g28">
<g id="path30">
<use xlink:href="#path21_fill" transform="matrix(1.25 0 0 -1.25 92.7707 258.887)" fill="#FCAB40"/>
</g>
</g>
<g id="g32">
<g id="path34">
<use xlink:href="#path22_fill" transform="matrix(1.25 0 0 -1.25 104.182 247.475)" fill="#FCAB40"/>
</g>
</g>
<g id="g36">
<g id="path38">
<use xlink:href="#path23_fill" transform="matrix(1.25 0 0 -1.25 99.168 252.489)" fill="#FCAB40"/>
</g>
</g>
<g id="g40">
<g id="path42">
<use xlink:href="#path24_fill" transform="matrix(1.25 0 0 -1.25 94.1538 257.502)" fill="#FCAB40"/>
</g>
</g>
<g id="g44">
<g id="path46">
<use xlink:href="#path25_fill" transform="matrix(1.25 0 0 -1.25 101.186 233.758)" fill="#CCD6DD"/>
</g>
</g>
<g id="g48">
<g id="path50">
<use xlink:href="#path26_fill" transform="matrix(1.25 0 0 -1.25 96.1712 238.774)" fill="#CCD6DD"/>
</g>
</g>
<g id="g52">
<g id="path54">
<use xlink:href="#path27_fill" transform="matrix(1.25 0 0 -1.25 91.1581 243.788)" fill="#CCD6DD"/>
</g>
</g>
</g>
</g>
</g>
</g>
<g id="1f437">
<g id="g10">
<g id="g12">
<g id="g14">
<g id="g20">
<g id="path22">
<use xlink:href="#path28_fill" transform="matrix(1.25 0 0 -1.25 371 262.026)" fill="#F4ABBA"/>
</g>
</g>
<g id="g24">
<g id="path26">
<use xlink:href="#path29_fill" transform="matrix(1.25 0 0 -1.25 373.356 235.005)" fill="#EA596E"/>
</g>
</g>
<g id="g28">
<g id="path30">
<use xlink:href="#path30_fill" transform="matrix(1.25 0 0 -1.25 406.752 235.006)" fill="#EA596E"/>
</g>
</g>
<g id="g32">
<g id="path34">
<use xlink:href="#path31_fill" transform="matrix(1.25 0 0 -1.25 381 260.15)" fill="#EA596E"/>
</g>
</g>
<g id="g36">
<g id="path38">
<use xlink:href="#path32_fill" transform="matrix(1.25 0 0 -1.25 386 253.275)" fill="#662113"/>
</g>
</g>
<g id="g40">
<g id="path42">
<use xlink:href="#path32_fill" transform="matrix(1.25 0 0 -1.25 397.25 253.275)" fill="#662113"/>
</g>
</g>
<g id="g44">
<g id="path46">
<use xlink:href="#path33_fill" transform="matrix(1.25 0 0 -1.25 377.25 243.275)" fill="#292F33"/>
</g>
</g>
<g id="g48">
<g id="path50">
<use xlink:href="#path34_fill" transform="matrix(1.25 0 0 -1.25 404.75 243.275)" fill="#292F33"/>
</g>
</g>
</g>
</g>
</g>
</g>
<g id="1f469-1f3fe">
<g id="g10">
<g id="g12">
<g id="g14">
<g id="g20">
<g id="path22">
<use xlink:href="#path35_fill" transform="matrix(1.25 0 0 -1.25 56 420.499)" fill="#60352A"/>
</g>
</g>
<g id="g24">
<g id="path26">
<use xlink:href="#path36_fill" transform="matrix(1.25 0 0 -1.25 61.0124 419.251)" fill="#AF7E57"/>
</g>
</g>
<g id="g28">
<g id="path30">
<use xlink:href="#path37_fill" transform="matrix(1.25 0 0 -1.25 71.0121 414.25)" fill="#DF1F32"/>
</g>
</g>
<g id="g32">
<g id="path34">
<use xlink:href="#path38_fill" transform="matrix(1.25 0 0 -1.25 73.5124 408)" fill="#915A34"/>
</g>
</g>
<g id="g36">
<g id="path38">
<use xlink:href="#path39_fill" transform="matrix(1.25 0 0 -1.25 56.0006 406.75)" fill="#60352A"/>
</g>
</g>
<g id="g40">
<g id="path42">
<use xlink:href="#path40_fill" transform="matrix(1.25 0 0 -1.25 68.5124 404.25)" fill="#60352A"/>
</g>
</g>
<g id="g44">
<g id="path46">
<use xlink:href="#path41_fill" transform="matrix(1.25 0 0 -1.25 81.0124 404.25)" fill="#60352A"/>
</g>
</g>
</g>
</g>
</g>
</g>
<g id="1f37b">
<g id="g10">
<g id="g12">
<g id="g14">
<g id="g20">
<g id="path22">
<use xlink:href="#path42_fill" transform="matrix(1.25 0 0 -1.25 147.5 464.251)" fill="#FFCC4D"/>
</g>
</g>
</g>
</g>
<g id="g24">
<g id="g26">
<g id="g32">
<g id="path34">
<use xlink:href="#path43_fill" transform="matrix(1.25 0 0 -1.25 145 442.575)" fill="#FFAC33"/>
</g>
</g>
</g>
</g>
<g id="g36">
<g id="g38">
<g id="g44">
<g id="path46">
<use xlink:href="#path44_fill" transform="matrix(1.25 0 0 -1.25 157.5 460.5)" fill="#FFAC33"/>
</g>
</g>
<g id="g48">
<g id="path50">
<use xlink:href="#path44_fill" transform="matrix(1.25 0 0 -1.25 151.25 460.5)" fill="#FFAC33"/>
</g>
</g>
<g id="g52">
<g id="path54">
<use xlink:href="#path45_fill" transform="matrix(1.25 0 0 -1.25 145 440.67)" fill="#CCD6DD"/>
</g>
</g>
<g id="g56">
<g id="path58">
<use xlink:href="#path46_fill" transform="matrix(1.25 0 0 -1.25 175 465.5)" fill="#FFAC33"/>
</g>
</g>
<g id="g60">
<g id="path62">
<use xlink:href="#path47_fill" transform="matrix(1.25 0 0 -1.25 161.25 471.75)" fill="#FFCC4D"/>
</g>
</g>
</g>
</g>
<g id="g64">
<g id="g66">
<g id="g72">
<g id="path74">
<use xlink:href="#path48_fill" transform="matrix(1.25 0 0 -1.25 158.75 450.075)" fill="#FFAC33"/>
</g>
</g>
</g>
</g>
<g id="g76">
<g id="g78">
<g id="g84">
<g id="path86">
<use xlink:href="#path49_fill" transform="matrix(1.25 0 0 -1.25 158.75 448.17)" fill="#E1E8ED"/>
</g>
</g>
<g id="g88">
<g id="path90">
<use xlink:href="#path50_fill" transform="matrix(1.25 0 0 -1.25 163.75 468)" fill="#FFAC33"/>
</g>
</g>
<g id="g92">
<g id="path94">
<use xlink:href="#path51_fill" transform="matrix(1.25 0 0 -1.25 176.25 468)" fill="#FFAC33"/>
</g>
</g>
<g id="g96">
<g id="path98">
<use xlink:href="#path51_fill" transform="matrix(1.25 0 0 -1.25 170 468)" fill="#FFAC33"/>
</g>
</g>
<g id="g100">
<g id="path102">
<use xlink:href="#path52_fill" transform="matrix(1.25 0 0 -1.25 171.25 434.25)" fill="#F4900C"/>
</g>
</g>
<g id="g104">
<g id="path106">
<use xlink:href="#path53_fill" transform="matrix(1.25 0 0 -1.25 175 435.5)" fill="#F4900C"/>
</g>
</g>
</g>
</g>
</g>
</g>
<g id="1f3b8">
<g id="g10">
<g id="g12">
<g id="g14">
<g id="g20">
<g id="path22">
<use xlink:href="#path54_fill" transform="matrix(1.25 0 0 -1.25 325 462.899)" fill="#F18F26"/>
</g>
</g>
<g id="g24">
<g id="path26">
<use xlink:href="#path55_fill" transform="matrix(1.25 0 0 -1.25 346.722 441.182)" fill="#642116"/>
</g>
</g>
<g id="g28">
<g id="path30">
<use xlink:href="#path56_fill" transform="matrix(1.25 0 0 -1.25 359.123 428.78)" fill="#F18F26"/>
</g>
</g>
<g id="g32">
<g id="path34">
<use xlink:href="#path57_fill" transform="matrix(1.25 0 0 -1.25 343.302 444.603)" fill="#CCD6DD"/>
</g>
</g>
<g id="g36">
<g id="path38">
<use xlink:href="#path58_fill" transform="matrix(1.25 0 0 -1.25 338.882 449.022)" fill="#CCD6DD"/>
</g>
</g>
<g id="g40">
<g id="path42">
<use xlink:href="#path59_fill" transform="matrix(1.25 0 0 -1.25 335.866 452.038)" fill="#642116"/>
</g>
</g>
</g>
</g>
</g>
</g>
<g id="1f3b7">
<g id="g10">
<g id="g12">
<g id="g14">
<g id="g20">
<g id="path22">
<use xlink:href="#path60_fill" transform="matrix(1.25 0 0 -1.25 467.25 358.895)" fill="#FCAB40"/>
</g>
</g>
<g id="g24">
<g id="path26">
<use xlink:href="#path61_fill" transform="matrix(1.25 0 0 -1.25 466 338.895)" fill="#FDCB58"/>
</g>
</g>
<g id="g28">
<g id="path30">
<use xlink:href="#path34_fill" transform="matrix(1.25 0 0 -1.25 487.25 337.645)" fill="#CCD6DD"/>
</g>
</g>
<g id="g32">
<g id="path34">
<use xlink:href="#path34_fill" transform="matrix(1.25 0 0 -1.25 491 332.645)" fill="#CCD6DD"/>
</g>
</g>
<g id="g36">
<g id="path38">
<use xlink:href="#path34_fill" transform="matrix(1.25 0 0 -1.25 494.75 327.645)" fill="#CCD6DD"/>
</g>
</g>
<g id="g40">
<g id="path42">
<use xlink:href="#path62_fill" transform="matrix(1.25 0 0 -1.25 503.499 326.395)" fill="#9AAAB4"/>
</g>
</g>
<g id="g44">
<g id="path46">
<use xlink:href="#path63_fill" transform="matrix(1.25 0 0 -1.25 477.009 347.36)" fill="#FCAB40"/>
</g>
</g>
</g>
</g>
</g>
</g>
<g id="1f3b5">
<g id="g10">
<g id="g12">
<g id="g14">
<g id="g20">
<g id="path22">
<use xlink:href="#path64_fill" transform="matrix(1.25 0 0 -1.25 455 293.507)" fill="#5DADEC"/>
</g>
</g>
</g>
</g>
</g>
</g>
<g id="1f39a">
<g id="g10">
<g id="g12">
<g id="g14">
<g id="g20">
<g id="path22">
<use xlink:href="#path65_fill" transform="matrix(1.25 0 0 -1.25 183 257)" fill="#CCD6DD"/>
</g>
</g>
<g id="g24">
<g id="path26">
<use xlink:href="#path66_fill" transform="matrix(1.25 0 0 -1.25 200.5 252)" fill="#292F33"/>
</g>
</g>
<g id="g28">
<g id="path30">
<use xlink:href="#path67_fill" transform="matrix(1.25 0 0 -1.25 190.5 220.75)" fill="#99AAB5"/>
</g>
</g>
<g id="g32">
<g id="path34">
<use xlink:href="#path68_fill" transform="matrix(1.25 0 0 -1.25 190.5 235.75)" fill="#99AAB5"/>
</g>
</g>
<g id="g36">
<g id="path38">
<use xlink:href="#path69_fill" transform="matrix(1.25 0 0 -1.25 190.5 250.75)" fill="#99AAB5"/>
</g>
</g>
<g id="g40">
<g id="path42">
<use xlink:href="#path70_fill" transform="matrix(1.25 0 0 -1.25 205.5 220.75)" fill="#99AAB5"/>
</g>
</g>
<g id="g44">
<g id="path46">
<use xlink:href="#path71_fill" transform="matrix(1.25 0 0 -1.25 205.5 235.75)" fill="#99AAB5"/>
</g>
</g>
<g id="g48">
<g id="path50">
<use xlink:href="#path72_fill" transform="matrix(1.25 0 0 -1.25 205.5 250.75)" fill="#99AAB5"/>
</g>
</g>
<g id="g52">
<g id="path54">
<use xlink:href="#path73_fill" transform="matrix(1.25 0 0 -1.25 193 243.251)" fill="#99AAB5"/>
</g>
</g>
<g id="g56">
<g id="path58">
<use xlink:href="#path73_fill" transform="matrix(1.25 0 0 -1.25 205.5 243.251)" fill="#99AAB5"/>
</g>
</g>
<g id="g60">
<g id="path62">
<use xlink:href="#path74_fill" transform="matrix(1.25 0 0 -1.25 193 230.75)" fill="#226699"/>
</g>
</g>
</g>
</g>
</g>
</g>
<g id="2b50">
<g id="g10">
<g id="g12">
<g id="g14">
<g id="g20">
<g id="path22">
<use xlink:href="#path75_fill" transform="matrix(1.25 0 0 -1.25 277 263.661)" fill="#FFAC33"/>
</g>
</g>
</g>
</g>
</g>
</g>
</g>
</g>
<defs>
<path id="path0_fill" d="M 10.24 37C 9.97333 37 9.74667 36.9067 9.56 36.72C 9.37333 36.5333 9.28 36.3067 9.28 36.04L 9.28 13.92L 1.88 13.92C 1.61333 13.92 1.38667 13.8267 1.2 13.64C 1.01333 13.4533 0.92 13.2267 0.92 12.96L 0.92 10C 0.92 9.70667 1 9.46667 1.16 9.28C 1.34667 9.09333 1.58667 9 1.88 9L 22.28 9C 22.5733 9 22.8133 9.09333 23 9.28C 23.1867 9.46667 23.28 9.70667 23.28 10L 23.28 12.96C 23.28 13.2267 23.1867 13.4533 23 13.64C 22.8133 13.8267 22.5733 13.92 22.28 13.92L 14.92 13.92L 14.92 36.04C 14.92 36.3067 14.8267 36.5333 14.64 36.72C 14.4533 36.9067 14.2133 37 13.92 37L 10.24 37ZM 28.1578 44.6C 27.9445 44.6 27.7578 44.52 27.5978 44.36C 27.4378 44.2 27.3578 44.0133 27.3578 43.8C 27.3578 43.56 27.4111 43.3467 27.5178 43.16L 30.6378 35.76L 22.9578 17.64C 22.8511 17.4 22.7978 17.2133 22.7978 17.08C 22.8245 16.84 22.9178 16.64 23.0778 16.48C 23.2378 16.2933 23.4378 16.2 23.6778 16.2L 26.9178 16.2C 27.4245 16.2 27.7845 16.4533 27.9978 16.96L 33.3178 30.04L 38.7978 16.96C 39.0111 16.4533 39.3711 16.2 39.8778 16.2L 43.0778 16.2C 43.2911 16.2 43.4778 16.28 43.6378 16.44C 43.8245 16.6 43.9178 16.7867 43.9178 17C 43.9178 17.1867 43.8645 17.4 43.7578 17.64L 32.4378 43.84C 32.1978 44.3467 31.8245 44.6 31.3178 44.6L 28.1578 44.6ZM 48.3666 44.6C 48.0999 44.6 47.8732 44.5067 47.6866 44.32C 47.4999 44.16 47.4066 43.9333 47.4066 43.64L 47.4066 17.16C 47.4066 16.8667 47.4999 16.64 47.6866 16.48C 47.8732 16.2933 48.0999 16.2 48.3666 16.2L 51.5266 16.2C 51.8199 16.2 52.0466 16.2933 52.2066 16.48C 52.3932 16.64 52.4866 16.8667 52.4866 17.16L 52.4866 18.76C 53.9799 16.7867 56.1132 15.8 58.8866 15.8C 61.5799 15.8 63.6466 16.6533 65.0866 18.36C 66.5266 20.04 67.2999 22.32 67.4066 25.2C 67.4332 25.52 67.4466 25.9867 67.4466 26.6C 67.4466 27.24 67.4332 27.72 67.4066 28.04C 67.2999 30.84 66.5266 33.1067 65.0866 34.84C 63.6466 36.5467 61.5799 37.4 58.8866 37.4C 56.1932 37.4 54.1399 36.4533 52.7266 34.56L 52.7266 43.64C 52.7266 43.9333 52.6332 44.16 52.4466 44.32C 52.2866 44.5067 52.0599 44.6 51.7666 44.6L 48.3666 44.6ZM 57.4066 33.12C 60.2866 33.12 61.8199 31.3467 62.0066 27.8C 62.0332 27.5333 62.0466 27.1333 62.0466 26.6C 62.0466 26.0667 62.0332 25.6667 62.0066 25.4C 61.8199 21.8533 60.2866 20.08 57.4066 20.08C 55.8599 20.08 54.7132 20.5733 53.9666 21.56C 53.2199 22.5467 52.8066 23.76 52.7266 25.2L 52.6866 26.72L 52.7266 28.28C 52.7799 29.6133 53.1932 30.76 53.9666 31.72C 54.7666 32.6533 55.9132 33.12 57.4066 33.12ZM 80.8969 37.4C 77.9369 37.4 75.5769 36.5467 73.8169 34.84C 72.0835 33.1067 71.1635 30.68 71.0569 27.56L 71.0169 26.56L 71.0569 25.56C 71.1902 22.52 72.1235 20.1333 73.8569 18.4C 75.6169 16.6667 77.9635 15.8 80.8969 15.8C 84.0435 15.8 86.4702 16.76 88.1769 18.68C 89.9102 20.6 90.7769 23.16 90.7769 26.36L 90.7769 27.2C 90.7769 27.4667 90.6835 27.6933 90.4969 27.88C 90.3102 28.0667 90.0702 28.16 89.7769 28.16L 76.4969 28.16L 76.4969 28.48C 76.5502 29.9467 76.9502 31.1867 77.6969 32.2C 78.4702 33.1867 79.5235 33.68 80.8569 33.68C 82.4302 33.68 83.6969 33.0667 84.6569 31.84C 84.8969 31.5467 85.0835 31.36 85.2169 31.28C 85.3769 31.2 85.6035 31.16 85.8969 31.16L 89.3369 31.16C 89.5769 31.16 89.7769 31.24 89.9369 31.4C 90.1235 31.5333 90.2169 31.7067 90.2169 31.92C 90.2169 32.56 89.8302 33.32 89.0569 34.2C 88.3102 35.0533 87.2302 35.8 85.8169 36.44C 84.4035 37.08 82.7635 37.4 80.8969 37.4ZM 85.3369 24.8L 85.3369 24.68C 85.3369 23.1067 84.9369 21.84 84.1369 20.88C 83.3635 19.92 82.2835 19.44 80.8969 19.44C 79.5102 19.44 78.4302 19.92 77.6569 20.88C 76.8835 21.84 76.4969 23.1067 76.4969 24.68L 76.4969 24.8L 85.3369 24.8Z"/>
<path id="path1_fill" d="M 3.44 12.76C 3.17333 12.76 2.94667 12.6667 2.76 12.48C 2.57333 12.2933 2.48 12.0667 2.48 11.8L 2.48 8.92C 2.48 8.65333 2.57333 8.42667 2.76 8.24C 2.94667 8.05333 3.17333 7.96 3.44 7.96L 7.08 7.96C 7.34667 7.96 7.57333 8.05333 7.76 8.24C 7.97333 8.42667 8.08 8.65333 8.08 8.92L 8.08 11.8C 8.08 12.0667 7.98667 12.2933 7.8 12.48C 7.61333 12.6667 7.37333 12.76 7.08 12.76L 3.44 12.76ZM 3.6 37C 3.33333 37 3.10667 36.9067 2.92 36.72C 2.73333 36.5333 2.64 36.3067 2.64 36.04L 2.64 17.16C 2.64 16.8933 2.73333 16.6667 2.92 16.48C 3.10667 16.2933 3.33333 16.2 3.6 16.2L 6.92 16.2C 7.21333 16.2 7.44 16.2933 7.6 16.48C 7.78667 16.64 7.88 16.8667 7.88 17.16L 7.88 36.04C 7.88 36.3067 7.78667 36.5333 7.6 36.72C 7.44 36.9067 7.21333 37 6.92 37L 3.6 37ZM 14.1469 37C 13.8802 37 13.6535 36.9067 13.4669 36.72C 13.2802 36.5333 13.1869 36.3067 13.1869 36.04L 13.1869 17.16C 13.1869 16.8933 13.2802 16.6667 13.4669 16.48C 13.6535 16.2933 13.8802 16.2 14.1469 16.2L 17.4269 16.2C 17.6935 16.2 17.9202 16.2933 18.1069 16.48C 18.2935 16.6667 18.3869 16.8933 18.3869 17.16L 18.3869 18.8C 19.9602 16.8 22.1869 15.8 25.0669 15.8C 27.5202 15.8 29.4669 16.6133 30.9069 18.24C 32.3469 19.84 33.0669 22.0267 33.0669 24.8L 33.0669 36.04C 33.0669 36.3067 32.9735 36.5333 32.7869 36.72C 32.6269 36.9067 32.4002 37 32.1069 37L 28.5869 37C 28.3202 37 28.0935 36.9067 27.9069 36.72C 27.7202 36.5333 27.6269 36.3067 27.6269 36.04L 27.6269 25.04C 27.6269 23.4667 27.2402 22.2533 26.4669 21.4C 25.7202 20.52 24.6269 20.08 23.1869 20.08C 21.7735 20.08 20.6535 20.52 19.8269 21.4C 19.0269 22.28 18.6269 23.4933 18.6269 25.04L 18.6269 36.04C 18.6269 36.3067 18.5335 36.5333 18.3469 36.72C 18.1869 36.9067 17.9602 37 17.6669 37L 14.1469 37Z"/>
<path id="path2_fill" d="M 8.68 37.4C 7.32 37.4 6.06667 37.1333 4.92 36.6C 3.8 36.04 2.90667 35.2933 2.24 34.36C 1.6 33.4267 1.28 32.4 1.28 31.28C 1.28 29.4667 2.01333 28 3.48 26.88C 4.94667 25.76 6.96 25 9.52 24.6L 15 23.8L 15 22.96C 15 21.7867 14.7067 20.9067 14.12 20.32C 13.5333 19.7333 12.5867 19.44 11.28 19.44C 10.4 19.44 9.68 19.6133 9.12 19.96C 8.58667 20.28 8.16 20.6 7.84 20.92C 7.52 21.2667 7.30667 21.4933 7.2 21.6C 7.09333 21.92 6.89333 22.08 6.6 22.08L 3.52 22.08C 3.28 22.08 3.06667 22 2.88 21.84C 2.72 21.68 2.64 21.4667 2.64 21.2C 2.66667 20.5333 2.98667 19.7733 3.6 18.92C 4.24 18.0667 5.21333 17.3333 6.52 16.72C 7.82667 16.1067 9.42667 15.8 11.32 15.8C 14.4667 15.8 16.76 16.5067 18.2 17.92C 19.64 19.3333 20.36 21.1867 20.36 23.48L 20.36 36.04C 20.36 36.3067 20.2667 36.5333 20.08 36.72C 19.92 36.9067 19.6933 37 19.4 37L 16.16 37C 15.8933 37 15.6667 36.9067 15.48 36.72C 15.2933 36.5333 15.2 36.3067 15.2 36.04L 15.2 34.48C 14.6133 35.3333 13.7733 36.04 12.68 36.6C 11.6133 37.1333 10.28 37.4 8.68 37.4ZM 10.04 33.6C 11.5067 33.6 12.7067 33.12 13.64 32.16C 14.5733 31.2 15.04 29.8 15.04 27.96L 15.04 27.12L 11.04 27.76C 9.49333 28 8.32 28.3867 7.52 28.92C 6.74667 29.4533 6.36 30.1067 6.36 30.88C 6.36 31.7333 6.72 32.4 7.44 32.88C 8.16 33.36 9.02667 33.6 10.04 33.6ZM 26.4516 37C 26.1849 37 25.9582 36.9067 25.7716 36.72C 25.5849 36.5333 25.4916 36.3067 25.4916 36.04L 25.4916 17.16C 25.4916 16.8933 25.5849 16.6667 25.7716 16.48C 25.9582 16.2933 26.1849 16.2 26.4516 16.2L 29.7316 16.2C 29.9982 16.2 30.2249 16.2933 30.4116 16.48C 30.5982 16.6667 30.6916 16.8933 30.6916 17.16L 30.6916 18.8C 32.2649 16.8 34.4916 15.8 37.3716 15.8C 39.8249 15.8 41.7716 16.6133 43.2116 18.24C 44.6516 19.84 45.3716 22.0267 45.3716 24.8L 45.3716 36.04C 45.3716 36.3067 45.2782 36.5333 45.0916 36.72C 44.9316 36.9067 44.7049 37 44.4116 37L 40.8916 37C 40.6249 37 40.3982 36.9067 40.2116 36.72C 40.0249 36.5333 39.9316 36.3067 39.9316 36.04L 39.9316 25.04C 39.9316 23.4667 39.5449 22.2533 38.7716 21.4C 38.0249 20.52 36.9316 20.08 35.4916 20.08C 34.0782 20.08 32.9582 20.52 32.1316 21.4C 31.3316 22.28 30.9316 23.4933 30.9316 25.04L 30.9316 36.04C 30.9316 36.3067 30.8382 36.5333 30.6516 36.72C 30.4916 36.9067 30.2649 37 29.9716 37L 26.4516 37ZM 53.5484 44.6C 53.3351 44.6 53.1484 44.52 52.9884 44.36C 52.8284 44.2 52.7484 44.0133 52.7484 43.8C 52.7484 43.56 52.8018 43.3467 52.9084 43.16L 56.0284 35.76L 48.3484 17.64C 48.2418 17.4 48.1884 17.2133 48.1884 17.08C 48.2151 16.84 48.3084 16.64 48.4684 16.48C 48.6284 16.2933 48.8284 16.2 49.0684 16.2L 52.3084 16.2C 52.8151 16.2 53.1751 16.4533 53.3884 16.96L 58.7084 30.04L 64.1884 16.96C 64.4018 16.4533 64.7618 16.2 65.2684 16.2L 68.4684 16.2C 68.6818 16.2 68.8684 16.28 69.0284 16.44C 69.2151 16.6 69.3084 16.7867 69.3084 17C 69.3084 17.1867 69.2551 17.4 69.1484 17.64L 57.8284 43.84C 57.5884 44.3467 57.2151 44.6 56.7084 44.6L 53.5484 44.6Z"/>
<path id="path3_fill" d="M 10.52 37.4C 8.52 37.4 6.84 37.1067 5.48 36.52C 4.12 35.9067 3.10667 35.2 2.44 34.4C 1.8 33.5733 1.48 32.8667 1.48 32.28C 1.48 32.0133 1.57333 31.8 1.76 31.64C 1.94667 31.48 2.16 31.4 2.4 31.4L 5.56 31.4C 5.8 31.4 6 31.4933 6.16 31.68C 6.26667 31.76 6.54667 32 7 32.4C 7.45333 32.8267 7.98667 33.16 8.6 33.4C 9.21333 33.64 9.89333 33.76 10.64 33.76C 11.7067 33.76 12.5867 33.5467 13.28 33.12C 13.9733 32.6933 14.32 32.1067 14.32 31.36C 14.32 30.8 14.16 30.3467 13.84 30C 13.5467 29.6533 13 29.3467 12.2 29.08C 11.4 28.7867 10.2133 28.48 8.64 28.16C 6.37333 27.68 4.69333 26.9467 3.6 25.96C 2.53333 24.9733 2 23.6667 2 22.04C 2 20.9733 2.32 19.9733 2.96 19.04C 3.6 18.08 4.54667 17.3067 5.8 16.72C 7.08 16.1067 8.6 15.8 10.36 15.8C 12.1467 15.8 13.6933 16.0933 15 16.68C 16.3067 17.24 17.2933 17.92 17.96 18.72C 18.6533 19.4933 19 20.1867 19 20.8C 19 21.04 18.9067 21.2533 18.72 21.44C 18.56 21.6 18.36 21.68 18.12 21.68L 15.16 21.68C 14.9467 21.68 14.72 21.5867 14.48 21.4C 14.2933 21.2667 14 21.0133 13.6 20.64C 13.2 20.2667 12.7333 19.9733 12.2 19.76C 11.6667 19.5467 11.04 19.44 10.32 19.44C 9.33333 19.44 8.56 19.6533 8 20.08C 7.46667 20.5067 7.2 21.0667 7.2 21.76C 7.2 22.2667 7.33333 22.68 7.6 23C 7.86667 23.32 8.38667 23.6267 9.16 23.92C 9.93333 24.2133 11.0933 24.5067 12.64 24.8C 15.2 25.3067 17.0267 26.0933 18.12 27.16C 19.24 28.2267 19.8 29.5333 19.8 31.08C 19.8 32.9467 18.9867 34.4667 17.36 35.64C 15.7333 36.8133 13.4533 37.4 10.52 37.4ZM 33.1291 37.4C 30.0091 37.4 27.5957 36.6 25.8891 35C 24.1824 33.3733 23.2624 31.16 23.1291 28.36L 23.0891 26.6L 23.1291 24.84C 23.2624 22.0667 24.1957 19.8667 25.9291 18.24C 27.6624 16.6133 30.0624 15.8 33.1291 15.8C 36.1957 15.8 38.5957 16.6133 40.3291 18.24C 42.0624 19.8667 42.9957 22.0667 43.1291 24.84C 43.1557 25.16 43.1691 25.7467 43.1691 26.6C 43.1691 27.4533 43.1557 28.04 43.1291 28.36C 42.9957 31.16 42.0757 33.3733 40.3691 35C 38.6624 36.6 36.2491 37.4 33.1291 37.4ZM 33.1291 33.44C 34.5424 33.44 35.6357 33 36.4091 32.12C 37.1824 31.2133 37.6091 29.8933 37.6891 28.16C 37.7157 27.8933 37.7291 27.3733 37.7291 26.6C 37.7291 25.8267 37.7157 25.3067 37.6891 25.04C 37.6091 23.3067 37.1824 22 36.4091 21.12C 35.6357 20.2133 34.5424 19.76 33.1291 19.76C 31.7157 19.76 30.6224 20.2133 29.8491 21.12C 29.0757 22 28.6491 23.3067 28.5691 25.04L 28.5291 26.6L 28.5691 28.16C 28.6491 29.8933 29.0757 31.2133 29.8491 32.12C 30.6224 33 31.7157 33.44 33.1291 33.44ZM 48.5609 37C 48.2943 37 48.0676 36.9067 47.8809 36.72C 47.6943 36.5333 47.6009 36.3067 47.6009 36.04L 47.6009 17.16C 47.6009 16.8933 47.6943 16.6667 47.8809 16.48C 48.0676 16.2933 48.2943 16.2 48.5609 16.2L 51.8409 16.2C 52.1076 16.2 52.3343 16.2933 52.5209 16.48C 52.7076 16.6667 52.8009 16.8933 52.8009 17.16L 52.8009 18.8C 54.3743 16.8 56.6009 15.8 59.4809 15.8C 61.9343 15.8 63.8809 16.6133 65.3209 18.24C 66.7609 19.84 67.4809 22.0267 67.4809 24.8L 67.4809 36.04C 67.4809 36.3067 67.3876 36.5333 67.2009 36.72C 67.0409 36.9067 66.8143 37 66.5209 37L 63.0009 37C 62.7343 37 62.5076 36.9067 62.3209 36.72C 62.1343 36.5333 62.0409 36.3067 62.0409 36.04L 62.0409 25.04C 62.0409 23.4667 61.6543 22.2533 60.8809 21.4C 60.1343 20.52 59.0409 20.08 57.6009 20.08C 56.1876 20.08 55.0676 20.52 54.2409 21.4C 53.4409 22.28 53.0409 23.4933 53.0409 25.04L 53.0409 36.04C 53.0409 36.3067 52.9476 36.5333 52.7609 36.72C 52.6009 36.9067 52.3743 37 52.0809 37L 48.5609 37ZM 81.9619 45.8C 79.5885 45.8 77.6685 45.4 76.2019 44.6C 74.7352 43.8267 73.6952 42.9333 73.0819 41.92C 72.4685 40.9067 72.1619 40.04 72.1619 39.32C 72.1619 39.08 72.2552 38.8667 72.4419 38.68C 72.6552 38.4933 72.8819 38.4 73.1219 38.4L 76.6019 38.4C 76.8419 38.4 77.0419 38.4533 77.2019 38.56C 77.3885 38.6933 77.5352 38.92 77.6419 39.24C 77.9085 39.96 78.3352 40.56 78.9219 41.04C 79.5352 41.5467 80.4819 41.8 81.7619 41.8C 83.3619 41.8 84.5352 41.44 85.2819 40.72C 86.0552 40 86.4419 38.76 86.4419 37L 86.4419 34.28C 84.9752 36.0133 82.9219 36.88 80.2819 36.88C 77.5085 36.88 75.4152 36.0267 74.0019 34.32C 72.6152 32.6133 71.8685 30.32 71.7619 27.44L 71.7219 26.36L 71.7619 25.28C 71.8685 22.4533 72.6285 20.1733 74.0419 18.44C 75.4552 16.68 77.5352 15.8 80.2819 15.8C 81.6952 15.8 82.9352 16.0667 84.0019 16.6C 85.0685 17.1333 85.9619 17.8667 86.6819 18.8L 86.6819 17.2C 86.6819 16.9067 86.7752 16.6667 86.9619 16.48C 87.1485 16.2933 87.3752 16.2 87.6419 16.2L 90.8819 16.2C 91.1485 16.2 91.3752 16.3067 91.5619 16.52C 91.7485 16.7067 91.8419 16.9333 91.8419 17.2L 91.8819 36.48C 91.8819 39.44 91.0552 41.7333 89.4019 43.36C 87.7485 44.9867 85.2685 45.8 81.9619 45.8ZM 81.7619 32.64C 83.2819 32.64 84.4152 32.16 85.1619 31.2C 85.9352 30.24 86.3619 29.0667 86.4419 27.68C 86.4685 27.4667 86.4819 27.0267 86.4819 26.36C 86.4819 25.72 86.4685 25.2933 86.4419 25.08C 86.3619 23.6667 85.9352 22.48 85.1619 21.52C 84.4152 20.56 83.2819 20.08 81.7619 20.08C 78.8819 20.08 77.3619 21.8533 77.2019 25.4L 77.1619 26.36C 77.1619 28.2533 77.4952 29.7733 78.1619 30.92C 78.8552 32.0667 80.0552 32.64 81.7619 32.64Z"/>
<path id="path4_fill" d="M 12.04 37C 9.61333 37 7.78667 36.3733 6.56 35.12C 5.36 33.84 4.76 31.9733 4.76 29.52L 4.76 20.44L 1.6 20.44C 1.33333 20.44 1.10667 20.3467 0.92 20.16C 0.733333 19.9467 0.64 19.7067 0.64 19.44L 0.64 17.16C 0.64 16.8933 0.733333 16.6667 0.92 16.48C 1.10667 16.2933 1.33333 16.2 1.6 16.2L 4.76 16.2L 4.76 9.56C 4.76 9.26667 4.85333 9.04 5.04 8.88C 5.22667 8.69333 5.45333 8.6 5.72 8.6L 8.96 8.6C 9.25333 8.6 9.48 8.69333 9.64 8.88C 9.82667 9.04 9.92 9.26667 9.92 9.56L 9.92 16.2L 14.92 16.2C 15.2133 16.2 15.44 16.2933 15.6 16.48C 15.7867 16.64 15.88 16.8667 15.88 17.16L 15.88 19.44C 15.88 19.7333 15.7867 19.9733 15.6 20.16C 15.4133 20.3467 15.1867 20.44 14.92 20.44L 9.92 20.44L 9.92 29.12C 9.92 30.2667 10.12 31.1333 10.52 31.72C 10.92 32.3067 11.5867 32.6 12.52 32.6L 15.28 32.6C 15.5467 32.6 15.7733 32.6933 15.96 32.88C 16.1467 33.0667 16.24 33.2933 16.24 33.56L 16.24 36.04C 16.24 36.3067 16.1467 36.5333 15.96 36.72C 15.8 36.9067 15.5733 37 15.28 37L 12.04 37ZM 28.9884 37.4C 25.8684 37.4 23.4551 36.6 21.7484 35C 20.0418 33.3733 19.1218 31.16 18.9884 28.36L 18.9484 26.6L 18.9884 24.84C 19.1218 22.0667 20.0551 19.8667 21.7884 18.24C 23.5218 16.6133 25.9218 15.8 28.9884 15.8C 32.0551 15.8 34.4551 16.6133 36.1884 18.24C 37.9218 19.8667 38.8551 22.0667 38.9884 24.84C 39.0151 25.16 39.0284 25.7467 39.0284 26.6C 39.0284 27.4533 39.0151 28.04 38.9884 28.36C 38.8551 31.16 37.9351 33.3733 36.2284 35C 34.5218 36.6 32.1084 37.4 28.9884 37.4ZM 28.9884 33.44C 30.4018 33.44 31.4951 33 32.2684 32.12C 33.0418 31.2133 33.4684 29.8933 33.5484 28.16C 33.5751 27.8933 33.5884 27.3733 33.5884 26.6C 33.5884 25.8267 33.5751 25.3067 33.5484 25.04C 33.4684 23.3067 33.0418 22 32.2684 21.12C 31.4951 20.2133 30.4018 19.76 28.9884 19.76C 27.5751 19.76 26.4818 20.2133 25.7084 21.12C 24.9351 22 24.5084 23.3067 24.4284 25.04L 24.3884 26.6L 24.4284 28.16C 24.5084 29.8933 24.9351 31.2133 25.7084 32.12C 26.4818 33 27.5751 33.44 28.9884 33.44Z"/>
<path id="path5_fill" d="M 10.52 37.4C 8.52 37.4 6.84 37.1067 5.48 36.52C 4.12 35.9067 3.10667 35.2 2.44 34.4C 1.8 33.5733 1.48 32.8667 1.48 32.28C 1.48 32.0133 1.57333 31.8 1.76 31.64C 1.94667 31.48 2.16 31.4 2.4 31.4L 5.56 31.4C 5.8 31.4 6 31.4933 6.16 31.68C 6.26667 31.76 6.54667 32 7 32.4C 7.45333 32.8267 7.98667 33.16 8.6 33.4C 9.21333 33.64 9.89333 33.76 10.64 33.76C 11.7067 33.76 12.5867 33.5467 13.28 33.12C 13.9733 32.6933 14.32 32.1067 14.32 31.36C 14.32 30.8 14.16 30.3467 13.84 30C 13.5467 29.6533 13 29.3467 12.2 29.08C 11.4 28.7867 10.2133 28.48 8.64 28.16C 6.37333 27.68 4.69333 26.9467 3.6 25.96C 2.53333 24.9733 2 23.6667 2 22.04C 2 20.9733 2.32 19.9733 2.96 19.04C 3.6 18.08 4.54667 17.3067 5.8 16.72C 7.08 16.1067 8.6 15.8 10.36 15.8C 12.1467 15.8 13.6933 16.0933 15 16.68C 16.3067 17.24 17.2933 17.92 17.96 18.72C 18.6533 19.4933 19 20.1867 19 20.8C 19 21.04 18.9067 21.2533 18.72 21.44C 18.56 21.6 18.36 21.68 18.12 21.68L 15.16 21.68C 14.9467 21.68 14.72 21.5867 14.48 21.4C 14.2933 21.2667 14 21.0133 13.6 20.64C 13.2 20.2667 12.7333 19.9733 12.2 19.76C 11.6667 19.5467 11.04 19.44 10.32 19.44C 9.33333 19.44 8.56 19.6533 8 20.08C 7.46667 20.5067 7.2 21.0667 7.2 21.76C 7.2 22.2667 7.33333 22.68 7.6 23C 7.86667 23.32 8.38667 23.6267 9.16 23.92C 9.93333 24.2133 11.0933 24.5067 12.64 24.8C 15.2 25.3067 17.0267 26.0933 18.12 27.16C 19.24 28.2267 19.8 29.5333 19.8 31.08C 19.8 32.9467 18.9867 34.4667 17.36 35.64C 15.7333 36.8133 13.4533 37.4 10.52 37.4ZM 24.9291 37C 24.6624 37 24.4357 36.9067 24.2491 36.72C 24.0624 36.5333 23.9691 36.3067 23.9691 36.04L 23.9691 9.56C 23.9691 9.26667 24.0624 9.04 24.2491 8.88C 24.4357 8.69333 24.6624 8.6 24.9291 8.6L 28.4891 8.6C 28.7824 8.6 29.0091 8.69333 29.1691 8.88C 29.3557 9.04 29.4491 9.26667 29.4491 9.56L 29.4491 18.68C 31.0491 16.76 33.2091 15.8 35.9291 15.8C 38.3824 15.8 40.3424 16.6133 41.8091 18.24C 43.2757 19.84 44.0091 22.0267 44.0091 24.8L 44.0091 36.04C 44.0091 36.3067 43.9157 36.5333 43.7291 36.72C 43.5691 36.9067 43.3424 37 43.0491 37L 39.4491 37C 39.1824 37 38.9557 36.9067 38.7691 36.72C 38.5824 36.5333 38.4891 36.3067 38.4891 36.04L 38.4891 25.04C 38.4891 23.4667 38.1024 22.2533 37.3291 21.4C 36.5824 20.52 35.4891 20.08 34.0491 20.08C 32.6357 20.08 31.5157 20.52 30.6891 21.4C 29.8624 22.28 29.4491 23.4933 29.4491 25.04L 29.4491 36.04C 29.4491 36.3067 29.3557 36.5333 29.1691 36.72C 29.0091 36.9067 28.7824 37 28.4891 37L 24.9291 37ZM 55.1253 37.4C 53.7653 37.4 52.512 37.1333 51.3653 36.6C 50.2453 36.04 49.352 35.2933 48.6853 34.36C 48.0453 33.4267 47.7253 32.4 47.7253 31.28C 47.7253 29.4667 48.4586 28 49.9253 26.88C 51.392 25.76 53.4053 25 55.9653 24.6L 61.4453 23.8L 61.4453 22.96C 61.4453 21.7867 61.152 20.9067 60.5653 20.32C 59.9786 19.7333 59.032 19.44 57.7253 19.44C 56.8453 19.44 56.1253 19.6133 55.5653 19.96C 55.032 20.28 54.6053 20.6 54.2853 20.92C 53.9653 21.2667 53.752 21.4933 53.6453 21.6C 53.5386 21.92 53.3386 22.08 53.0453 22.08L 49.9653 22.08C 49.7253 22.08 49.512 22 49.3253 21.84C 49.1653 21.68 49.0853 21.4667 49.0853 21.2C 49.112 20.5333 49.432 19.7733 50.0453 18.92C 50.6853 18.0667 51.6586 17.3333 52.9653 16.72C 54.272 16.1067 55.872 15.8 57.7653 15.8C 60.912 15.8 63.2053 16.5067 64.6453 17.92C 66.0853 19.3333 66.8053 21.1867 66.8053 23.48L 66.8053 36.04C 66.8053 36.3067 66.712 36.5333 66.5253 36.72C 66.3653 36.9067 66.1386 37 65.8453 37L 62.6053 37C 62.3386 37 62.112 36.9067 61.9253 36.72C 61.7386 36.5333 61.6453 36.3067 61.6453 36.04L 61.6453 34.48C 61.0586 35.3333 60.2186 36.04 59.1253 36.6C 58.0586 37.1333 56.7253 37.4 55.1253 37.4ZM 56.4853 33.6C 57.952 33.6 59.152 33.12 60.0853 32.16C 61.0186 31.2 61.4853 29.8 61.4853 27.96L 61.4853 27.12L 57.4853 27.76C 55.9386 28 54.7653 28.3867 53.9653 28.92C 53.192 29.4533 52.8053 30.1067 52.8053 30.88C 52.8053 31.7333 53.1653 32.4 53.8853 32.88C 54.6053 33.36 55.472 33.6 56.4853 33.6ZM 72.8969 37C 72.6302 37 72.4035 36.9067 72.2169 36.72C 72.0302 36.5333 71.9369 36.3067 71.9369 36.04L 71.9369 17.2C 71.9369 16.9333 72.0302 16.7067 72.2169 16.52C 72.4035 16.3067 72.6302 16.2 72.8969 16.2L 76.1369 16.2C 76.4302 16.2 76.6702 16.2933 76.8569 16.48C 77.0435 16.6667 77.1369 16.9067 77.1369 17.2L 77.1369 18.84C 77.7769 17.9867 78.5769 17.3333 79.5369 16.88C 80.5235 16.4267 81.6435 16.2 82.8969 16.2L 84.5369 16.2C 84.8302 16.2 85.0569 16.2933 85.2169 16.48C 85.4035 16.64 85.4969 16.8667 85.4969 17.16L 85.4969 20.04C 85.4969 20.3067 85.4035 20.5333 85.2169 20.72C 85.0569 20.9067 84.8302 21 84.5369 21L 81.4169 21C 80.1635 21 79.1769 21.36 78.4569 22.08C 77.7369 22.8 77.3769 23.7867 77.3769 25.04L 77.3769 36.04C 77.3769 36.3067 77.2835 36.5333 77.0969 36.72C 76.9102 36.9067 76.6702 37 76.3769 37L 72.8969 37ZM 97.3031 37.4C 94.3431 37.4 91.9831 36.5467 90.2231 34.84C 88.4898 33.1067 87.5698 30.68 87.4631 27.56L 87.4231 26.56L 87.4631 25.56C 87.5965 22.52 88.5298 20.1333 90.2631 18.4C 92.0231 16.6667 94.3698 15.8 97.3031 15.8C 100.45 15.8 102.876 16.76 104.583 18.68C 106.316 20.6 107.183 23.16 107.183 26.36L 107.183 27.2C 107.183 27.4667 107.09 27.6933 106.903 27.88C 106.716 28.0667 106.476 28.16 106.183 28.16L 92.9031 28.16L 92.9031 28.48C 92.9565 29.9467 93.3565 31.1867 94.1031 32.2C 94.8765 33.1867 95.9298 33.68 97.2631 33.68C 98.8365 33.68 100.103 33.0667 101.063 31.84C 101.303 31.5467 101.49 31.36 101.623 31.28C 101.783 31.2 102.01 31.16 102.303 31.16L 105.743 31.16C 105.983 31.16 106.183 31.24 106.343 31.4C 106.53 31.5333 106.623 31.7067 106.623 31.92C 106.623 32.56 106.236 33.32 105.463 34.2C 104.716 35.0533 103.636 35.8 102.223 36.44C 100.81 37.08 99.1698 37.4 97.3031 37.4ZM 101.743 24.8L 101.743 24.68C 101.743 23.1067 101.343 21.84 100.543 20.88C 99.7698 19.92 98.6898 19.44 97.3031 19.44C 95.9165 19.44 94.8365 19.92 94.0631 20.88C 93.2898 21.84 92.9031 23.1067 92.9031 24.68L 92.9031 24.8L 101.743 24.8Z"/>
<path id="path6_fill" d="M 3.44 12.76C 3.17333 12.76 2.94667 12.6667 2.76 12.48C 2.57333 12.2933 2.48 12.0667 2.48 11.8L 2.48 8.92C 2.48 8.65333 2.57333 8.42667 2.76 8.24C 2.94667 8.05333 3.17333 7.96 3.44 7.96L 7.08 7.96C 7.34667 7.96 7.57333 8.05333 7.76 8.24C 7.97333 8.42667 8.08 8.65333 8.08 8.92L 8.08 11.8C 8.08 12.0667 7.98667 12.2933 7.8 12.48C 7.61333 12.6667 7.37333 12.76 7.08 12.76L 3.44 12.76ZM 3.6 37C 3.33333 37 3.10667 36.9067 2.92 36.72C 2.73333 36.5333 2.64 36.3067 2.64 36.04L 2.64 17.16C 2.64 16.8933 2.73333 16.6667 2.92 16.48C 3.10667 16.2933 3.33333 16.2 3.6 16.2L 6.92 16.2C 7.21333 16.2 7.44 16.2933 7.6 16.48C 7.78667 16.64 7.88 16.8667 7.88 17.16L 7.88 36.04C 7.88 36.3067 7.78667 36.5333 7.6 36.72C 7.44 36.9067 7.21333 37 6.92 37L 3.6 37ZM 22.5869 37C 20.1602 37 18.3335 36.3733 17.1069 35.12C 15.9069 33.84 15.3069 31.9733 15.3069 29.52L 15.3069 20.44L 12.1469 20.44C 11.8802 20.44 11.6535 20.3467 11.4669 20.16C 11.2802 19.9467 11.1869 19.7067 11.1869 19.44L 11.1869 17.16C 11.1869 16.8933 11.2802 16.6667 11.4669 16.48C 11.6535 16.2933 11.8802 16.2 12.1469 16.2L 15.3069 16.2L 15.3069 9.56C 15.3069 9.26667 15.4002 9.04 15.5869 8.88C 15.7735 8.69333 16.0002 8.6 16.2669 8.6L 19.5069 8.6C 19.8002 8.6 20.0269 8.69333 20.1869 8.88C 20.3735 9.04 20.4669 9.26667 20.4669 9.56L 20.4669 16.2L 25.4669 16.2C 25.7602 16.2 25.9869 16.2933 26.1469 16.48C 26.3335 16.64 26.4269 16.8667 26.4269 17.16L 26.4269 19.44C 26.4269 19.7333 26.3335 19.9733 26.1469 20.16C 25.9602 20.3467 25.7335 20.44 25.4669 20.44L 20.4669 20.44L 20.4669 29.12C 20.4669 30.2667 20.6669 31.1333 21.0669 31.72C 21.4669 32.3067 22.1335 32.6 23.0669 32.6L 25.8269 32.6C 26.0935 32.6 26.3202 32.6933 26.5069 32.88C 26.6935 33.0667 26.7869 33.2933 26.7869 33.56L 26.7869 36.04C 26.7869 36.3067 26.6935 36.5333 26.5069 36.72C 26.3469 36.9067 26.1202 37 25.8269 37L 22.5869 37ZM 31.4153 29.24C 31.1486 29.24 30.922 29.1467 30.7353 28.96C 30.5486 28.7733 30.4553 28.5467 30.4553 28.28L 30.4553 9.96C 30.4553 9.69333 30.5486 9.46667 30.7353 9.28C 30.922 9.09333 31.1486 9 31.4153 9L 34.6553 9C 34.9486 9 35.1753 9.09333 35.3353 9.28C 35.522 9.44 35.6153 9.66667 35.6153 9.96L 35.6153 28.28C 35.6153 28.5467 35.522 28.7733 35.3353 28.96C 35.1753 29.1467 34.9486 29.24 34.6553 29.24L 31.4153 29.24ZM 31.1753 37C 30.9086 37 30.682 36.9067 30.4953 36.72C 30.3086 36.5333 30.2153 36.3067 30.2153 36.04L 30.2153 32.32C 30.2153 32.0267 30.3086 31.7867 30.4953 31.6C 30.682 31.4133 30.9086 31.32 31.1753 31.32L 34.8953 31.32C 35.1886 31.32 35.4286 31.4133 35.6153 31.6C 35.802 31.7867 35.8953 32.0267 35.8953 32.32L 35.8953 36.04C 35.8953 36.3067 35.802 36.5333 35.6153 36.72C 35.4286 36.9067 35.1886 37 34.8953 37L 31.1753 37Z"/>
<path id="path7_fill" d="M 13.769 6.885C 13.769 3.082 10.687 -2.28882e-07 6.884 -2.28882e-07C 3.082 -2.28882e-07 -5.34058e-08 3.082 -5.34058e-08 6.885C -5.34058e-08 10.687 3.082 13.769 6.884 13.769C 10.687 13.769 13.769 10.687 13.769 6.885Z"/>
<path id="path8_fill" d="M 10.596 0.252C 10.26 -0.084 9.715 -0.084 9.379 0.252L 0.252 9.38C -0.0839999 9.716 -0.0839999 10.261 0.252 10.597L 1.469 11.814C 1.805 12.15 2.35 12.15 2.686 11.814L 11.813 2.686C 12.149 2.35 12.149 1.805 11.813 1.469L 10.596 0.252Z"/>
<path id="path9_fill" d="M 21.824 17.4L 17.499 21.727C 16.72 22.505 15.504 22.46 14.78 21.626L 5.622 11.051C 4.403 9.643 4.16 7.698 4.911 6.321L 5.95093e-07 1.409L 1.409 3.8147e-07L 6.286 4.877C 7.668 4.037 9.697 4.267 11.149 5.525L 21.723 14.682C 22.556 15.406 22.603 16.623 21.824 17.4Z"/>
<path id="path10_fill" d="M 4 15L 4 6.878C 3.686 6.953 3.352 7.001 3 7.001C 1.343 7.001 0 6.105 0 5.001C 0 3.896 1.343 3.001 3 3.001C 4.656 3.001 5.999 3.896 6 5L 6 11.111L 11 8.889L 11 3.878C 10.686 3.953 10.352 4.001 10 4.001C 8.343 4.001 7 3.105 7 2C 7 0.896 8.343 0 10 0C 11.656 0 12.999 0.896 12.999 2L 13 2L 13 11L 4 15Z"/>
<path id="path11_fill" d="M 4 12L 4 3.877C 3.686 3.952 3.353 4 3 4C 1.343 4 0 3.105 0 2C 0 0.896 1.343 0 3 0C 4.656 0 6 0.896 6 2L 6 12L 4 12Z"/>
<path id="path12_fill" d="M 2 0C 2 0 0 0 0 2L 0 34C 0 34 0 36 2 36L 34.031 36C 36 36 36 34 36 34L 36 2C 36 2 36 0 34 0L 2 0Z"/>
<path id="path13_fill" d="M 0 1C 0 1 0 0 1 0L 6 0C 7 0 7 1 7 1L 7 29L 0 29L 0 1Z"/>
<path id="path14_fill" d="M 0 29L 0 1C 0 1 0 0 1 0L 5 0C 6 0 6 1 6 1L 6 29L 0 29Z"/>
<path id="path15_fill" d="M 0 1C 0 1 0 0 1 0L 5 0C 6 0 6 1 6 1L 6 29L 0 29L 0 1Z"/>
<path id="path16_fill" d="M 6 1C 6 1 6 0 5 0L 1 0C 0 0 0 1 0 1L 0 21L 6 21L 6 1Z"/>
<path id="path17_fill" d="M 6 30.001L 0 30.001L 0 28L 0 23.001L 0 21.001L 0 16.001L 0 14.001L 0 9L 0 7.001L 0 2.001L 0 5.49316e-07L 6 5.49316e-07L 36 5.49316e-07L 36 2.001L 6 2.001L 6 7.001L 36 7.001L 36 9L 6 9L 6 14.001L 36 14.001L 36 16.001L 6 16.001L 6 21.001L 36 21.001L 36 23.001L 6 23.001L 6 28L 36 28L 36 30.001L 6 30.001Z"/>
<path id="path18_fill" d="M 3.602 17.42C 4.255 18.363 5.054 19.257 6.033 20.138L 6.371 18.399C 5.655 18.037 5.05 17.498 4.571 16.788C 4.019 15.968 3.725 15.062 3.699 14.071C 3.715 13.158 4.007 12.335 4.57 11.62C 5.135 10.912 5.864 10.44 6.739 10.22L 6.859 10.19L 6.981 10.219C 7.518 10.346 7.575 10.69 7.575 10.832C 7.575 11.177 7.351 11.453 6.995 11.552C 6.628 11.722 6.359 11.969 6.175 12.31C 5.973 12.678 5.867 13.023 5.867 13.304C 5.867 13.779 6.036 14.207 6.382 14.606C 6.596 14.849 6.814 15.038 7.036 15.179L 8.129 9.671C 7.747 9.59 7.396 9.539 7.083 9.519C 5.7 9.564 4.566 10.019 3.714 10.868C 3.281 11.311 2.967 11.775 2.756 12.291C 2.543 12.807 2.429 13.35 2.415 13.875C 2.445 15.148 2.844 16.34 3.602 17.42ZM 8.547 28.899C 8.367 28.373 8.118 27.843 7.804 27.323C 7.497 26.806 7.175 26.35 6.845 25.964C 6.74 25.838 6.643 25.733 6.557 25.642C 6.479 25.995 6.429 26.387 6.408 26.806C 6.423 27.491 6.524 28.17 6.712 28.887C 6.882 29.548 7.12 30.147 7.408 30.643C 7.712 31.111 8.029 31.348 8.352 31.348C 8.467 31.348 8.548 31.319 8.611 31.261C 8.681 31.19 8.73 31.053 8.761 30.807C 8.791 30.673 8.808 30.503 8.808 30.313C 8.808 29.87 8.72 29.395 8.547 28.899ZM 9.705 10.26L 8.659 15.409C 8.919 15.354 9.161 15.263 9.385 15.133C 9.782 14.909 10.088 14.604 10.33 14.194C 10.572 13.805 10.722 13.356 10.786 12.892C 10.786 11.646 10.432 10.777 9.705 10.26ZM 12.827 15.438C 12.605 16.084 12.285 16.664 11.88 17.16C 11.469 17.673 10.954 18.088 10.351 18.393C 9.741 18.702 9.092 18.852 8.369 18.852C 8.284 18.852 8.161 18.843 8.003 18.826L 7.47 21.419C 8.083 22.022 8.626 22.719 9.086 23.496C 9.585 24.343 9.971 25.267 10.231 26.237C 10.499 27.215 10.63 28.179 10.63 29.182C 10.63 31.288 10.088 33.122 9.003 34.657C 8.845 34.854 8.715 35.001 8.617 35.089C 8.222 35.444 7.828 35.5 6.912 34.822C 6.443 34.47 6.03 33.962 5.689 33.316C 5.337 32.672 5.08 31.95 4.903 31.116C 4.717 30.29 4.619 29.394 4.611 28.432C 4.652 27.08 4.845 25.731 5.187 24.419C 4.417 23.64 3.795 22.989 3.306 22.468C 2.786 21.899 2.268 21.246 1.767 20.525C 1.272 19.815 0.857 19.032 0.534 18.202C 0.216 17.395 0.036 16.509 1.90735e-09 15.547C 0.008 14.565 0.196 13.603 0.561 12.683C 0.926 11.78 1.445 10.956 2.107 10.233C 2.772 9.515 3.555 8.945 4.432 8.538C 5.662 7.969 7.076 7.789 8.452 8.028C 8.515 7.74 8.598 7.4 8.696 7.006C 8.853 6.358 8.97 5.834 9.045 5.446C 9.119 5.056 9.155 4.681 9.155 4.324C 9.155 3.783 9.096 3.369 8.957 3.024C 8.908 2.821 8.773 2.611 8.556 2.403C 8.323 2.177 8.048 2.002 7.717 1.87C 7.249 1.687 6.795 1.639 6.428 1.69C 6.623 1.795 6.803 1.931 6.965 2.095C 7.398 2.538 7.618 3.083 7.618 3.717C 7.618 4.164 7.508 4.592 7.29 4.999C 7.075 5.374 6.782 5.683 6.404 5.928C 6.026 6.152 5.625 6.269 5.178 6.269L 5.172 6.269C 4.661 6.234 4.218 6.073 3.871 5.798C 3.511 5.532 3.225 5.179 3.019 4.747C 2.826 4.341 2.712 3.9 2.681 3.385C 2.721 2.345 3.159 1.5 3.987 0.877001C 4.773 0.296001 5.696 -7.62939e-08 6.727 -7.62939e-08C 7.47 -7.62939e-08 8.161 0.163999 8.78 0.486999C 9.413 0.813999 9.928 1.283 10.309 1.89C 10.679 2.491 10.868 3.181 10.868 3.936C 10.868 4.431 10.825 4.896 10.739 5.355C 10.654 5.813 10.528 6.435 10.355 7.224C 10.231 7.759 10.136 8.211 10.067 8.573C 11.032 9.001 11.779 9.622 12.292 10.423C 12.869 11.321 13.16 12.331 13.16 13.423C 13.16 14.088 13.048 14.765 12.827 15.438"/>
<path id="path19_fill" d="M 2.674 0L -2.47955e-08 2.673L 20.389 23.063C 23.733 26.406 21.726 31.085 22.396 31.753C 23.062 32.423 23.731 31.755 23.731 31.755L 31.754 23.731C 32.422 23.063 31.754 22.395 31.754 22.395C 31.085 21.726 25.976 23.304 23.062 20.39L 2.674 0Z"/>
<path id="path20_fill" d="M 4.83475 1.48675C 5.75975 2.41175 5.75975 3.91075 4.83475 4.83675C 3.91075 5.75975 2.41075 5.75975 1.48575 4.83675L 1.57275 4.74975C 1.20275 5.08375 0.63475 5.08075 0.27675 4.72175C -0.0922501 4.35375 -0.0922501 3.75475 0.27675 3.38575L 3.38575 0.27675C 3.75475 -0.09225 4.35375 -0.09225 4.72275 0.27675C 5.07775 0.63275 5.08275 1.19575 4.75475 1.56675L 4.83475 1.48675Z"/>
<path id="path21_fill" d="M 16.368 18.259C 15.862 18.259 15.388 18.062 15.03 17.705L 4.335 7.009C 3.978 6.652 3.781 6.177 3.781 5.672C 3.781 5.166 3.978 4.693 4.334 4.336C 4.692 3.979 5.166 3.781 5.671 3.781C 6.177 3.781 6.652 3.979 7.009 4.336L 17.705 15.031C 18.442 15.768 18.441 16.968 17.704 17.706C 17.347 18.062 16.873 18.259 16.368 18.259ZM 5.671 -7.78198e-07C 4.156 -7.78198e-07 2.732 0.59 1.66 1.661C 0.59 2.732 -3.05176e-08 4.156 -3.05176e-08 5.672C -3.05176e-08 7.187 0.59 8.611 1.661 9.683L 12.356 20.379C 13.428 21.45 14.852 22.04 16.368 22.04C 17.883 22.04 19.307 21.45 20.379 20.379C 22.59 18.167 22.59 14.569 20.379 12.358L 9.683 1.662C 8.612 0.591 7.187 -7.78198e-07 5.671 -7.78198e-07Z"/>
<path id="path22_fill" d="M 8.57625 0.5535C 9.31225 -0.1845 10.5122 -0.1845 11.2502 0.5535C 11.9882 1.2925 11.9882 2.4905 11.2502 3.2275L 3.22725 11.2505C 2.48825 11.9895 1.29225 11.9895 0.55425 11.2505C -0.18475 10.5115 -0.18475 9.3145 0.55425 8.5755L 8.57625 0.5535Z"/>
<path id="path23_fill" d="M 8.57537 0.5535C 9.31337 -0.1845 10.5124 -0.1845 11.2494 0.5535C 11.9874 1.2925 11.9874 2.4895 11.2514 3.2275L 3.22837 11.2495C 2.48937 11.9885 1.29237 11.9885 0.553375 11.2495C -0.184625 10.5125 -0.184625 9.3145 0.554375 8.5755L 8.57537 0.5535Z"/>
<path id="path24_fill" d="M 8.5765 0.5535C 9.3145 -0.1845 10.5105 -0.1845 11.2495 0.5535C 11.9885 1.2915 11.9885 2.4905 11.2495 3.2275L 3.2285 11.2485C 2.4895 11.9875 1.2925 11.9875 0.5535 11.2485C -0.1845 10.5115 -0.1845 9.3145 0.5535 8.5745L 8.5765 0.5535Z"/>
<path id="path25_fill" d="M 0.27675 0.27675C 0.64575 -0.09225 1.24475 -0.09225 1.61375 0.27675L 2.95075 1.61275C 3.31975 1.98175 3.31975 2.58075 2.95075 2.95075C 2.58175 3.31975 1.98275 3.31975 1.61375 2.95075L 0.27675 1.61275C -0.09225 1.24375 -0.09225 0.64575 0.27675 0.27675Z"/>
<path id="path26_fill" d="M 0.2775 0.277875C 0.6475 -0.0931249 1.2445 -0.0921249 1.6145 0.277875L 2.9505 1.61488C 3.3215 1.98488 3.3215 2.58188 2.9515 2.95188C 2.5825 3.32188 1.9845 3.32188 1.6145 2.95188L 0.2775 1.61488C -0.0925 1.24488 -0.0925 0.646875 0.2775 0.277875Z"/>
<path id="path27_fill" d="M 0.27675 0.2775C 0.64675 -0.0925 1.24375 -0.0925 1.61375 0.2775L 2.95075 1.6155C 3.31975 1.9845 3.32075 2.5825 2.95075 2.9525C 2.58175 3.3215 1.98375 3.3215 1.61375 2.9525L 0.27675 1.6145C -0.09225 1.2455 -0.09225 0.6465 0.27675 0.2775Z"/>
<path id="path28_fill" d="M 34.193 20.671C 34.58 21.042 34.926 21.466 35.213 21.951C 36.898 24.804 35.482 32.243 34.621 32.751C 33.925 33.162 29.091 31.701 26.375 29.619C 23.876 31.116 21.031 32 18 32C 14.978 32 12.144 31.121 9.651 29.633C 6.93 31.708 2.118 33.161 1.424 32.751C 0.562999 32.243 -0.852 24.804 0.832 21.951C 1.11 21.48 1.447 21.067 1.821 20.702C 0.664998 18.151 -7.93457e-07 15.36 -7.93457e-07 12.522C -7.93457e-07 2.532 8.01 4.73022e-07 18 4.73022e-07C 27.989 4.73022e-07 36 2.532 36 12.522C 36 15.349 35.339 18.127 34.193 20.671Z"/>
<path id="path29_fill" d="M 5.51303 6.419C 3.34703 7.687 1.11103 8.499 0.713031 8.264C 0.143031 7.928 -0.369969 3.266 0.362031 -1.48773e-07C 1.63403 2.481 3.40103 4.681 5.51303 6.419Z"/>
<path id="path30_fill" d="M 5.151 0C 5.883 3.267 5.37 7.928 4.8 8.265C 4.402 8.499 2.166 7.687 -2.28882e-08 6.419C 2.113 4.682 3.88 2.482 5.151 0Z"/>
<path id="path31_fill" d="M 20 9.375C 20 4.888 16.903 0 10 0C 3.096 0 0 4.888 0 9.375C 0 13.862 3.096 15 10 15C 16.903 15 20 13.862 20 9.375Z"/>
<path id="path32_fill" d="M 3 2.4C 3 0.543 2.66 -9.53674e-08 1.5 -9.53674e-08C 0.34 -9.53674e-08 0 0.543 0 2.4C 0 4.256 0.34 4.799 1.5 4.799C 2.66 4.799 3 4.256 3 2.4Z"/>
<path id="path33_fill" d="M 4 2C 4 0.896 3.104 0 2 0C 0.896 0 0 0.896 0 2C 0 3.105 0.896 4 2 4C 3.104 4 4 3.105 4 2Z"/>
<path id="path34_fill" d="M 4 2C 4 0.896 3.105 0 2 0C 0.896 0 0 0.896 0 2C 0 3.105 0.896 4 2 4C 3.105 4 4 3.105 4 2Z"/>
<path id="path35_fill" d="M 16.0099 32C 22.0099 32 32.0099 29 32.0099 16C 32.0099 3 32.0099 0 29.0099 0C 26.0099 0 22.0099 3 16.0099 3C 10.0099 3 6.09494 0 3.00994 0C -0.333056 0 0.0099437 12 0.0099437 16C 0.0099437 29 10.0099 32 16.0099 32Z"/>
<path id="path36_fill" d="M 0 15.438C 0 23.964 5.373 30.876 12 30.876C 18.627 30.876 24 23.964 24 15.438C 24 6.913 18.627 2.74658e-07 12 2.74658e-07C 5.373 2.74658e-07 0 6.913 0 15.438Z"/>
<path id="path37_fill" d="M 4.00025 0C 1.65325 0 0.42525 1.16 0.29325 1.293C -0.09775 1.684 -0.09775 2.316 0.29325 2.707C 0.68025 3.094 1.30625 3.097 1.69725 2.717C 1.74925 2.67 2.50325 2 4.00025 2C 5.51925 2 6.27325 2.689 6.30525 2.719C 6.70325 3.092 7.33225 3.081 7.71325 2.689C 8.09225 2.297 8.09325 1.679 7.70725 1.293C 7.57525 1.16 6.34725 0 4.00025 0Z"/>
<path id="path38_fill" d="M 3 0L 1 0C 0.448 0 0 0.447 0 1C 0 1.553 0.448 2 1 2L 3 2C 3.553 2 4 1.553 4 1C 4 0.447 3.553 0 3 0Z"/>
<path id="path39_fill" d="M 1.07395 0C 1.04395 0.325 1.00995 0.648 1.00995 1C 1.00995 6.001 4.00995 0.437 4.00995 4C 4.00995 7.564 6.00995 8.001 8.00995 10.001L 11.01 13.001C 11.01 13.001 16.01 10.001 20.01 10.001C 24.01 10.001 28.01 8 28.01 4C 28.01 0 31.01 6.001 31.01 1C 31.01 0.645 30.976 0.327 30.952 8.88178e-16L 32.001 8.88178e-16C 32.01 1.477 32.01 3.132 32.01 5C 32.01 18 22.01 23 16.01 23C 10.01 23 0.00995367 18 0.00995367 5C 0.00995367 3.842 -0.0190464 2.014 0.0219536 0L 1.07395 0Z"/>
<path id="path40_fill" d="M 1 0C 0.448 0 0 0.447 0 1L 0 3C 0 3.552 0.448 4 1 4C 1.552 4 2 3.552 2 3L 2 1C 2 0.447 1.552 0 1 0Z"/>
<path id="path41_fill" d="M 1 0C 0.447 0 0 0.447 0 1L 0 3C 0 3.552 0.447 4 1 4C 1.553 4 2 3.552 2 3L 2 1C 2 0.447 1.553 0 1 0Z"/>
<path id="path42_fill" d="M 17 1.523C 17 0.682 16.318 -1.90735e-09 15.478 -1.90735e-09L 2 -1.90735e-09C 1 -1.90735e-09 0 0.682 0 1.856L 0 24.811C 0 25.319 0.682 26 1.522 26L 15.478 26C 16.318 26 17 25.319 17 24.478L 17 1.523Z"/>
<path id="path43_fill" d="M 17.512 6.091C 16.491 6.091 15.637 5.418 15.344 4.494C 15.186 4.538 15.02 4.569 14.847 4.569C 14.401 4.569 13.994 4.408 13.67 4.151C 13.497 5.669 12.224 6.853 10.659 6.853C 9.157 6.853 7.914 5.761 7.666 4.329C 7.43 4.479 7.153 4.569 6.852 4.569C 6.473 4.569 6.13 4.424 5.863 4.195C 5.409 5.306 4.321 6.091 3.046 6.091C 1.364 6.091 8.69751e-07 9.898 8.69751e-07 3.046C 8.69751e-07 1.364 1.364 -8.01086e-08 3.046 -8.01086e-08C 4.321 -8.01086e-08 5.409 0.785 5.863 1.897C 6.13 1.667 6.473 1.523 6.852 1.523C 7.367 1.523 7.822 1.78 8.097 2.173C 8.638 1.326 9.58 0.761 10.659 0.761C 11.65 0.761 12.522 1.242 13.077 1.974C 13.355 1.266 14.04 0.761 14.847 0.761C 15.57 0.761 16.19 1.169 16.513 1.762C 16.816 1.613 17.152 1.523 17.512 1.523C 18.774 1.523 19.796 2.546 19.796 3.807C 19.796 7.614 18.774 6.091 17.512 6.091Z"/>
<path id="path44_fill" d="M 1 0C 0.448 0 0 0.447 0 1L 0 12C 0 12.552 0.448 13 1 13C 1.552 13 2 12.552 2 12L 2 1C 2 0.447 1.552 0 1 0Z"/>
<path id="path45_fill" d="M 20 6.136C 20 8.136 19 9.136 17 9.136L 3 9.136C 1 9.136 0 8.136 0 6.136L 0 4.568C 0 4.495 0.0119999 4.425 0.0209999 4.355C 0.00799991 3.968 0 3.537 0 3.045C 0 1.363 1.364 -1.56403e-07 3.045 -1.56403e-07C 4.32 -1.56403e-07 5.409 0.785 5.863 1.896C 6.129 1.666 6.473 1.522 6.852 1.522C 7.367 1.522 7.821 1.78 8.097 2.172C 8.638 1.326 9.58 0.761 10.659 0.761C 11.649 0.761 12.521 1.241 13.077 1.974C 13.355 1.265 14.04 0.761 14.847 0.761C 15.569 0.761 16.189 1.168 16.513 1.761C 16.815 1.613 17.151 1.522 17.512 1.522C 18.773 1.522 20 2.875 20 4.136C 20 4.371 20.01 3.94 20 4.136C 20.004 4.175 20 4.528 20 4.568L 20 6.136Z"/>
<path id="path46_fill" d="M 3 15L 3 3L 7.557 3C 7.557 3 9 3.204 9 4.727L 9 13C 9 14 9 15 7 15L 3 15ZM 12 3.045C 12 1.363 10.637 0 8.954 0L 3.046 0C 1.363 0 0 1.363 0 3.045L 0 14.955C 0 16.637 1.363 18 3.046 18L 8.954 18C 10.637 18 12 16.637 12 14.955L 12 3.045Z"/>
<path id="path47_fill" d="M 17 2C 17 1 16 0 15 0L 2 0C 1 0 0 1 0 2L 0 24.478C 0 25.318 0.682 26 1.523 26L 15.478 26C 16.318 26 17 25.318 17 24.478L 17 2Z"/>
<path id="path48_fill" d="M 17.512 6.091C 16.491 6.091 15.637 5.418 15.344 4.494C 15.186 4.538 15.02 4.569 14.847 4.569C 14.401 4.569 13.994 4.408 13.67 4.151C 13.497 5.669 12.224 6.853 10.659 6.853C 9.157 6.853 7.914 5.761 7.666 4.329C 7.43 4.479 7.153 4.569 6.852 4.569C 6.473 4.569 6.13 4.424 5.863 4.195C 5.409 5.306 4.321 6.091 3.046 6.091C 1.364 6.091 8.69751e-07 9.898 8.69751e-07 3.046C 8.69751e-07 1.364 1.364 -8.01086e-08 3.046 -8.01086e-08C 4.321 -8.01086e-08 5.409 0.785 5.863 1.897C 6.13 1.667 6.473 1.523 6.852 1.523C 7.367 1.523 7.822 1.78 8.097 2.173C 8.638 1.326 9.58 0.762 10.659 0.762C 11.65 0.762 12.522 1.242 13.077 1.974C 13.355 1.266 14.04 0.762 14.847 0.762C 15.57 0.762 16.19 1.169 16.513 1.762C 16.816 1.614 17.152 1.523 17.512 1.523C 18.774 1.523 19.796 2.546 19.796 3.807C 19.796 7.614 18.774 6.091 17.512 6.091Z"/>
<path id="path49_fill" d="M 20 6.136C 20 8.136 19 9.136 17 9.136L 3 9.136C 1 9.136 0 8.136 0 6.136L 0 4.568C 0 4.495 0.0119999 4.425 0.0209999 4.355C 0.00799991 3.968 0 3.537 0 3.045C 0 1.363 1.364 -1.56403e-07 3.045 -1.56403e-07C 4.32 -1.56403e-07 5.409 0.785 5.863 1.896C 6.129 1.666 6.473 1.522 6.852 1.522C 7.367 1.522 7.821 1.78 8.097 2.172C 8.638 1.326 9.58 0.761 10.659 0.761C 11.649 0.761 12.521 1.241 13.077 1.974C 13.355 1.265 14.04 0.761 14.847 0.761C 15.569 0.761 16.189 1.168 16.513 1.762C 16.815 1.613 17.151 1.522 17.512 1.522C 18.773 1.522 20 2.875 20 4.136C 20 4.371 20.01 3.94 20 4.136C 20.004 4.175 20 4.528 20 4.568L 20 6.136Z"/>
<path id="path50_fill" d="M 1 0C 0.448 0 0 0.447 0 1L 0 12C 0 12.553 0.448 13 1 13C 1.552 13 2 12.553 2 12L 2 1C 2 0.447 1.552 0 1 0Z"/>
<path id="path51_fill" d="M 1 0C 0.447 0 0 0.447 0 1L 0 12C 0 12.553 0.447 13 1 13C 1.553 13 2 12.553 2 12L 2 1C 2 0.447 1.553 0 1 0Z"/>
<path id="path52_fill" d="M 1 0C 0.447 0 0 0.448 0 1L 0 4C 0 4.552 0.447 5 1 5C 1.553 5 2 4.552 2 4L 2 1C 2 0.448 1.553 0 1 0Z"/>
<path id="path53_fill" d="M 1.00025 0C 0.74425 0 0.48825 0.098 0.29325 0.293C -0.09775 0.684 -0.09775 1.316 0.29325 1.707L 4.29325 5.707C 4.68425 6.098 5.31625 6.098 5.70725 5.707C 6.09825 5.316 6.09825 4.684 5.70725 4.293L 1.70725 0.293C 1.51225 0.098 1.25625 0 1.00025 0Z"/>
<path id="path54_fill" d="M 24.5164 17.3357C 22.1244 16.5387 21.3274 20.5247 21.3274 20.5247C 21.3274 20.5247 22.4154 21.6167 21.5914 22.5867C 22.8744 23.8697 22.1244 24.5117 22.1244 24.5117C 19.9214 26.7137 16.3524 26.7137 14.1504 24.5117C 13.8724 24.2337 13.6844 23.9847 13.5264 23.7477C 13.4584 23.6497 13.3964 23.5517 13.3354 23.4517C 13.3294 23.4407 13.3254 23.4307 13.3194 23.4207C 12.9974 22.8857 12.7654 22.3137 12.6374 21.7197C 12.4614 21.3607 12.2104 20.9767 11.7584 20.5247C 10.1634 18.9307 6.17739 21.3217 2.98739 18.1327C 2.95439 18.1007 2.93639 18.0547 2.91039 18.0167C 2.80339 17.9217 2.69239 17.8387 2.58939 17.7347C -1.15361 13.9917 -0.796611 7.56575 3.38739 3.38175C 7.36139 -0.592252 13.3554 -1.10525 17.1544 2.06275C 17.2204 2.09775 17.2864 2.13175 17.3394 2.18575C 17.4204 2.26675 17.4814 2.34375 17.5574 2.42275C 17.6174 2.47875 17.6804 2.52775 17.7384 2.58475C 19.6474 4.49475 20.3794 6.79075 20.0904 9.13675C 20.0144 10.2527 19.9044 11.1277 20.5304 11.7547C 21.3274 12.5507 23.7184 11.7547 25.3134 13.3487C 27.7044 15.7407 26.0294 17.8387 24.5164 17.3357Z"/>
<path id="path55_fill" d="M 14.263 12.142L 2.122 -1.98364e-07L 4.65393e-07 2.122L 12.142 14.264L 14.263 12.142Z"/>
<path id="path56_fill" d="M 7.49762 5.1065C 7.93462 4.6685 7.93462 3.9515 7.49662 3.5135L 4.30963 0.3285C 3.87163 -0.1095 3.15462 -0.1095 2.71762 0.3285L 0.327625 2.7175C -0.109375 3.1555 -0.109375 3.8725 0.328625 4.3105L 3.51562 7.4955C 3.95362 7.9335 4.67063 7.9335 5.10763 7.4955L 7.49762 5.1065Z"/>
<path id="path57_fill" d="M 4.95 1.415L 3.536 3.8147e-08L 1.90735e-07 3.536L 1.414 4.95L 4.95 1.415Z"/>
<path id="path58_fill" d="M 4.95 1.414L 3.536 -3.43323e-08L 1.90735e-07 3.535L 1.414 4.95L 4.95 1.414Z"/>
<path id="path59_fill" d="M 3.827 1.70575C 4.216 1.31675 4.216 0.68075 3.827 0.29175C 3.438 -0.09725 2.802 -0.09725 2.413 0.29175L 0.291 2.41275C -0.097 2.80175 -0.097 3.43775 0.291 3.82675L 0.292 3.82675C 0.681 4.21575 1.317 4.21575 1.706 3.82675L 3.827 1.70575Z"/>
<path id="path60_fill" fill-rule="evenodd" d="M 13 20L 8 10C 8 10 7 8 9 8C 10 8 11 10 11 10L 25 29C 25 29 27 33 33 30L 33 28C 30 29 29 27 29 27L 14 3C 14 3 12 0 7 0C 1 0 0 5 0 8C 0 10 1 12 2 14C 3 16 0 20 0 20L 13 20Z"/>
<path id="path61_fill" d="M 7.5 0C 4.04 0 0 1.048 0 4C 0 6.953 4.04 8 7.5 8C 10.96 8 15 6.953 15 4C 15 1.048 10.96 0 7.5 0Z"/>
<path id="path62_fill" d="M 3.99869 0C 3.69869 0 3.39369 0.068 3.10569 0.211L 1.10569 1.211C 0.117688 1.706 -0.282312 2.907 0.211688 3.895C 0.704688 4.881 1.90469 5.285 2.89469 4.79L 4.89469 3.79C 5.88369 3.295 6.28369 2.094 5.78969 1.106C 5.43969 0.405 4.73269 0 3.99869 0Z"/>
<path id="path63_fill" fill-rule="evenodd" d="M 7.458 1.548L 6.19 2.19345e-08L -1.83105e-07 5.068L 1.266 6.615L 7.458 1.548Z"/>
<path id="path64_fill" d="M 34.209 34.794L 11.791 32.207C 10.806 32.093 10 31.189 10 30.198L 10 30L 10 25.803L 10 11.415C 9.09 11.787 8.075 12 7 12C 3.135 12 3.66211e-07 9.315 3.66211e-07 6C 3.66211e-07 2.686 3.135 1.28174e-06 7 1.28174e-06C 10.865 1.28174e-06 14 2.686 14 6L 14 24.462L 32 26.539L 32 13.415C 31.09 13.787 30.075 14 29 14C 25.135 14 22 11.315 22 8C 22 4.686 25.135 2 29 2C 32.865 2 36 4.686 36 8L 36 28.803L 36 33.198C 36 34.189 35.194 34.908 34.209 34.794Z"/>
<path id="path65_fill" d="M 30 4C 30 1.791 28.209 0 26 0L 4 0C 1.791 0 0 1.791 0 4L 0 32C 0 34.209 1.791 36 4 36L 26 36C 28.209 36 30 34.209 30 32L 30 4Z"/>
<path id="path66_fill" d="M 2 1C 2 0.447 1.552 0 1 0C 0.448 0 0 0.447 0 1L 0 27C 0 27.552 0.448 28 1 28C 1.552 28 2 27.552 2 27L 2 1Z"/>
<path id="path67_fill" d="M 6 1C 6 0.448 5.552 0 5 0L 1 0C 0.448 0 0 0.448 0 1C 0 1.552 0.448 2 1 2L 5 2C 5.552 2 6 1.552 6 1Z"/>
<path id="path68_fill" d="M 6 1C 6 0.447 5.552 0 5 0L 1 0C 0.448 0 0 0.447 0 1C 0 1.552 0.448 2 1 2L 5 2C 5.552 2 6 1.552 6 1Z"/>
<path id="path69_fill" d="M 6 1C 6 0.447 5.552 0 5 0L 1 0C 0.448 0 0 0.447 0 1C 0 1.553 0.448 2 1 2L 5 2C 5.552 2 6 1.553 6 1Z"/>
<path id="path70_fill" d="M 6 1C 6 0.448 5.553 0 5 0L 1 0C 0.447 0 0 0.448 0 1C 0 1.552 0.447 2 1 2L 5 2C 5.553 2 6 1.552 6 1Z"/>
<path id="path71_fill" d="M 6 1C 6 0.447 5.553 0 5 0L 1 0C 0.447 0 0 0.447 0 1C 0 1.552 0.447 2 1 2L 5 2C 5.553 2 6 1.552 6 1Z"/>
<path id="path72_fill" d="M 6 1C 6 0.447 5.553 0 5 0L 1 0C 0.447 0 0 0.447 0 1C 0 1.553 0.447 2 1 2L 5 2C 5.553 2 6 1.553 6 1Z"/>
<path id="path73_fill" d="M 4 0.894C 4 0.401 3.6 6.19888e-09 3.107 6.19888e-09L 0.893 6.19888e-09C 0.4 6.19888e-09 0 0.401 0 0.894L 0 1.107C 0 1.6 0.4 2 0.893 2L 3.107 2C 3.6 2 4 1.6 4 1.107L 4 0.894Z"/>
<path id="path74_fill" d="M 14 2C 14 0.896 13.105 0 12 0L 2 0C 0.896 0 0 0.896 0 2L 0 4C 0 5.104 0.896 6 2 6L 12 6C 13.105 6 14 5.104 14 4L 14 2Z"/>
<path id="path75_fill" d="M 26.2862 6.00006e-06C 25.8822 6.00006e-06 25.4802 0.124006 25.1342 0.371006L 17.0002 6.20501L 8.86524 0.371006C 8.17224 -0.124994 7.24224 -0.124994 6.55324 0.379006C 5.86424 0.878006 5.57424 1.76401 5.83224 2.57301L 8.86624 12.365L 0.804242 18.045C 0.119242 18.551 -0.165758 19.438 0.0962417 20.249C 0.360242 21.056 1.11224 21.606 1.96224 21.612L 11.9462 21.627L 15.1252 31.176C 15.3932 31.985 16.1482 32.529 17.0002 32.529C 17.8512 32.529 18.6062 31.985 18.8752 31.176L 21.9992 21.627L 32.0362 21.612C 32.8882 21.606 33.6412 21.056 33.9032 20.249C 34.1662 19.438 33.8812 18.551 33.1952 18.045L 25.1332 12.365L 28.1672 2.57301C 28.4272 1.76401 28.1342 0.878006 27.4472 0.379006C 27.1002 0.125006 26.6932 6.00006e-06 26.2862 6.00006e-06Z"/>
</defs>
</svg>
