<svg width="499" height="495" viewBox="0 0 499 495" version="1.1" xmlns="http://www.w3.org/2000/svg" xmlns:xlink="http://www.w3.org/1999/xlink">
<title>Group</title>
<desc>Created using Figma</desc>
<g id="Canvas" transform="translate(-11 -112)">
<g id="Group">
<g id="Rectangle 1">
<use xlink:href="#path0_fill" transform="translate(313 366)" fill="#FFBCBC"/>
</g>
<g id="Polygon">
<use xlink:href="#path1_fill" transform="matrix(1 -2.77556e-17 2.77556e-17 1 127.696 112.588)"/>
</g>
<g id="Vector">
<use xlink:href="#path2_stroke" transform="translate(137 126)"/>
</g>
<g id="type in any song you can think of">
<use xlink:href="#path3_fill" transform="translate(134 230)"/>
</g>
<g id="click on the song you want to share">
<use xlink:href="#path4_fill" transform="translate(11 378)"/>
</g>
<g id="Step 1">
<use xlink:href="#path5_fill" transform="translate(194 192)"/>
</g>
<g id="Step 2">
<use xlink:href="#path6_fill" transform="translate(11 342)"/>
</g>
<g id="send that link to your friends">
<use xlink:href="#path7_fill" transform="translate(258 546)"/>
</g>
<g id="Step 3">
<use xlink:href="#path8_fill" transform="translate(378 509)"/>
</g>
<g id="Vector 2" filter="url(#filter0_d)">
<use xlink:href="#path9_fill" transform="translate(406 378)"/>
</g>
<g id="Ratatat - Cherry">
<use xlink:href="#path10_fill" transform="translate(313 367)"/>
<use xlink:href="#path11_fill" transform="translate(313 367)"/>
</g>
<g id="Rectangle 5">
<use xlink:href="#path12_fill" transform="translate(50 522)" fill="#579BF7"/>
</g>
<g id="jig.sh/ar?e=7057834">
<use xlink:href="#path13_fill" transform="translate(46 528)" fill="#FFFFFF"/>
</g>
<g id="Polygon 2">
<use xlink:href="#path14_fill" transform="matrix(-0.866716 -0.498802 0.498802 -0.866716 63.4102 566.852)" fill="#579BF7"/>
</g>
<g id="Rectangle 5">
<use xlink:href="#path15_fill" transform="matrix(-1 0 0 1 219 563)" fill="#BDBDBD"/>
</g>
<g id="That&#226;&#128;&#153;s dope.">
<use xlink:href="#path16_fill" transform="translate(132 569)" fill="#FFFFFF"/>
</g>
<g id="Polygon 2">
<use xlink:href="#path17_fill" transform="matrix(0.862036 -0.506847 -0.4908 -0.871272 205.921 608)" fill="#BDBDBD"/>
</g>
</g>
</g>
<defs>
<filter id="filter0_d" filterUnits="userSpaceOnUse" x="406" y="378" width="23" height="40" color-interpolation-filters="sRGB">
<feFlood flood-opacity="0" result="BackgroundImageFix"/>
<feColorMatrix in="SourceAlpha" type="matrix" values="0 0 0 0 0 0 0 0 0 0 0 0 0 0 0 0 0 0 255 0"/>
<feOffset dx="2" dy="2"/>
<feColorMatrix type="matrix" values="0 0 0 0 0 0 0 0 0 0 0 0 0 0 0 0 0 0 0.25 0"/>
<feBlend mode="normal" in2="BackgroundImageFix" result="effect1_dropShadow"/>
<feBlend mode="normal" in="SourceGraphic" in2="effect1_dropShadow" result="shape"/>
</filter>
<path id="path0_fill" d="M 0 0L 172 0L 172 26L 0 26L 0 0Z"/>
<path id="path1_fill" d="M 9 0L 16.7942 14.25L 1.20577 14.25L 9 0Z"/>
<path id="path2_stroke" d="M 9.50002 54.5L 10.3526 53.9774L 9.50002 54.5ZM 58 84C 48.8595 84.006 40.4863 82.1445 32.5616 77.4385C 24.6026 72.7361 17.2741 65.2827 10.3526 53.9774L 8.64741 55.0226C 15.6984 66.5145 23.3699 74.3111 31.5427 79.1595C 39.75 84.0041 48.6405 85.994 58 86L 58 84ZM 10.3526 53.9774C 0.953253 38.6416 1.00002 17.5662 1.00002 -1.27806e-07L -0.999982 1.27806e-07C -0.99998 17.4049 -1.10436 39.1117 8.64741 55.0226L 10.3526 53.9774Z"/>
<path id="path3_fill" d="M 19.3852 21.208C 19.0012 21.528 18.5292 21.784 17.9692 21.976C 17.4252 22.152 16.8332 22.24 16.1932 22.24C 15.0892 22.24 14.2012 21.968 13.5292 21.424C 12.8732 20.864 12.5372 20 12.5212 18.832L 12.5212 12.016L 10.2412 12.016L 10.2412 10L 12.5212 10L 12.5212 7.192L 15.0892 6.472L 15.0892 10L 19.2892 10L 19.2892 12.016L 15.0892 12.016L 15.0892 18.4C 15.0892 18.976 15.2412 19.408 15.5452 19.696C 15.8652 19.968 16.2972 20.104 16.8412 20.104C 17.5772 20.104 18.2252 19.848 18.7852 19.336L 19.3852 21.208ZM 27.3251 23.416C 26.7971 24.792 26.1971 25.76 25.5251 26.32C 24.8531 26.88 23.9731 27.16 22.8851 27.16C 22.2611 27.16 21.7171 27.08 21.2531 26.92C 20.8051 26.776 20.4051 26.536 20.0531 26.2L 20.7971 24.232C 21.2771 24.808 21.9331 25.096 22.7651 25.096C 23.2451 25.096 23.6451 24.968 23.9651 24.712C 24.3011 24.472 24.5971 24.024 24.8531 23.368L 25.3811 22.072L 24.1331 19.096L 20.3891 10L 23.2691 10L 25.9091 17.536L 26.6051 19.792L 27.4211 17.32L 29.9171 10L 32.5811 10L 27.3251 23.416ZM 41.3386 9.76C 42.9866 9.76 44.2826 10.312 45.2266 11.416C 46.1706 12.504 46.6426 14.024 46.6426 15.976C 46.6426 17.928 46.1706 19.464 45.2266 20.584C 44.2826 21.688 42.9866 22.24 41.3386 22.24C 40.4746 22.24 39.6986 22.048 39.0106 21.664C 38.3386 21.28 37.8186 20.752 37.4506 20.08L 37.4506 27.04L 34.8826 27.04L 34.8826 10L 37.1386 10L 37.2586 12.232C 37.6106 11.48 38.1386 10.88 38.8426 10.432C 39.5626 9.984 40.3946 9.76 41.3386 9.76ZM 40.7626 20.152C 41.8026 20.152 42.6106 19.792 43.1866 19.072C 43.7786 18.336 44.0746 17.312 44.0746 16C 44.0746 14.688 43.7786 13.664 43.1866 12.928C 42.6106 12.192 41.8026 11.824 40.7626 11.824C 39.7866 11.824 39.0026 12.152 38.4106 12.808C 37.8346 13.464 37.5146 14.376 37.4506 15.544L 37.4506 16.456C 37.5146 17.608 37.8346 18.512 38.4106 19.168C 39.0026 19.824 39.7866 20.152 40.7626 20.152ZM 60.7044 15.64C 60.7044 16.104 60.6724 16.544 60.6084 16.96L 51.8244 16.96C 51.9684 18.016 52.3444 18.824 52.9524 19.384C 53.5604 19.928 54.3444 20.2 55.3044 20.2C 56.0884 20.2 56.7364 20.064 57.2484 19.792C 57.7764 19.504 58.1364 19.096 58.3284 18.568L 60.4644 19.456C 59.5684 21.312 57.8484 22.24 55.3044 22.24C 53.4164 22.24 51.9364 21.688 50.8644 20.584C 49.8084 19.48 49.2804 17.952 49.2804 16C 49.2804 14.032 49.7924 12.504 50.8164 11.416C 51.8404 10.312 53.2804 9.76 55.1364 9.76C 56.8964 9.76 58.2644 10.296 59.2404 11.368C 60.2164 12.44 60.7044 13.864 60.7044 15.64ZM 55.1364 11.8C 54.2084 11.8 53.4564 12.072 52.8804 12.616C 52.3204 13.16 51.9684 13.952 51.8244 14.992L 58.3044 14.992C 58.1764 13.984 57.8324 13.2 57.2724 12.64C 56.7284 12.08 56.0164 11.8 55.1364 11.8ZM 72.1891 7.672C 71.8851 7.672 71.6371 7.584 71.4451 7.408C 71.2691 7.216 71.1811 6.968 71.1811 6.664C 71.1811 6.36 71.2691 6.12 71.4451 5.944C 71.6371 5.752 71.8851 5.656 72.1891 5.656C 72.4931 5.656 72.7331 5.752 72.9091 5.944C 73.1011 6.12 73.1971 6.36 73.1971 6.664C 73.1971 6.968 73.1011 7.216 72.9091 7.408C 72.7331 7.584 72.4931 7.672 72.1891 7.672ZM 72.7891 22L 71.5891 22L 71.5891 10L 72.7891 10L 72.7891 22ZM 82.6895 9.76C 84.0655 9.76 85.1695 10.144 86.0015 10.912C 86.8495 11.68 87.2735 12.784 87.2735 14.224L 87.2735 22L 86.0735 22L 86.0735 14.608C 86.0735 13.328 85.7615 12.376 85.1375 11.752C 84.5135 11.128 83.6575 10.816 82.5695 10.816C 81.8015 10.816 81.0895 10.992 80.4335 11.344C 79.7775 11.696 79.2495 12.208 78.8495 12.88C 78.4655 13.552 78.2735 14.336 78.2735 15.232L 78.2735 22L 77.0735 22L 77.0735 10L 78.1535 10L 78.2015 12.424C 78.5855 11.56 79.1695 10.904 79.9535 10.456C 80.7535 9.992 81.6655 9.76 82.6895 9.76ZM 108.589 21.208C 108.989 21.208 109.301 21.152 109.525 21.04L 109.453 22C 109.165 22.16 108.773 22.24 108.277 22.24C 107.717 22.24 107.261 22.088 106.909 21.784C 106.557 21.48 106.357 20.952 106.309 20.2C 105.941 20.84 105.349 21.344 104.533 21.712C 103.717 22.064 102.861 22.24 101.965 22.24C 100.781 22.24 99.8287 21.976 99.1087 21.448C 98.4047 20.92 98.0527 20.168 98.0527 19.192C 98.0527 17.336 99.5727 16.136 102.613 15.592L 106.285 14.944L 106.285 13.888C 106.285 12.928 105.997 12.176 105.421 11.632C 104.861 11.088 104.061 10.816 103.021 10.816C 101.117 10.816 99.8367 11.664 99.1807 13.36L 98.2687 12.688C 98.6207 11.744 99.2047 11.024 100.021 10.528C 100.837 10.016 101.837 9.76 103.021 9.76C 104.413 9.76 105.501 10.104 106.285 10.792C 107.085 11.464 107.485 12.448 107.485 13.744L 107.485 19.936C 107.485 20.784 107.853 21.208 108.589 21.208ZM 102.085 21.184C 102.757 21.184 103.413 21.072 104.053 20.848C 104.693 20.608 105.221 20.264 105.637 19.816C 106.069 19.352 106.285 18.8 106.285 18.16L 106.285 15.928L 102.997 16.528C 101.701 16.768 100.757 17.104 100.165 17.536C 99.5727 17.968 99.2767 18.52 99.2767 19.192C 99.2767 19.832 99.5247 20.328 100.021 20.68C 100.517 21.016 101.205 21.184 102.085 21.184ZM 117.588 9.76C 118.964 9.76 120.068 10.144 120.9 10.912C 121.748 11.68 122.172 12.784 122.172 14.224L 122.172 22L 120.972 22L 120.972 14.608C 120.972 13.328 120.66 12.376 120.036 11.752C 119.412 11.128 118.556 10.816 117.468 10.816C 116.7 10.816 115.988 10.992 115.332 11.344C 114.676 11.696 114.148 12.208 113.748 12.88C 113.364 13.552 113.172 14.336 113.172 15.232L 113.172 22L 111.972 22L 111.972 10L 113.052 10L 113.1 12.424C 113.484 11.56 114.068 10.904 114.852 10.456C 115.652 9.992 116.564 9.76 117.588 9.76ZM 129.874 24.208C 129.426 25.296 128.93 26.056 128.386 26.488C 127.842 26.936 127.154 27.16 126.322 27.16C 125.33 27.16 124.57 26.864 124.042 26.272L 124.498 25.24C 124.882 25.816 125.49 26.104 126.322 26.104C 126.882 26.104 127.354 25.944 127.738 25.624C 128.138 25.32 128.506 24.752 128.842 23.92L 129.61 22L 128.362 19.024L 124.546 10L 125.914 10L 129.586 19.096L 130.186 20.704L 130.834 18.976L 134.362 10L 135.658 10L 129.874 24.208ZM 149.095 22.24C 147.879 22.24 146.823 22 145.927 21.52C 145.031 21.04 144.415 20.344 144.079 19.432L 145.063 18.784C 145.303 19.584 145.791 20.184 146.527 20.584C 147.263 20.984 148.167 21.184 149.239 21.184C 150.327 21.184 151.175 20.976 151.783 20.56C 152.407 20.144 152.719 19.592 152.719 18.904C 152.719 18.312 152.455 17.84 151.927 17.488C 151.399 17.136 150.471 16.84 149.143 16.6C 147.463 16.296 146.279 15.888 145.591 15.376C 144.903 14.864 144.559 14.136 144.559 13.192C 144.559 12.568 144.751 11.992 145.135 11.464C 145.519 10.936 146.063 10.52 146.767 10.216C 147.471 9.912 148.271 9.76 149.167 9.76C 150.431 9.76 151.439 10 152.191 10.48C 152.959 10.96 153.487 11.696 153.775 12.688L 152.743 13.288C 152.295 11.64 151.103 10.816 149.167 10.816C 148.527 10.816 147.943 10.92 147.415 11.128C 146.903 11.336 146.495 11.616 146.191 11.968C 145.903 12.304 145.759 12.672 145.759 13.072C 145.759 13.728 146.031 14.24 146.575 14.608C 147.119 14.976 148.079 15.28 149.455 15.52C 151.087 15.792 152.239 16.184 152.911 16.696C 153.583 17.208 153.919 17.928 153.919 18.856C 153.919 19.88 153.479 20.704 152.599 21.328C 151.735 21.936 150.567 22.24 149.095 22.24ZM 162.244 9.76C 164.02 9.76 165.412 10.32 166.42 11.44C 167.444 12.544 167.956 14.064 167.956 16C 167.956 17.936 167.444 19.464 166.42 20.584C 165.412 21.688 164.02 22.24 162.244 22.24C 160.468 22.24 159.068 21.688 158.044 20.584C 157.036 19.464 156.532 17.936 156.532 16C 156.532 14.064 157.036 12.544 158.044 11.44C 159.068 10.32 160.468 9.76 162.244 9.76ZM 162.244 10.792C 160.836 10.792 159.732 11.256 158.932 12.184C 158.132 13.112 157.732 14.384 157.732 16C 157.732 17.616 158.132 18.888 158.932 19.816C 159.732 20.744 160.836 21.208 162.244 21.208C 163.652 21.208 164.756 20.744 165.556 19.816C 166.356 18.888 166.756 17.616 166.756 16C 166.756 14.384 166.356 13.112 165.556 12.184C 164.756 11.256 163.652 10.792 162.244 10.792ZM 177.072 9.76C 178.448 9.76 179.552 10.144 180.384 10.912C 181.232 11.68 181.656 12.784 181.656 14.224L 181.656 22L 180.456 22L 180.456 14.608C 180.456 13.328 180.144 12.376 179.52 11.752C 178.896 11.128 178.04 10.816 176.952 10.816C 176.184 10.816 175.472 10.992 174.816 11.344C 174.16 11.696 173.632 12.208 173.232 12.88C 172.848 13.552 172.656 14.336 172.656 15.232L 172.656 22L 171.456 22L 171.456 10L 172.536 10L 172.584 12.424C 172.968 11.56 173.552 10.904 174.336 10.456C 175.136 9.992 176.048 9.76 177.072 9.76ZM 191.944 20.776C 193.144 20.776 194.088 21.024 194.776 21.52C 195.464 22.016 195.808 22.68 195.808 23.512C 195.808 24.232 195.56 24.864 195.064 25.408C 194.584 25.968 193.912 26.4 193.048 26.704C 192.184 27.008 191.2 27.16 190.096 27.16C 188.288 27.16 186.904 26.864 185.944 26.272C 184.984 25.696 184.504 24.928 184.504 23.968C 184.504 23.344 184.696 22.808 185.08 22.36C 185.464 21.912 185.992 21.592 186.664 21.4C 186.184 21.192 185.8 20.904 185.512 20.536C 185.24 20.168 185.104 19.76 185.104 19.312C 185.104 18.736 185.288 18.248 185.656 17.848C 186.04 17.448 186.552 17.16 187.192 16.984C 186.536 16.648 186.032 16.2 185.68 15.64C 185.328 15.064 185.152 14.408 185.152 13.672C 185.152 12.488 185.592 11.544 186.472 10.84C 187.368 10.12 188.552 9.76 190.024 9.76C 191.048 9.76 191.952 9.944 192.736 10.312C 192.832 9.544 193.152 8.936 193.696 8.488C 194.24 8.024 194.92 7.792 195.736 7.792L 196.024 8.848C 195.272 8.848 194.68 9.016 194.248 9.352C 193.816 9.688 193.568 10.168 193.504 10.792C 194.416 11.528 194.872 12.488 194.872 13.672C 194.872 14.856 194.424 15.808 193.528 16.528C 192.648 17.248 191.48 17.608 190.024 17.608C 189.528 17.608 188.984 17.552 188.392 17.44C 187.72 17.52 187.192 17.72 186.808 18.04C 186.44 18.344 186.256 18.712 186.256 19.144C 186.256 19.656 186.472 20.056 186.904 20.344C 187.336 20.632 187.984 20.776 188.848 20.776L 191.944 20.776ZM 186.352 13.672C 186.352 14.568 186.68 15.28 187.336 15.808C 187.992 16.336 188.888 16.6 190.024 16.6C 191.144 16.6 192.032 16.336 192.688 15.808C 193.344 15.28 193.672 14.568 193.672 13.672C 193.672 12.776 193.344 12.072 192.688 11.56C 192.032 11.032 191.144 10.768 190.024 10.768C 188.904 10.768 188.008 11.032 187.336 11.56C 186.68 12.072 186.352 12.776 186.352 13.672ZM 190.216 26.152C 191.576 26.152 192.664 25.912 193.48 25.432C 194.312 24.968 194.728 24.376 194.728 23.656C 194.728 23.08 194.464 22.624 193.936 22.288C 193.424 21.968 192.672 21.808 191.68 21.808L 188.584 21.808C 187.672 21.808 186.944 21.984 186.4 22.336C 185.872 22.704 185.608 23.184 185.608 23.776C 185.608 24.512 186.008 25.088 186.808 25.504C 187.608 25.936 188.744 26.152 190.216 26.152ZM 208.906 24.208C 208.458 25.296 207.962 26.056 207.418 26.488C 206.874 26.936 206.186 27.16 205.354 27.16C 204.362 27.16 203.602 26.864 203.074 26.272L 203.53 25.24C 203.914 25.816 204.522 26.104 205.354 26.104C 205.914 26.104 206.386 25.944 206.77 25.624C 207.17 25.32 207.538 24.752 207.874 23.92L 208.642 22L 207.394 19.024L 203.578 10L 204.946 10L 208.618 19.096L 209.218 20.704L 209.866 18.976L 213.394 10L 214.69 10L 208.906 24.208ZM 222.08 9.76C 223.856 9.76 225.248 10.32 226.256 11.44C 227.28 12.544 227.792 14.064 227.792 16C 227.792 17.936 227.28 19.464 226.256 20.584C 225.248 21.688 223.856 22.24 222.08 22.24C 220.304 22.24 218.904 21.688 217.88 20.584C 216.872 19.464 216.368 17.936 216.368 16C 216.368 14.064 216.872 12.544 217.88 11.44C 218.904 10.32 220.304 9.76 222.08 9.76ZM 222.08 10.792C 220.672 10.792 219.568 11.256 218.768 12.184C 217.968 13.112 217.568 14.384 217.568 16C 217.568 17.616 217.968 18.888 218.768 19.816C 219.568 20.744 220.672 21.208 222.08 21.208C 223.488 21.208 224.592 20.744 225.392 19.816C 226.192 18.888 226.592 17.616 226.592 16C 226.592 14.384 226.192 13.112 225.392 12.184C 224.592 11.256 223.488 10.792 222.08 10.792ZM 241.252 10L 241.252 22L 240.172 22L 240.124 19.624C 239.724 20.472 239.124 21.12 238.324 21.568C 237.524 22.016 236.58 22.24 235.492 22.24C 234.18 22.24 233.132 21.88 232.348 21.16C 231.564 20.424 231.172 19.344 231.172 17.92L 231.172 10L 232.372 10L 232.372 17.632C 232.372 20 233.476 21.184 235.684 21.184C 236.564 21.184 237.332 20.992 237.988 20.608C 238.66 20.224 239.172 19.704 239.524 19.048C 239.876 18.392 240.052 17.672 240.052 16.888L 240.052 10L 241.252 10ZM 67.0164 37.76C 68.2164 37.76 69.2324 38.048 70.0644 38.624C 70.9124 39.184 71.5204 39.976 71.8884 41L 70.7604 41.528C 70.4884 40.648 70.0324 39.976 69.3924 39.512C 68.7524 39.048 67.9524 38.816 66.9924 38.816C 65.6004 38.816 64.5124 39.28 63.7284 40.208C 62.9444 41.12 62.5524 42.384 62.5524 44C 62.5524 45.632 62.9364 46.904 63.7044 47.816C 64.4884 48.728 65.5764 49.184 66.9684 49.184C 67.9924 49.184 68.8564 48.936 69.5604 48.44C 70.2804 47.928 70.7204 47.224 70.8804 46.328L 71.9844 46.712C 71.6644 47.8 71.0564 48.664 70.1604 49.304C 69.2804 49.928 68.2244 50.24 66.9924 50.24C 65.2164 50.24 63.8324 49.688 62.8404 48.584C 61.8484 47.48 61.3524 45.952 61.3524 44C 61.3524 42.048 61.8484 40.52 62.8404 39.416C 63.8484 38.312 65.2404 37.76 67.0164 37.76ZM 84.8465 49.208C 85.2465 49.208 85.5585 49.152 85.7825 49.04L 85.7105 50C 85.4225 50.16 85.0305 50.24 84.5345 50.24C 83.9745 50.24 83.5185 50.088 83.1665 49.784C 82.8145 49.48 82.6145 48.952 82.5665 48.2C 82.1985 48.84 81.6065 49.344 80.7905 49.712C 79.9745 50.064 79.1185 50.24 78.2225 50.24C 77.0385 50.24 76.0865 49.976 75.3665 49.448C 74.6625 48.92 74.3105 48.168 74.3105 47.192C 74.3105 45.336 75.8305 44.136 78.8705 43.592L 82.5425 42.944L 82.5425 41.888C 82.5425 40.928 82.2545 40.176 81.6785 39.632C 81.1185 39.088 80.3185 38.816 79.2785 38.816C 77.3745 38.816 76.0945 39.664 75.4385 41.36L 74.5265 40.688C 74.8785 39.744 75.4625 39.024 76.2785 38.528C 77.0945 38.016 78.0945 37.76 79.2785 37.76C 80.6705 37.76 81.7585 38.104 82.5425 38.792C 83.3425 39.464 83.7425 40.448 83.7425 41.744L 83.7425 47.936C 83.7425 48.784 84.1105 49.208 84.8465 49.208ZM 78.3425 49.184C 79.0145 49.184 79.6705 49.072 80.3105 48.848C 80.9505 48.608 81.4785 48.264 81.8945 47.816C 82.3265 47.352 82.5425 46.8 82.5425 46.16L 82.5425 43.928L 79.2545 44.528C 77.9585 44.768 77.0145 45.104 76.4225 45.536C 75.8305 45.968 75.5345 46.52 75.5345 47.192C 75.5345 47.832 75.7825 48.328 76.2785 48.68C 76.7745 49.016 77.4625 49.184 78.3425 49.184ZM 93.8458 37.76C 95.2218 37.76 96.3258 38.144 97.1577 38.912C 98.0057 39.68 98.4297 40.784 98.4297 42.224L 98.4297 50L 97.2297 50L 97.2297 42.608C 97.2297 41.328 96.9178 40.376 96.2938 39.752C 95.6697 39.128 94.8138 38.816 93.7257 38.816C 92.9578 38.816 92.2457 38.992 91.5898 39.344C 90.9338 39.696 90.4058 40.208 90.0058 40.88C 89.6217 41.552 89.4297 42.336 89.4297 43.232L 89.4297 50L 88.2298 50L 88.2298 38L 89.3098 38L 89.3578 40.424C 89.7417 39.56 90.3258 38.904 91.1098 38.456C 91.9098 37.992 92.8218 37.76 93.8458 37.76ZM 116.252 49.232C 115.932 49.552 115.54 49.8 115.076 49.976C 114.612 50.152 114.1 50.24 113.54 50.24C 112.564 50.24 111.796 49.976 111.236 49.448C 110.692 48.904 110.42 48.088 110.42 47L 110.42 39.032L 108.02 39.032L 108.02 38L 110.42 38L 110.42 35L 111.62 34.664L 111.62 38L 116.132 38L 116.132 39.032L 111.62 39.032L 111.62 46.832C 111.62 47.584 111.796 48.16 112.148 48.56C 112.516 48.944 113.044 49.136 113.732 49.136C 114.532 49.136 115.228 48.84 115.82 48.248L 116.252 49.232ZM 124.291 37.76C 125.667 37.76 126.771 38.144 127.603 38.912C 128.451 39.68 128.875 40.776 128.875 42.2L 128.875 50L 127.675 50L 127.675 42.584C 127.675 41.32 127.355 40.376 126.715 39.752C 126.091 39.112 125.243 38.792 124.171 38.792C 123.403 38.792 122.691 38.976 122.035 39.344C 121.379 39.696 120.851 40.208 120.451 40.88C 120.067 41.552 119.875 42.336 119.875 43.232L 119.875 50L 118.675 50L 118.675 32.48L 119.875 32.48L 119.875 40.376C 120.259 39.528 120.835 38.88 121.603 38.432C 122.387 37.984 123.283 37.76 124.291 37.76ZM 133.619 35.672C 133.315 35.672 133.067 35.584 132.875 35.408C 132.699 35.216 132.611 34.968 132.611 34.664C 132.611 34.36 132.699 34.12 132.875 33.944C 133.067 33.752 133.315 33.656 133.619 33.656C 133.923 33.656 134.163 33.752 134.339 33.944C 134.531 34.12 134.627 34.36 134.627 34.664C 134.627 34.968 134.531 35.216 134.339 35.408C 134.163 35.584 133.923 35.672 133.619 35.672ZM 134.219 50L 133.019 50L 133.019 38L 134.219 38L 134.219 50ZM 144.119 37.76C 145.495 37.76 146.599 38.144 147.431 38.912C 148.279 39.68 148.703 40.784 148.703 42.224L 148.703 50L 147.503 50L 147.503 42.608C 147.503 41.328 147.191 40.376 146.567 39.752C 145.943 39.128 145.087 38.816 143.999 38.816C 143.231 38.816 142.519 38.992 141.863 39.344C 141.207 39.696 140.679 40.208 140.279 40.88C 139.895 41.552 139.703 42.336 139.703 43.232L 139.703 50L 138.503 50L 138.503 38L 139.583 38L 139.631 40.424C 140.015 39.56 140.599 38.904 141.383 38.456C 142.183 37.992 143.095 37.76 144.119 37.76ZM 156.879 43.64L 154.047 46.376L 154.047 50L 152.847 50L 152.847 32.48L 154.047 32.48L 154.047 44.864L 161.175 38L 162.735 38L 157.767 42.8L 162.927 50L 161.463 50L 156.879 43.64ZM 177.549 37.76C 179.325 37.76 180.717 38.32 181.725 39.44C 182.749 40.544 183.261 42.064 183.261 44C 183.261 45.936 182.749 47.464 181.725 48.584C 180.717 49.688 179.325 50.24 177.549 50.24C 175.773 50.24 174.373 49.688 173.349 48.584C 172.341 47.464 171.837 45.936 171.837 44C 171.837 42.064 172.341 40.544 173.349 39.44C 174.373 38.32 175.773 37.76 177.549 37.76ZM 177.549 38.792C 176.141 38.792 175.037 39.256 174.237 40.184C 173.437 41.112 173.037 42.384 173.037 44C 173.037 45.616 173.437 46.888 174.237 47.816C 175.037 48.744 176.141 49.208 177.549 49.208C 178.957 49.208 180.061 48.744 180.861 47.816C 181.661 46.888 182.061 45.616 182.061 44C 182.061 42.384 181.661 41.112 180.861 40.184C 180.061 39.256 178.957 38.792 177.549 38.792ZM 188.543 38L 192.767 38L 192.767 39.032L 188.543 39.032L 188.543 50L 187.343 50L 187.343 39.032L 184.943 39.032L 184.943 38L 187.343 38L 187.343 35.984C 187.343 34.864 187.655 33.984 188.279 33.344C 188.903 32.688 189.783 32.36 190.919 32.36C 191.783 32.36 192.431 32.576 192.863 33.008L 192.527 33.968C 192.127 33.616 191.623 33.44 191.015 33.44C 190.231 33.44 189.623 33.672 189.191 34.136C 188.759 34.584 188.543 35.24 188.543 36.104L 188.543 38Z"/>
<path id="path4_fill" d="M 7.296 9.76C 8.496 9.76 9.504 10.04 10.32 10.6C 11.152 11.144 11.8 11.928 12.264 12.952L 10.44 13.816C 9.928 12.232 8.864 11.44 7.248 11.44C 6.048 11.44 5.104 11.848 4.416 12.664C 3.744 13.464 3.408 14.576 3.408 16C 3.408 17.424 3.744 18.544 4.416 19.36C 5.104 20.16 6.048 20.56 7.248 20.56C 8.176 20.56 8.92 20.352 9.48 19.936C 10.056 19.504 10.432 18.888 10.608 18.088L 12.384 18.712C 11.968 19.832 11.328 20.704 10.464 21.328C 9.6 21.936 8.544 22.24 7.296 22.24C 5.488 22.24 4.064 21.688 3.024 20.584C 2 19.48 1.488 17.952 1.488 16C 1.488 14.048 2 12.52 3.024 11.416C 4.064 10.312 5.488 9.76 7.296 9.76ZM 17.6029 18.784C 17.6029 19.392 17.6909 19.816 17.8669 20.056C 18.0589 20.28 18.4029 20.392 18.8989 20.392C 19.2349 20.392 19.5229 20.368 19.7629 20.32C 20.0189 20.272 20.3149 20.184 20.6509 20.056L 20.3389 21.904C 19.8109 22.128 19.2189 22.24 18.5629 22.24C 17.5869 22.24 16.8589 21.976 16.3789 21.448C 15.9149 20.92 15.6829 20.112 15.6829 19.024L 15.6829 4.48L 17.6029 4.48L 17.6029 18.784ZM 24.0748 7.696C 23.6428 7.696 23.2908 7.568 23.0188 7.312C 22.7628 7.04 22.6348 6.688 22.6348 6.256C 22.6348 5.824 22.7628 5.48 23.0188 5.224C 23.2908 4.952 23.6428 4.816 24.0748 4.816C 24.5068 4.816 24.8508 4.952 25.1068 5.224C 25.3788 5.48 25.5148 5.824 25.5148 6.256C 25.5148 6.688 25.3788 7.04 25.1068 7.312C 24.8508 7.568 24.5068 7.696 24.0748 7.696ZM 25.0348 22L 23.1148 22L 23.1148 10L 25.0348 10L 25.0348 22ZM 34.5538 9.76C 35.7538 9.76 36.7618 10.04 37.5778 10.6C 38.4098 11.144 39.0578 11.928 39.5218 12.952L 37.6978 13.816C 37.1858 12.232 36.1218 11.44 34.5058 11.44C 33.3058 11.44 32.3618 11.848 31.6738 12.664C 31.0018 13.464 30.6658 14.576 30.6658 16C 30.6658 17.424 31.0018 18.544 31.6738 19.36C 32.3618 20.16 33.3058 20.56 34.5058 20.56C 35.4338 20.56 36.1778 20.352 36.7378 19.936C 37.3138 19.504 37.6898 18.888 37.8658 18.088L 39.6418 18.712C 39.2258 19.832 38.5858 20.704 37.7218 21.328C 36.8578 21.936 35.8018 22.24 34.5538 22.24C 32.7458 22.24 31.3218 21.688 30.2818 20.584C 29.2578 19.48 28.7458 17.952 28.7458 16C 28.7458 14.048 29.2578 12.52 30.2818 11.416C 31.3218 10.312 32.7458 9.76 34.5538 9.76ZM 47.5007 16.072L 44.9567 18.616L 44.9567 22L 43.0367 22L 43.0367 4.48L 44.9567 4.48L 44.9567 16.216L 51.1727 10L 53.5727 10L 48.8927 14.68L 53.8607 22L 51.5327 22L 47.5007 16.072ZM 69.0253 9.76C 70.8013 9.76 72.1933 10.32 73.2013 11.44C 74.2253 12.544 74.7373 14.064 74.7373 16C 74.7373 17.936 74.2253 19.464 73.2013 20.584C 72.1933 21.688 70.8013 22.24 69.0253 22.24C 67.2493 22.24 65.8493 21.688 64.8253 20.584C 63.8173 19.464 63.3133 17.936 63.3133 16C 63.3133 14.064 63.8173 12.544 64.8253 11.44C 65.8493 10.32 67.2493 9.76 69.0253 9.76ZM 69.0253 10.792C 67.6173 10.792 66.5133 11.256 65.7133 12.184C 64.9133 13.112 64.5133 14.384 64.5133 16C 64.5133 17.616 64.9133 18.888 65.7133 19.816C 66.5133 20.744 67.6173 21.208 69.0253 21.208C 70.4333 21.208 71.5373 20.744 72.3373 19.816C 73.1373 18.888 73.5373 17.616 73.5373 16C 73.5373 14.384 73.1373 13.112 72.3373 12.184C 71.5373 11.256 70.4333 10.792 69.0253 10.792ZM 83.8536 9.76C 85.2296 9.76 86.3336 10.144 87.1656 10.912C 88.0136 11.68 88.4376 12.784 88.4376 14.224L 88.4376 22L 87.2376 22L 87.2376 14.608C 87.2376 13.328 86.9256 12.376 86.3016 11.752C 85.6776 11.128 84.8216 10.816 83.7336 10.816C 82.9656 10.816 82.2536 10.992 81.5976 11.344C 80.9416 11.696 80.4136 12.208 80.0136 12.88C 79.6296 13.552 79.4376 14.336 79.4376 15.232L 79.4376 22L 78.2376 22L 78.2376 10L 79.3176 10L 79.3656 12.424C 79.7496 11.56 80.3336 10.904 81.1176 10.456C 81.9176 9.992 82.8296 9.76 83.8536 9.76ZM 106.26 21.232C 105.94 21.552 105.548 21.8 105.084 21.976C 104.62 22.152 104.108 22.24 103.548 22.24C 102.572 22.24 101.804 21.976 101.244 21.448C 100.7 20.904 100.428 20.088 100.428 19L 100.428 11.032L 98.028 11.032L 98.028 10L 100.428 10L 100.428 7L 101.628 6.664L 101.628 10L 106.14 10L 106.14 11.032L 101.628 11.032L 101.628 18.832C 101.628 19.584 101.804 20.16 102.156 20.56C 102.524 20.944 103.052 21.136 103.74 21.136C 104.54 21.136 105.236 20.84 105.828 20.248L 106.26 21.232ZM 114.299 9.76C 115.675 9.76 116.779 10.144 117.611 10.912C 118.459 11.68 118.883 12.776 118.883 14.2L 118.883 22L 117.683 22L 117.683 14.584C 117.683 13.32 117.363 12.376 116.723 11.752C 116.099 11.112 115.251 10.792 114.179 10.792C 113.411 10.792 112.699 10.976 112.043 11.344C 111.387 11.696 110.859 12.208 110.459 12.88C 110.075 13.552 109.883 14.336 109.883 15.232L 109.883 22L 108.683 22L 108.683 4.48L 109.883 4.48L 109.883 12.376C 110.267 11.528 110.843 10.88 111.611 10.432C 112.395 9.984 113.291 9.76 114.299 9.76ZM 133.011 15.712C 133.011 15.984 132.995 16.248 132.963 16.504L 123.435 16.504C 123.515 17.976 123.947 19.128 124.731 19.96C 125.531 20.776 126.595 21.184 127.923 21.184C 128.867 21.184 129.675 20.992 130.347 20.608C 131.035 20.224 131.531 19.68 131.835 18.976L 132.843 19.504C 132.395 20.384 131.755 21.064 130.923 21.544C 130.091 22.008 129.091 22.24 127.923 22.24C 126.147 22.24 124.755 21.688 123.747 20.584C 122.755 19.48 122.259 17.952 122.259 16C 122.259 14.048 122.739 12.52 123.699 11.416C 124.675 10.312 126.035 9.76 127.779 9.76C 129.411 9.76 130.691 10.304 131.619 11.392C 132.547 12.48 133.011 13.92 133.011 15.712ZM 127.779 10.816C 126.483 10.816 125.459 11.224 124.707 12.04C 123.955 12.84 123.531 13.968 123.435 15.424L 131.883 15.424C 131.803 13.984 131.403 12.856 130.683 12.04C 129.979 11.224 129.011 10.816 127.779 10.816ZM 147.868 22.24C 146.652 22.24 145.596 22 144.7 21.52C 143.804 21.04 143.188 20.344 142.852 19.432L 143.836 18.784C 144.076 19.584 144.564 20.184 145.3 20.584C 146.036 20.984 146.94 21.184 148.012 21.184C 149.1 21.184 149.948 20.976 150.556 20.56C 151.18 20.144 151.492 19.592 151.492 18.904C 151.492 18.312 151.228 17.84 150.7 17.488C 150.172 17.136 149.244 16.84 147.916 16.6C 146.236 16.296 145.052 15.888 144.364 15.376C 143.676 14.864 143.332 14.136 143.332 13.192C 143.332 12.568 143.524 11.992 143.908 11.464C 144.292 10.936 144.836 10.52 145.54 10.216C 146.244 9.912 147.044 9.76 147.94 9.76C 149.204 9.76 150.212 10 150.964 10.48C 151.732 10.96 152.26 11.696 152.548 12.688L 151.516 13.288C 151.068 11.64 149.876 10.816 147.94 10.816C 147.3 10.816 146.716 10.92 146.188 11.128C 145.676 11.336 145.268 11.616 144.964 11.968C 144.676 12.304 144.532 12.672 144.532 13.072C 144.532 13.728 144.804 14.24 145.348 14.608C 145.892 14.976 146.852 15.28 148.228 15.52C 149.86 15.792 151.012 16.184 151.684 16.696C 152.356 17.208 152.692 17.928 152.692 18.856C 152.692 19.88 152.252 20.704 151.372 21.328C 150.508 21.936 149.34 22.24 147.868 22.24ZM 161.018 9.76C 162.794 9.76 164.185 10.32 165.194 11.44C 166.218 12.544 166.73 14.064 166.73 16C 166.73 17.936 166.218 19.464 165.194 20.584C 164.185 21.688 162.794 22.24 161.018 22.24C 159.242 22.24 157.841 21.688 156.817 20.584C 155.809 19.464 155.305 17.936 155.305 16C 155.305 14.064 155.809 12.544 156.817 11.44C 157.841 10.32 159.242 9.76 161.018 9.76ZM 161.018 10.792C 159.61 10.792 158.506 11.256 157.706 12.184C 156.905 13.112 156.506 14.384 156.506 16C 156.506 17.616 156.905 18.888 157.706 19.816C 158.506 20.744 159.61 21.208 161.018 21.208C 162.425 21.208 163.529 20.744 164.329 19.816C 165.13 18.888 165.529 17.616 165.529 16C 165.529 14.384 165.13 13.112 164.329 12.184C 163.529 11.256 162.425 10.792 161.018 10.792ZM 175.846 9.76C 177.222 9.76 178.326 10.144 179.158 10.912C 180.006 11.68 180.43 12.784 180.43 14.224L 180.43 22L 179.23 22L 179.23 14.608C 179.23 13.328 178.918 12.376 178.294 11.752C 177.67 11.128 176.814 10.816 175.726 10.816C 174.958 10.816 174.246 10.992 173.59 11.344C 172.934 11.696 172.406 12.208 172.006 12.88C 171.622 13.552 171.43 14.336 171.43 15.232L 171.43 22L 170.23 22L 170.23 10L 171.31 10L 171.358 12.424C 171.742 11.56 172.326 10.904 173.11 10.456C 173.91 9.992 174.822 9.76 175.846 9.76ZM 190.718 20.776C 191.917 20.776 192.862 21.024 193.549 21.52C 194.237 22.016 194.582 22.68 194.582 23.512C 194.582 24.232 194.334 24.864 193.838 25.408C 193.358 25.968 192.686 26.4 191.822 26.704C 190.958 27.008 189.974 27.16 188.869 27.16C 187.061 27.16 185.678 26.864 184.718 26.272C 183.757 25.696 183.278 24.928 183.278 23.968C 183.278 23.344 183.47 22.808 183.853 22.36C 184.237 21.912 184.766 21.592 185.438 21.4C 184.958 21.192 184.574 20.904 184.286 20.536C 184.014 20.168 183.877 19.76 183.877 19.312C 183.877 18.736 184.061 18.248 184.429 17.848C 184.813 17.448 185.326 17.16 185.965 16.984C 185.309 16.648 184.805 16.2 184.453 15.64C 184.101 15.064 183.925 14.408 183.925 13.672C 183.925 12.488 184.365 11.544 185.245 10.84C 186.141 10.12 187.326 9.76 188.798 9.76C 189.822 9.76 190.726 9.944 191.51 10.312C 191.606 9.544 191.925 8.936 192.47 8.488C 193.014 8.024 193.694 7.792 194.51 7.792L 194.798 8.848C 194.046 8.848 193.453 9.016 193.022 9.352C 192.59 9.688 192.341 10.168 192.278 10.792C 193.19 11.528 193.645 12.488 193.645 13.672C 193.645 14.856 193.197 15.808 192.302 16.528C 191.422 17.248 190.254 17.608 188.798 17.608C 188.302 17.608 187.758 17.552 187.166 17.44C 186.494 17.52 185.965 17.72 185.582 18.04C 185.214 18.344 185.03 18.712 185.03 19.144C 185.03 19.656 185.246 20.056 185.678 20.344C 186.109 20.632 186.757 20.776 187.621 20.776L 190.718 20.776ZM 185.125 13.672C 185.125 14.568 185.453 15.28 186.109 15.808C 186.766 16.336 187.662 16.6 188.798 16.6C 189.918 16.6 190.805 16.336 191.462 15.808C 192.118 15.28 192.446 14.568 192.446 13.672C 192.446 12.776 192.118 12.072 191.462 11.56C 190.805 11.032 189.918 10.768 188.798 10.768C 187.678 10.768 186.781 11.032 186.109 11.56C 185.453 12.072 185.125 12.776 185.125 13.672ZM 188.989 26.152C 190.349 26.152 191.438 25.912 192.254 25.432C 193.085 24.968 193.501 24.376 193.501 23.656C 193.501 23.08 193.237 22.624 192.709 22.288C 192.197 21.968 191.445 21.808 190.453 21.808L 187.357 21.808C 186.445 21.808 185.718 21.984 185.173 22.336C 184.645 22.704 184.381 23.184 184.381 23.776C 184.381 24.512 184.781 25.088 185.582 25.504C 186.382 25.936 187.517 26.152 188.989 26.152ZM 207.679 24.208C 207.231 25.296 206.735 26.056 206.191 26.488C 205.647 26.936 204.959 27.16 204.127 27.16C 203.135 27.16 202.375 26.864 201.847 26.272L 202.303 25.24C 202.687 25.816 203.295 26.104 204.127 26.104C 204.687 26.104 205.159 25.944 205.543 25.624C 205.943 25.32 206.311 24.752 206.647 23.92L 207.415 22L 206.167 19.024L 202.351 10L 203.719 10L 207.391 19.096L 207.991 20.704L 208.639 18.976L 212.167 10L 213.463 10L 207.679 24.208ZM 220.853 9.76C 222.629 9.76 224.021 10.32 225.029 11.44C 226.053 12.544 226.565 14.064 226.565 16C 226.565 17.936 226.053 19.464 225.029 20.584C 224.021 21.688 222.629 22.24 220.853 22.24C 219.077 22.24 217.677 21.688 216.653 20.584C 215.645 19.464 215.141 17.936 215.141 16C 215.141 14.064 215.645 12.544 216.653 11.44C 217.677 10.32 219.077 9.76 220.853 9.76ZM 220.853 10.792C 219.445 10.792 218.341 11.256 217.541 12.184C 216.741 13.112 216.341 14.384 216.341 16C 216.341 17.616 216.741 18.888 217.541 19.816C 218.341 20.744 219.445 21.208 220.853 21.208C 222.261 21.208 223.365 20.744 224.165 19.816C 224.965 18.888 225.365 17.616 225.365 16C 225.365 14.384 224.965 13.112 224.165 12.184C 223.365 11.256 222.261 10.792 220.853 10.792ZM 240.026 10L 240.026 22L 238.946 22L 238.898 19.624C 238.498 20.472 237.898 21.12 237.098 21.568C 236.298 22.016 235.354 22.24 234.266 22.24C 232.954 22.24 231.906 21.88 231.122 21.16C 230.338 20.424 229.946 19.344 229.946 17.92L 229.946 10L 231.146 10L 231.146 17.632C 231.146 20 232.25 21.184 234.458 21.184C 235.338 21.184 236.106 20.992 236.762 20.608C 237.434 20.224 237.946 19.704 238.298 19.048C 238.65 18.392 238.826 17.672 238.826 16.888L 238.826 10L 240.026 10ZM 18.888 38L 14.784 50L 13.584 50L 9.792 39.512L 6.096 50L 4.896 50L 0.792 38L 2.136 38L 5.496 48.584L 9.24 38L 10.44 38L 14.16 48.584L 17.544 38L 18.888 38ZM 31.2137 49.208C 31.6137 49.208 31.9257 49.152 32.1497 49.04L 32.0777 50C 31.7897 50.16 31.3977 50.24 30.9017 50.24C 30.3417 50.24 29.8857 50.088 29.5337 49.784C 29.1817 49.48 28.9817 48.952 28.9337 48.2C 28.5657 48.84 27.9737 49.344 27.1577 49.712C 26.3417 50.064 25.4857 50.24 24.5897 50.24C 23.4057 50.24 22.4537 49.976 21.7337 49.448C 21.0297 48.92 20.6777 48.168 20.6777 47.192C 20.6777 45.336 22.1977 44.136 25.2377 43.592L 28.9097 42.944L 28.9097 41.888C 28.9097 40.928 28.6217 40.176 28.0457 39.632C 27.4857 39.088 26.6857 38.816 25.6457 38.816C 23.7417 38.816 22.4617 39.664 21.8057 41.36L 20.8937 40.688C 21.2457 39.744 21.8297 39.024 22.6457 38.528C 23.4617 38.016 24.4617 37.76 25.6457 37.76C 27.0377 37.76 28.1257 38.104 28.9097 38.792C 29.7097 39.464 30.1097 40.448 30.1097 41.744L 30.1097 47.936C 30.1097 48.784 30.4777 49.208 31.2137 49.208ZM 24.7097 49.184C 25.3817 49.184 26.0377 49.072 26.6777 48.848C 27.3177 48.608 27.8457 48.264 28.2617 47.816C 28.6937 47.352 28.9097 46.8 28.9097 46.16L 28.9097 43.928L 25.6217 44.528C 24.3257 44.768 23.3817 45.104 22.7897 45.536C 22.1977 45.968 21.9017 46.52 21.9017 47.192C 21.9017 47.832 22.1497 48.328 22.6457 48.68C 23.1417 49.016 23.8297 49.184 24.7097 49.184ZM 40.2129 37.76C 41.5889 37.76 42.6929 38.144 43.5249 38.912C 44.3729 39.68 44.7969 40.784 44.7969 42.224L 44.7969 50L 43.5969 50L 43.5969 42.608C 43.5969 41.328 43.2849 40.376 42.6609 39.752C 42.0369 39.128 41.1809 38.816 40.0929 38.816C 39.3249 38.816 38.6129 38.992 37.9569 39.344C 37.3009 39.696 36.7729 40.208 36.3729 40.88C 35.9889 41.552 35.7969 42.336 35.7969 43.232L 35.7969 50L 34.5969 50L 34.5969 38L 35.6769 38L 35.7249 40.424C 36.1089 39.56 36.6929 38.904 37.4769 38.456C 38.2769 37.992 39.1889 37.76 40.2129 37.76ZM 55.26 49.232C 54.94 49.552 54.548 49.8 54.084 49.976C 53.62 50.152 53.108 50.24 52.548 50.24C 51.572 50.24 50.804 49.976 50.244 49.448C 49.7 48.904 49.428 48.088 49.428 47L 49.428 39.032L 47.028 39.032L 47.028 38L 49.428 38L 49.428 35L 50.628 34.664L 50.628 38L 55.14 38L 55.14 39.032L 50.628 39.032L 50.628 46.832C 50.628 47.584 50.804 48.16 51.156 48.56C 51.524 48.944 52.052 49.136 52.74 49.136C 53.54 49.136 54.236 48.84 54.828 48.248L 55.26 49.232ZM 71.2444 49.232C 70.9244 49.552 70.5324 49.8 70.0684 49.976C 69.6044 50.152 69.0924 50.24 68.5324 50.24C 67.5564 50.24 66.7884 49.976 66.2284 49.448C 65.6844 48.904 65.4124 48.088 65.4124 47L 65.4124 39.032L 63.0124 39.032L 63.0124 38L 65.4124 38L 65.4124 35L 66.6124 34.664L 66.6124 38L 71.1244 38L 71.1244 39.032L 66.6124 39.032L 66.6124 46.832C 66.6124 47.584 66.7884 48.16 67.1404 48.56C 67.5084 48.944 68.0364 49.136 68.7244 49.136C 69.5244 49.136 70.2204 48.84 70.8124 48.248L 71.2444 49.232ZM 78.6112 37.76C 80.3872 37.76 81.7793 38.32 82.7873 39.44C 83.8113 40.544 84.3233 42.064 84.3233 44C 84.3233 45.936 83.8113 47.464 82.7873 48.584C 81.7793 49.688 80.3872 50.24 78.6112 50.24C 76.8353 50.24 75.4352 49.688 74.4112 48.584C 73.4032 47.464 72.8992 45.936 72.8992 44C 72.8992 42.064 73.4032 40.544 74.4112 39.44C 75.4352 38.32 76.8353 37.76 78.6112 37.76ZM 78.6112 38.792C 77.2032 38.792 76.0992 39.256 75.2993 40.184C 74.4993 41.112 74.0992 42.384 74.0992 44C 74.0992 45.616 74.4993 46.888 75.2993 47.816C 76.0992 48.744 77.2032 49.208 78.6112 49.208C 80.0192 49.208 81.1232 48.744 81.9232 47.816C 82.7232 46.888 83.1232 45.616 83.1232 44C 83.1232 42.384 82.7232 41.112 81.9232 40.184C 81.1232 39.256 80.0192 38.792 78.6112 38.792ZM 99.2589 50.24C 98.0429 50.24 96.9869 50 96.0909 49.52C 95.1949 49.04 94.5789 48.344 94.2429 47.432L 95.2269 46.784C 95.4669 47.584 95.9549 48.184 96.6909 48.584C 97.4269 48.984 98.3309 49.184 99.4029 49.184C 100.491 49.184 101.339 48.976 101.947 48.56C 102.571 48.144 102.883 47.592 102.883 46.904C 102.883 46.312 102.619 45.84 102.091 45.488C 101.563 45.136 100.635 44.84 99.3069 44.6C 97.6269 44.296 96.4429 43.888 95.7549 43.376C 95.0669 42.864 94.7229 42.136 94.7229 41.192C 94.7229 40.568 94.9149 39.992 95.2989 39.464C 95.6829 38.936 96.2269 38.52 96.9309 38.216C 97.6349 37.912 98.4349 37.76 99.3309 37.76C 100.595 37.76 101.603 38 102.355 38.48C 103.123 38.96 103.651 39.696 103.939 40.688L 102.907 41.288C 102.459 39.64 101.267 38.816 99.3309 38.816C 98.6909 38.816 98.1069 38.92 97.5789 39.128C 97.0669 39.336 96.6589 39.616 96.3549 39.968C 96.0669 40.304 95.9229 40.672 95.9229 41.072C 95.9229 41.728 96.1949 42.24 96.7389 42.608C 97.2829 42.976 98.2429 43.28 99.6189 43.52C 101.251 43.792 102.403 44.184 103.075 44.696C 103.747 45.208 104.083 45.928 104.083 46.856C 104.083 47.88 103.643 48.704 102.763 49.328C 101.899 49.936 100.731 50.24 99.2589 50.24ZM 113.08 37.76C 114.456 37.76 115.56 38.144 116.392 38.912C 117.24 39.68 117.664 40.776 117.664 42.2L 117.664 50L 116.464 50L 116.464 42.584C 116.464 41.32 116.144 40.376 115.504 39.752C 114.88 39.112 114.032 38.792 112.96 38.792C 112.192 38.792 111.48 38.976 110.824 39.344C 110.168 39.696 109.64 40.208 109.24 40.88C 108.856 41.552 108.664 42.336 108.664 43.232L 108.664 50L 107.464 50L 107.464 32.48L 108.664 32.48L 108.664 40.376C 109.048 39.528 109.624 38.88 110.392 38.432C 111.176 37.984 112.072 37.76 113.08 37.76ZM 131.456 49.208C 131.856 49.208 132.168 49.152 132.392 49.04L 132.32 50C 132.032 50.16 131.64 50.24 131.144 50.24C 130.584 50.24 130.128 50.088 129.776 49.784C 129.424 49.48 129.224 48.952 129.176 48.2C 128.808 48.84 128.216 49.344 127.4 49.712C 126.584 50.064 125.728 50.24 124.832 50.24C 123.648 50.24 122.696 49.976 121.976 49.448C 121.272 48.92 120.92 48.168 120.92 47.192C 120.92 45.336 122.44 44.136 125.48 43.592L 129.152 42.944L 129.152 41.888C 129.152 40.928 128.864 40.176 128.288 39.632C 127.728 39.088 126.928 38.816 125.888 38.816C 123.984 38.816 122.704 39.664 122.048 41.36L 121.136 40.688C 121.488 39.744 122.072 39.024 122.888 38.528C 123.704 38.016 124.704 37.76 125.888 37.76C 127.28 37.76 128.368 38.104 129.152 38.792C 129.952 39.464 130.352 40.448 130.352 41.744L 130.352 47.936C 130.352 48.784 130.72 49.208 131.456 49.208ZM 124.952 49.184C 125.624 49.184 126.28 49.072 126.92 48.848C 127.56 48.608 128.088 48.264 128.504 47.816C 128.936 47.352 129.152 46.8 129.152 46.16L 129.152 43.928L 125.864 44.528C 124.568 44.768 123.624 45.104 123.032 45.536C 122.44 45.968 122.144 46.52 122.144 47.192C 122.144 47.832 122.392 48.328 122.888 48.68C 123.384 49.016 124.072 49.184 124.952 49.184ZM 139.879 37.76C 140.519 37.76 141.023 37.896 141.391 38.168L 141.079 39.296C 140.711 39.008 140.199 38.864 139.543 38.864C 138.935 38.864 138.359 39.056 137.815 39.44C 137.287 39.808 136.855 40.336 136.519 41.024C 136.199 41.696 136.039 42.448 136.039 43.28L 136.039 50L 134.839 50L 134.839 38L 135.847 38L 135.991 40.448C 136.327 39.6 136.823 38.944 137.479 38.48C 138.151 38 138.951 37.76 139.879 37.76ZM 153.308 43.712C 153.308 43.984 153.292 44.248 153.26 44.504L 143.732 44.504C 143.812 45.976 144.244 47.128 145.028 47.96C 145.828 48.776 146.892 49.184 148.22 49.184C 149.163 49.184 149.971 48.992 150.643 48.608C 151.331 48.224 151.827 47.68 152.131 46.976L 153.139 47.504C 152.691 48.384 152.052 49.064 151.22 49.544C 150.388 50.008 149.388 50.24 148.22 50.24C 146.444 50.24 145.052 49.688 144.043 48.584C 143.052 47.48 142.555 45.952 142.555 44C 142.555 42.048 143.035 40.52 143.995 39.416C 144.971 38.312 146.332 37.76 148.076 37.76C 149.708 37.76 150.988 38.304 151.916 39.392C 152.844 40.48 153.308 41.92 153.308 43.712ZM 148.076 38.816C 146.78 38.816 145.756 39.224 145.004 40.04C 144.251 40.84 143.828 41.968 143.732 43.424L 152.179 43.424C 152.099 41.984 151.7 40.856 150.98 40.04C 150.275 39.224 149.308 38.816 148.076 38.816Z"/>
<path id="path5_fill" d="M 31.3421 7.9C 33.2221 7.9 34.8221 8.18 36.1421 8.74C 37.4821 9.3 38.7221 10.21 39.8621 11.47L 36.9521 14.83C 36.2921 13.83 35.5121 13.1 34.6121 12.64C 33.7321 12.16 32.6721 11.92 31.4321 11.92C 30.3921 11.92 29.5921 12.1 29.0321 12.46C 28.4721 12.82 28.1921 13.3 28.1921 13.9C 28.1921 14.4 28.4821 14.81 29.0621 15.13C 29.6621 15.43 30.6721 15.71 32.0921 15.97C 34.8321 16.47 36.7821 17.2 37.9421 18.16C 39.1221 19.12 39.7121 20.47 39.7121 22.21C 39.7121 23.47 39.3521 24.56 38.6321 25.48C 37.9121 26.4 36.9121 27.1 35.6321 27.58C 34.3721 28.06 32.9421 28.3 31.3421 28.3C 29.1021 28.3 27.2821 28.03 25.8821 27.49C 24.4821 26.93 23.2721 26.08 22.2521 24.94L 24.8921 21.34C 25.6721 22.42 26.5521 23.18 27.5321 23.62C 28.5121 24.06 29.6921 24.28 31.0721 24.28C 32.1721 24.28 32.9921 24.13 33.5321 23.83C 34.0921 23.51 34.3721 23.06 34.3721 22.48C 34.3721 22.02 34.0721 21.65 33.4721 21.37C 32.8921 21.07 31.9121 20.79 30.5321 20.53C 28.8321 20.19 27.4221 19.79 26.3021 19.33C 25.2021 18.85 24.3421 18.21 23.7221 17.41C 23.1221 16.61 22.8221 15.59 22.8221 14.35C 22.8221 13.11 23.1521 12 23.8121 11.02C 24.4921 10.04 25.4721 9.28 26.7521 8.74C 28.0521 8.18 29.5821 7.9 31.3421 7.9ZM 53.4387 27.16C 52.9387 27.5 52.2987 27.78 51.5187 28C 50.7587 28.2 49.9888 28.3 49.2088 28.3C 47.4288 28.3 46.0687 27.92 45.1287 27.16C 44.1887 26.4 43.7088 25.18 43.6887 23.5L 43.6887 16.63L 41.1088 16.63L 41.1088 13L 43.6887 13L 43.6887 9.64L 48.7888 8.23L 48.7888 13L 53.2888 13L 53.2888 16.63L 48.7888 16.63L 48.7888 22.66C 48.7888 24 49.4487 24.67 50.7687 24.67C 51.5887 24.67 52.3088 24.45 52.9288 24.01L 53.4387 27.16ZM 70.1959 20.29C 70.1959 20.97 70.1459 21.53 70.0459 21.97L 59.8159 21.97C 59.9759 22.91 60.3159 23.6 60.8359 24.04C 61.3759 24.48 62.0859 24.7 62.9659 24.7C 63.7059 24.7 64.3059 24.56 64.7659 24.28C 65.2459 24 65.5659 23.59 65.7259 23.05L 69.8659 24.37C 69.4459 25.65 68.6259 26.63 67.4059 27.31C 66.2059 27.97 64.7259 28.3 62.9659 28.3C 60.3459 28.3 58.3359 27.62 56.9359 26.26C 55.5559 24.9 54.8659 22.98 54.8659 20.5C 54.8659 18.02 55.5459 16.1 56.9059 14.74C 58.2659 13.38 60.1959 12.7 62.6959 12.7C 65.1159 12.7 66.9659 13.37 68.2459 14.71C 69.5459 16.03 70.1959 17.89 70.1959 20.29ZM 62.6659 16.27C 61.0459 16.27 60.0859 17.25 59.7859 19.21L 65.4259 19.21C 65.1859 17.25 64.2659 16.27 62.6659 16.27ZM 82.6768 12.7C 84.6368 12.7 86.1568 13.38 87.2368 14.74C 88.3168 16.1 88.8568 18 88.8568 20.44C 88.8568 22.92 88.3068 24.85 87.2068 26.23C 86.1068 27.61 84.5968 28.3 82.6768 28.3C 81.6168 28.3 80.6968 28.05 79.9168 27.55C 79.1568 27.05 78.5668 26.36 78.1468 25.48L 78.1468 34.3L 73.0468 34.3L 73.0468 13L 77.5168 13L 77.6668 16.18C 78.0868 15.12 78.7268 14.28 79.5868 13.66C 80.4668 13.02 81.4968 12.7 82.6768 12.7ZM 80.9068 24.55C 81.8068 24.55 82.4968 24.22 82.9768 23.56C 83.4768 22.9 83.7268 21.88 83.7268 20.5C 83.7268 19.12 83.4768 18.1 82.9768 17.44C 82.4968 16.78 81.8068 16.45 80.9068 16.45C 80.0468 16.45 79.3668 16.78 78.8668 17.44C 78.3868 18.1 78.1468 19.07 78.1468 20.35L 78.1468 20.65C 78.1468 21.89 78.3868 22.85 78.8668 23.53C 79.3468 24.21 80.0268 24.55 80.9068 24.55ZM 109.354 8.2L 109.354 28L 104.374 28L 104.374 13.27C 102.834 14.67 101.274 15.51 99.6943 15.79L 99.2143 11.53C 100.234 11.41 101.364 11.01 102.604 10.33C 103.864 9.63 104.744 8.92 105.244 8.2L 109.354 8.2Z"/>
<path id="path6_fill" d="M 9.93 7.9C 4.5 7.9 1.41 10.63 1.41 14.35C 1.41 18.22 4.44 19.6 9.12 20.53C 11.82 21.04 12.96 21.55 12.96 22.48C 12.96 23.62 11.88 24.28 9.66 24.28C 7.02 24.28 5.1 23.59 3.48 21.34L 0.84 24.94C 2.79 27.1 5.25 28.3 9.93 28.3C 14.7 28.3 18.3 26.08 18.3 22.21C 18.3 18.73 16.17 16.96 10.68 15.97C 7.86 15.46 6.78 14.92 6.78 13.9C 6.78 12.76 7.89 11.92 10.02 11.92C 12.54 11.92 14.22 12.85 15.54 14.83L 18.45 11.47C 16.17 8.92 13.65 7.9 9.93 7.9ZM 31.5166 24.01C 30.9166 24.43 30.2866 24.67 29.3566 24.67C 28.0966 24.67 27.3766 24.1 27.3766 22.66L 27.3766 16.63L 31.8766 16.63L 31.8766 13L 27.3766 13L 27.3766 8.23L 22.2766 9.64L 22.2766 13L 19.6966 13L 19.6966 16.63L 22.2766 16.63L 22.2766 23.5C 22.3066 26.98 24.4066 28.3 27.7966 28.3C 29.3566 28.3 31.0366 27.85 32.0266 27.16L 31.5166 24.01ZM 48.7837 20.29C 48.7837 15.55 46.1737 12.7 41.2838 12.7C 36.2737 12.7 33.4538 15.55 33.4538 20.5C 33.4538 25.45 36.3037 28.3 41.5538 28.3C 45.0338 28.3 47.5838 26.98 48.4538 24.37L 44.3137 23.05C 43.9838 24.1 43.0537 24.7 41.5538 24.7C 39.8438 24.7 38.7337 23.92 38.4038 21.97L 48.6337 21.97C 48.7238 21.58 48.7837 20.8 48.7837 20.29ZM 41.2537 16.27C 42.8437 16.27 43.7738 17.29 44.0437 19.21L 38.4038 19.21C 38.6737 17.17 39.6338 16.27 41.2537 16.27ZM 61.2647 12.7C 58.8047 12.7 57.0647 14.11 56.2547 16.18L 56.1047 13L 51.6347 13L 51.6347 34.3L 56.7347 34.3L 56.7347 25.51C 57.5747 27.19 59.1047 28.3 61.2647 28.3C 65.1047 28.3 67.4447 25.42 67.4447 20.44C 67.4447 15.55 65.1647 12.7 61.2647 12.7ZM 59.4947 24.55C 57.7247 24.55 56.7347 23.14 56.7347 20.65L 56.7347 20.35C 56.7347 17.77 57.7847 16.45 59.4947 16.45C 61.2347 16.45 62.3147 17.68 62.3147 20.5C 62.3147 23.32 61.2347 24.55 59.4947 24.55ZM 79.0266 28L 93.8766 28L 93.8766 24.07L 89.2266 24.07C 87.9666 24.07 86.2266 24.13 85.2366 24.19L 85.2366 24.16C 90.6066 21.07 93.6366 18.13 93.6366 14.26C 93.6366 11.17 91.4166 7.9 86.1666 7.9C 81.7266 7.9 78.4866 10.27 78.3966 14.65L 82.8066 16C 82.8666 13.36 83.9466 11.95 85.8366 11.95C 87.6066 11.95 88.5066 13.09 88.5066 14.62C 88.5066 17.41 85.8066 20.47 79.0266 24.7L 79.0266 28Z"/>
<path id="path7_fill" d="M 59.379 24.26C 62.707 24.26 64.813 22.674 64.813 20.412C 64.813 18.28 63.513 17.188 59.873 16.59C 57.221 16.148 56.363 15.576 56.363 14.458C 56.363 13.496 57.663 12.56 59.405 12.56C 61.043 12.56 62.213 13.184 62.785 14.9L 64.553 13.86C 63.825 11.728 62.187 10.74 59.405 10.74C 56.233 10.74 54.283 12.534 54.283 14.64C 54.283 16.824 55.635 17.838 59.327 18.514C 61.927 18.982 62.733 19.554 62.733 20.516C 62.733 21.582 61.719 22.44 59.587 22.44C 57.715 22.44 56.103 21.738 55.479 20.152L 53.789 21.322C 54.777 23.324 56.987 24.26 59.379 24.26ZM 79.824 16.824C 79.824 13.47 77.77 10.74 74 10.74C 70.074 10.74 67.864 13.288 67.864 17.5C 67.864 21.712 70.23 24.26 74.156 24.26C 76.964 24.26 78.576 23.194 79.564 21.426L 77.822 20.516C 77.354 21.764 76.054 22.44 74.156 22.44C 71.764 22.44 70.178 20.906 69.918 18.28L 79.72 18.28C 79.772 17.916 79.824 17.422 79.824 16.824ZM 74 12.56C 76.21 12.56 77.536 14.042 77.822 16.434L 69.944 16.434C 70.256 13.99 71.686 12.56 74 12.56ZM 90.0954 10.74C 88.3014 10.74 86.6374 11.39 85.7274 13.028L 85.5974 11L 83.7774 11L 83.7774 24L 85.8574 24L 85.8574 17.084C 85.8574 13.756 87.9894 12.56 89.8874 12.56C 91.6814 12.56 93.0854 13.522 93.0854 16.408L 93.0854 24L 95.1654 24L 95.1654 15.68C 95.1654 12.326 92.8774 10.74 90.0954 10.74ZM 109.339 5.02L 109.339 13.028C 108.533 11.676 106.973 10.74 105.023 10.74C 101.409 10.74 99.095 13.262 99.095 17.5C 99.095 21.738 101.409 24.26 105.023 24.26C 107.077 24.26 108.715 23.22 109.469 21.738L 109.599 24L 111.419 24L 111.419 5.02L 109.339 5.02ZM 105.257 22.44C 102.709 22.44 101.175 20.516 101.175 17.5C 101.175 14.484 102.709 12.56 105.257 12.56C 107.727 12.56 109.339 14.406 109.339 17.344L 109.339 17.656C 109.339 20.594 107.727 22.44 105.257 22.44ZM 130.499 22.102C 129.875 22.726 129.173 23.064 128.237 23.064C 126.755 23.064 125.949 22.206 125.949 20.568L 125.949 12.118L 130.837 12.118L 130.837 11L 125.949 11L 125.949 7.386L 124.649 7.75L 124.649 11L 122.049 11L 122.049 12.118L 124.649 12.118L 124.649 20.75C 124.649 23.168 126.001 24.26 128.029 24.26C 129.277 24.26 130.291 23.818 130.967 23.168L 130.499 22.102ZM 139.675 10.74C 137.517 10.74 135.723 11.728 134.891 13.6L 134.891 5.02L 133.591 5.02L 133.591 24L 134.891 24L 134.891 16.668C 134.891 13.626 137.101 11.858 139.545 11.858C 141.781 11.858 143.341 13.132 143.341 15.966L 143.341 24L 144.641 24L 144.641 15.55C 144.641 12.378 142.561 10.74 139.675 10.74ZM 159.582 23.142C 158.802 23.142 158.386 22.7 158.386 21.764L 158.386 15.056C 158.386 12.17 156.488 10.74 153.55 10.74C 150.976 10.74 149.156 11.884 148.402 13.912L 149.39 14.64C 150.118 12.742 151.522 11.884 153.55 11.884C 155.838 11.884 157.086 13.158 157.086 15.212L 157.086 16.356L 153.108 17.058C 149.728 17.656 148.168 18.982 148.168 20.958C 148.168 23.116 149.91 24.26 152.406 24.26C 154.252 24.26 156.28 23.506 157.112 22.05C 157.242 23.818 158.178 24.26 159.244 24.26C 159.79 24.26 160.232 24.156 160.518 24L 160.596 22.96C 160.336 23.09 159.946 23.142 159.582 23.142ZM 152.536 23.116C 150.638 23.116 149.494 22.336 149.494 20.958C 149.494 19.502 150.716 18.592 153.524 18.072L 157.086 17.422L 157.086 19.84C 157.086 22.024 154.59 23.116 152.536 23.116ZM 169.549 22.102C 168.925 22.726 168.223 23.064 167.287 23.064C 165.805 23.064 164.999 22.206 164.999 20.568L 164.999 12.118L 169.887 12.118L 169.887 11L 164.999 11L 164.999 7.386L 163.699 7.75L 163.699 11L 161.099 11L 161.099 12.118L 163.699 12.118L 163.699 20.75C 163.699 23.168 165.051 24.26 167.079 24.26C 168.327 24.26 169.341 23.818 170.017 23.168L 169.549 22.102ZM 181.862 5.02L 180.562 5.02L 180.562 20.984C 180.562 23.246 181.472 24.26 183.318 24.26C 183.994 24.26 184.592 24.13 185.034 23.922L 185.216 22.674C 184.618 22.934 184.228 23.038 183.5 23.038C 182.33 23.038 181.862 22.44 181.862 20.854L 181.862 5.02ZM 188.45 8.478C 189.1 8.478 189.542 8.036 189.542 7.386C 189.542 6.736 189.1 6.294 188.45 6.294C 187.8 6.294 187.358 6.736 187.358 7.386C 187.358 8.036 187.8 8.478 188.45 8.478ZM 189.1 11L 187.8 11L 187.8 24L 189.1 24L 189.1 11ZM 199.826 10.74C 197.668 10.74 195.822 11.728 194.99 13.6L 194.912 11L 193.742 11L 193.742 24L 195.042 24L 195.042 16.668C 195.042 13.626 197.252 11.884 199.696 11.884C 201.932 11.884 203.492 13.132 203.492 15.992L 203.492 24L 204.792 24L 204.792 15.576C 204.792 12.378 202.712 10.74 199.826 10.74ZM 218.615 24L 220.201 24L 214.611 16.2L 219.993 11L 218.303 11L 210.581 18.436L 210.581 5.02L 209.281 5.02L 209.281 24L 210.581 24L 210.581 20.1L 213.649 17.11L 218.615 24ZM 236.885 22.102C 236.261 22.726 235.559 23.064 234.623 23.064C 233.141 23.064 232.335 22.206 232.335 20.568L 232.335 12.118L 237.223 12.118L 237.223 11L 232.335 11L 232.335 7.386L 231.035 7.75L 231.035 11L 228.435 11L 228.435 12.118L 231.035 12.118L 231.035 20.75C 231.035 23.168 232.387 24.26 234.415 24.26C 235.663 24.26 236.677 23.818 237.353 23.168L 236.885 22.102ZM 245.334 10.74C 241.486 10.74 239.146 13.288 239.146 17.5C 239.146 21.712 241.486 24.26 245.334 24.26C 249.182 24.26 251.522 21.712 251.522 17.5C 251.522 13.288 249.182 10.74 245.334 10.74ZM 245.334 11.858C 248.376 11.858 250.222 13.99 250.222 17.5C 250.222 21.01 248.376 23.142 245.334 23.142C 242.292 23.142 240.446 21.01 240.446 17.5C 240.446 13.99 242.292 11.858 245.334 11.858ZM 120.912 42L 119.508 42L 115.686 51.724L 114.984 53.596L 114.334 51.854L 110.356 42L 108.874 42L 113.008 51.776L 114.36 55L 113.528 57.08C 112.774 58.978 111.916 59.446 110.798 59.446C 110.07 59.446 109.316 59.238 108.822 58.51L 108.328 59.628C 108.9 60.278 109.68 60.59 110.798 60.59C 112.566 60.59 113.658 59.81 114.646 57.392L 120.912 42ZM 128.918 41.74C 125.07 41.74 122.73 44.288 122.73 48.5C 122.73 52.712 125.07 55.26 128.918 55.26C 132.766 55.26 135.106 52.712 135.106 48.5C 135.106 44.288 132.766 41.74 128.918 41.74ZM 128.918 42.858C 131.96 42.858 133.806 44.99 133.806 48.5C 133.806 52.01 131.96 54.142 128.918 54.142C 125.876 54.142 124.03 52.01 124.03 48.5C 124.03 44.99 125.876 42.858 128.918 42.858ZM 148.388 42L 148.388 49.462C 148.388 51.984 146.594 54.116 143.656 54.116C 141.42 54.116 140.068 52.972 140.068 50.268L 140.068 42L 138.768 42L 138.768 50.58C 138.768 53.778 140.718 55.26 143.448 55.26C 145.788 55.26 147.634 54.246 148.466 52.4L 148.518 55L 149.688 55L 149.688 42L 148.388 42ZM 159.77 41.74C 157.716 41.74 156.234 42.858 155.558 44.678L 155.402 42L 154.31 42L 154.31 55L 155.61 55L 155.61 47.72C 155.61 44.912 157.456 42.936 159.406 42.936C 160.212 42.936 160.706 43.118 161.07 43.404L 161.408 42.182C 161.018 41.896 160.446 41.74 159.77 41.74ZM 173.353 39.946C 173.353 38.074 174.341 37.06 176.031 37.06C 176.733 37.06 177.227 37.242 177.669 37.632L 178.033 36.592C 177.591 36.15 176.889 35.89 175.927 35.89C 173.405 35.89 172.053 37.45 172.053 39.816L 172.053 42L 169.453 42L 169.453 43.118L 172.053 43.118L 172.053 55L 173.353 55L 173.353 43.118L 177.929 43.118L 177.929 42L 173.353 42L 173.353 39.946ZM 185.973 41.74C 183.919 41.74 182.437 42.858 181.761 44.678L 181.605 42L 180.513 42L 180.513 55L 181.813 55L 181.813 47.72C 181.813 44.912 183.659 42.936 185.609 42.936C 186.415 42.936 186.909 43.118 187.273 43.404L 187.611 42.182C 187.221 41.896 186.649 41.74 185.973 41.74ZM 190.989 39.478C 191.639 39.478 192.081 39.036 192.081 38.386C 192.081 37.736 191.639 37.294 190.989 37.294C 190.339 37.294 189.897 37.736 189.897 38.386C 189.897 39.036 190.339 39.478 190.989 39.478ZM 191.639 42L 190.339 42L 190.339 55L 191.639 55L 191.639 42ZM 207.097 48.188C 207.097 44.392 205.043 41.74 201.429 41.74C 197.633 41.74 195.449 44.288 195.449 48.5C 195.449 52.712 197.737 55.26 201.585 55.26C 204.185 55.26 205.953 54.142 206.915 52.296L 205.823 51.724C 205.173 53.258 203.613 54.116 201.585 54.116C 198.699 54.116 196.931 52.218 196.749 49.046L 207.045 49.046C 207.071 48.838 207.097 48.526 207.097 48.188ZM 201.429 42.884C 204.133 42.884 205.693 44.782 205.875 47.876L 196.749 47.876C 196.931 44.73 198.621 42.884 201.429 42.884ZM 216.888 41.74C 214.73 41.74 212.884 42.728 212.052 44.6L 211.974 42L 210.804 42L 210.804 55L 212.104 55L 212.104 47.668C 212.104 44.626 214.314 42.884 216.758 42.884C 218.994 42.884 220.554 44.132 220.554 46.992L 220.554 55L 221.854 55L 221.854 46.576C 221.854 43.378 219.774 41.74 216.888 41.74ZM 236.249 36.02L 236.249 44.782C 235.469 42.91 233.727 41.74 231.465 41.74C 227.799 41.74 225.511 44.262 225.511 48.5C 225.511 52.738 227.799 55.26 231.465 55.26C 233.805 55.26 235.573 54.038 236.301 52.088L 236.379 55L 237.549 55L 237.549 36.02L 236.249 36.02ZM 231.621 54.116C 228.605 54.116 226.811 51.984 226.811 48.5C 226.811 45.016 228.605 42.884 231.621 42.884C 234.429 42.884 236.249 44.99 236.249 48.37L 236.249 48.63C 236.249 52.036 234.403 54.116 231.621 54.116ZM 246.425 55.26C 249.649 55.26 251.651 53.804 251.651 51.594C 251.651 49.592 250.403 48.578 246.815 47.98C 243.799 47.46 242.811 46.732 242.811 45.328C 242.811 44.002 244.371 42.884 246.503 42.884C 248.505 42.884 249.857 43.664 250.377 45.562L 251.495 44.912C 250.871 42.728 249.207 41.74 246.503 41.74C 243.513 41.74 241.511 43.404 241.511 45.458C 241.511 47.512 242.811 48.5 246.477 49.15C 249.441 49.67 250.351 50.398 250.351 51.646C 250.351 53.102 248.999 54.116 246.581 54.116C 244.345 54.116 242.603 53.284 242.057 51.516L 240.991 52.218C 241.745 54.272 243.903 55.26 246.425 55.26Z"/>
<path id="path8_fill" d="M 47.9202 7.9C 49.8002 7.9 51.4002 8.18 52.7202 8.74C 54.0602 9.3 55.3002 10.21 56.4402 11.47L 53.5302 14.83C 52.8702 13.83 52.0902 13.1 51.1902 12.64C 50.3102 12.16 49.2502 11.92 48.0102 11.92C 46.9702 11.92 46.1702 12.1 45.6102 12.46C 45.0502 12.82 44.7702 13.3 44.7702 13.9C 44.7702 14.4 45.0602 14.81 45.6402 15.13C 46.2402 15.43 47.2502 15.71 48.6702 15.97C 51.4102 16.47 53.3602 17.2 54.5202 18.16C 55.7002 19.12 56.2902 20.47 56.2902 22.21C 56.2902 23.47 55.9302 24.56 55.2102 25.48C 54.4902 26.4 53.4902 27.1 52.2102 27.58C 50.9502 28.06 49.5202 28.3 47.9202 28.3C 45.6802 28.3 43.8602 28.03 42.4602 27.49C 41.0602 26.93 39.8502 26.08 38.8302 24.94L 41.4702 21.34C 42.2502 22.42 43.1302 23.18 44.1102 23.62C 45.0902 24.06 46.2702 24.28 47.6502 24.28C 48.7502 24.28 49.5702 24.13 50.1102 23.83C 50.6702 23.51 50.9502 23.06 50.9502 22.48C 50.9502 22.02 50.6502 21.65 50.0502 21.37C 49.4702 21.07 48.4902 20.79 47.1102 20.53C 45.4102 20.19 44.0002 19.79 42.8802 19.33C 41.7802 18.85 40.9202 18.21 40.3002 17.41C 39.7002 16.61 39.4002 15.59 39.4002 14.35C 39.4002 13.11 39.7302 12 40.3902 11.02C 41.0702 10.04 42.0502 9.28 43.3302 8.74C 44.6302 8.18 46.1602 7.9 47.9202 7.9ZM 70.0169 27.16C 69.5169 27.5 68.8769 27.78 68.0969 28C 67.3369 28.2 66.5669 28.3 65.7869 28.3C 64.0069 28.3 62.6469 27.92 61.7069 27.16C 60.7669 26.4 60.2869 25.18 60.2669 23.5L 60.2669 16.63L 57.6869 16.63L 57.6869 13L 60.2669 13L 60.2669 9.64L 65.3669 8.23L 65.3669 13L 69.8669 13L 69.8669 16.63L 65.3669 16.63L 65.3669 22.66C 65.3669 24 66.0269 24.67 67.3469 24.67C 68.1669 24.67 68.8869 24.45 69.5069 24.01L 70.0169 27.16ZM 86.774 20.29C 86.774 20.97 86.724 21.53 86.624 21.97L 76.394 21.97C 76.554 22.91 76.894 23.6 77.414 24.04C 77.954 24.48 78.664 24.7 79.544 24.7C 80.284 24.7 80.884 24.56 81.344 24.28C 81.824 24 82.144 23.59 82.304 23.05L 86.444 24.37C 86.024 25.65 85.204 26.63 83.984 27.31C 82.784 27.97 81.304 28.3 79.544 28.3C 76.924 28.3 74.914 27.62 73.514 26.26C 72.134 24.9 71.444 22.98 71.444 20.5C 71.444 18.02 72.124 16.1 73.484 14.74C 74.844 13.38 76.774 12.7 79.274 12.7C 81.694 12.7 83.544 13.37 84.824 14.71C 86.124 16.03 86.774 17.89 86.774 20.29ZM 79.244 16.27C 77.624 16.27 76.664 17.25 76.364 19.21L 82.004 19.21C 81.764 17.25 80.844 16.27 79.244 16.27ZM 99.2549 12.7C 101.215 12.7 102.735 13.38 103.815 14.74C 104.895 16.1 105.435 18 105.435 20.44C 105.435 22.92 104.885 24.85 103.785 26.23C 102.685 27.61 101.175 28.3 99.2549 28.3C 98.1949 28.3 97.2749 28.05 96.4949 27.55C 95.7349 27.05 95.1449 26.36 94.7249 25.48L 94.7249 34.3L 89.6249 34.3L 89.6249 13L 94.0949 13L 94.2449 16.18C 94.6649 15.12 95.3049 14.28 96.1649 13.66C 97.0449 13.02 98.0749 12.7 99.2549 12.7ZM 97.4849 24.55C 98.3849 24.55 99.0749 24.22 99.5549 23.56C 100.055 22.9 100.305 21.88 100.305 20.5C 100.305 19.12 100.055 18.1 99.5549 17.44C 99.0749 16.78 98.3849 16.45 97.4849 16.45C 96.6249 16.45 95.9449 16.78 95.4449 17.44C 94.9649 18.1 94.7249 19.07 94.7249 20.35L 94.7249 20.65C 94.7249 21.89 94.9649 22.85 95.4449 23.53C 95.9249 24.21 96.6049 24.55 97.4849 24.55ZM 124.187 7.9C 126.407 7.9 128.137 8.4 129.377 9.4C 130.617 10.4 131.237 11.75 131.237 13.45C 131.237 14.47 131.017 15.33 130.577 16.03C 130.157 16.71 129.647 17.21 129.047 17.53C 128.467 17.85 127.957 18.01 127.517 18.01L 127.517 18.1C 128.077 18.1 128.667 18.25 129.287 18.55C 129.927 18.83 130.477 19.31 130.937 19.99C 131.397 20.65 131.627 21.52 131.627 22.6C 131.627 23.72 131.297 24.71 130.637 25.57C 129.977 26.43 129.067 27.1 127.907 27.58C 126.747 28.06 125.427 28.3 123.947 28.3C 121.827 28.3 120.127 27.91 118.847 27.13C 117.587 26.35 116.687 25.1 116.147 23.38L 120.827 21.37C 120.927 22.41 121.227 23.16 121.727 23.62C 122.247 24.08 122.967 24.31 123.887 24.31C 124.747 24.31 125.417 24.11 125.897 23.71C 126.397 23.29 126.647 22.71 126.647 21.97C 126.647 21.19 126.407 20.63 125.927 20.29C 125.467 19.95 124.727 19.78 123.707 19.78L 122.597 19.78L 122.597 16.51L 123.467 16.51C 124.427 16.51 125.127 16.32 125.567 15.94C 126.007 15.54 126.227 14.94 126.227 14.14C 126.227 13.42 126.017 12.87 125.597 12.49C 125.197 12.09 124.627 11.89 123.887 11.89C 122.207 11.89 121.287 12.78 121.127 14.56L 116.597 13.03C 116.917 11.27 117.747 9.98 119.087 9.16C 120.447 8.32 122.147 7.9 124.187 7.9Z"/>
<path id="path9_fill" d="M 0 0L 0 29.64L 7.36842 26.1733L 12.1579 38L 19.5263 34.2L 14.1842 22.9667L 21 19.76L 0 0Z"/>
<path id="path10_fill" d="M 13.0079 13.52L 9.84789 13.52L 9.84789 19L 8.24789 19L 8.24789 5.8L 13.2479 5.8C 14.5946 5.8 15.6746 6.14667 16.4879 6.84C 17.3012 7.53333 17.7079 8.47333 17.7079 9.66C 17.7079 10.5933 17.4479 11.38 16.9279 12.02C 16.4079 12.66 15.6946 13.1 14.7879 13.34L 18.5079 19L 16.6079 19L 13.0079 13.52ZM 9.84789 12.02L 13.2279 12.02C 15.0946 12.02 16.0279 11.2333 16.0279 9.66C 16.0279 8.08667 15.0946 7.3 13.2279 7.3L 9.84789 7.3L 9.84789 12.02ZM 29.4487 17.84C 29.7153 17.84 29.982 17.8067 30.2487 17.74L 30.1487 19C 29.7753 19.1333 29.3753 19.2 28.9487 19.2C 28.4287 19.2 28.0153 19.0867 27.7087 18.86C 27.4153 18.6333 27.2287 18.2533 27.1487 17.72C 26.842 18.1867 26.3887 18.5533 25.7887 18.82C 25.202 19.0733 24.582 19.2 23.9287 19.2C 22.942 19.2 22.1287 18.9733 21.4887 18.52C 20.8487 18.0533 20.5287 17.3867 20.5287 16.52C 20.5287 15.76 20.862 15.1067 21.5287 14.56C 22.1953 14 23.162 13.6133 24.4287 13.4L 27.0887 12.96L 27.0887 12.4C 27.0887 11.7333 26.882 11.2 26.4687 10.8C 26.0553 10.4 25.482 10.2 24.7487 10.2C 24.082 10.2 23.502 10.36 23.0087 10.68C 22.5287 11 22.1553 11.4733 21.8887 12.1L 20.7087 11.24C 20.9753 10.4933 21.4687 9.9 22.1887 9.46C 22.922 9.02 23.7753 8.8 24.7487 8.8C 25.9353 8.8 26.8887 9.08667 27.6087 9.66C 28.3287 10.2333 28.6887 11.08 28.6887 12.2L 28.6887 17.12C 28.6887 17.36 28.7487 17.54 28.8687 17.66C 28.9887 17.78 29.182 17.84 29.4487 17.84ZM 24.0087 17.8C 24.8487 17.8 25.5687 17.6 26.1687 17.2C 26.782 16.8 27.0887 16.28 27.0887 15.64L 27.0887 14.26L 24.8487 14.68C 23.9553 14.84 23.2887 15.0733 22.8487 15.38C 22.4087 15.6733 22.1887 16.0533 22.1887 16.52C 22.1887 16.9333 22.3487 17.2533 22.6687 17.48C 22.9887 17.6933 23.4353 17.8 24.0087 17.8ZM 38.3062 18.3C 37.6395 18.9 36.7795 19.2 35.7262 19.2C 34.9128 19.2 34.2462 18.98 33.7262 18.54C 33.2195 18.1 32.9595 17.4267 32.9462 16.52L 32.9462 10.38L 30.9462 10.38L 30.9462 9L 32.9462 9L 32.9462 6.6L 34.5462 6.16L 34.5462 9L 38.2462 9L 38.2462 10.38L 34.5462 10.38L 34.5462 16.24C 34.5462 16.72 34.6795 17.0867 34.9462 17.34C 35.2262 17.58 35.5928 17.7 36.0462 17.7C 36.6862 17.7 37.2528 17.4533 37.7462 16.96L 38.3062 18.3ZM 48.7651 17.84C 49.0317 17.84 49.2984 17.8067 49.5651 17.74L 49.4651 19C 49.0917 19.1333 48.6917 19.2 48.2651 19.2C 47.7451 19.2 47.3317 19.0867 47.0251 18.86C 46.7317 18.6333 46.5451 18.2533 46.4651 17.72C 46.1584 18.1867 45.7051 18.5533 45.1051 18.82C 44.5184 19.0733 43.8984 19.2 43.2451 19.2C 42.2584 19.2 41.4451 18.9733 40.8051 18.52C 40.1651 18.0533 39.8451 17.3867 39.8451 16.52C 39.8451 15.76 40.1784 15.1067 40.8451 14.56C 41.5117 14 42.4784 13.6133 43.7451 13.4L 46.4051 12.96L 46.4051 12.4C 46.4051 11.7333 46.1984 11.2 45.7851 10.8C 45.3717 10.4 44.7984 10.2 44.0651 10.2C 43.3984 10.2 42.8184 10.36 42.3251 10.68C 41.8451 11 41.4717 11.4733 41.2051 12.1L 40.0251 11.24C 40.2917 10.4933 40.7851 9.9 41.5051 9.46C 42.2384 9.02 43.0917 8.8 44.0651 8.8C 45.2517 8.8 46.2051 9.08667 46.9251 9.66C 47.6451 10.2333 48.0051 11.08 48.0051 12.2L 48.0051 17.12C 48.0051 17.36 48.0651 17.54 48.1851 17.66C 48.3051 17.78 48.4984 17.84 48.7651 17.84ZM 43.3251 17.8C 44.1651 17.8 44.8851 17.6 45.4851 17.2C 46.0984 16.8 46.4051 16.28 46.4051 15.64L 46.4051 14.26L 44.1651 14.68C 43.2717 14.84 42.6051 15.0733 42.1651 15.38C 41.7251 15.6733 41.5051 16.0533 41.5051 16.52C 41.5051 16.9333 41.6651 17.2533 41.9851 17.48C 42.3051 17.6933 42.7517 17.8 43.3251 17.8ZM 57.6226 18.3C 56.9559 18.9 56.0959 19.2 55.0426 19.2C 54.2292 19.2 53.5626 18.98 53.0426 18.54C 52.5359 18.1 52.2759 17.4267 52.2626 16.52L 52.2626 10.38L 50.2626 10.38L 50.2626 9L 52.2626 9L 52.2626 6.6L 53.8626 6.16L 53.8626 9L 57.5626 9L 57.5626 10.38L 53.8626 10.38L 53.8626 16.24C 53.8626 16.72 53.9959 17.0867 54.2626 17.34C 54.5426 17.58 54.9092 17.7 55.3626 17.7C 56.0026 17.7 56.5692 17.4533 57.0626 16.96L 57.6226 18.3ZM 68.0815 17.84C 68.3482 17.84 68.6148 17.8067 68.8815 17.74L 68.7815 19C 68.4082 19.1333 68.0082 19.2 67.5815 19.2C 67.0615 19.2 66.6482 19.0867 66.3415 18.86C 66.0482 18.6333 65.8615 18.2533 65.7815 17.72C 65.4748 18.1867 65.0215 18.5533 64.4215 18.82C 63.8348 19.0733 63.2148 19.2 62.5615 19.2C 61.5748 19.2 60.7615 18.9733 60.1215 18.52C 59.4815 18.0533 59.1615 17.3867 59.1615 16.52C 59.1615 15.76 59.4948 15.1067 60.1615 14.56C 60.8282 14 61.7948 13.6133 63.0615 13.4L 65.7215 12.96L 65.7215 12.4C 65.7215 11.7333 65.5148 11.2 65.1015 10.8C 64.6882 10.4 64.1148 10.2 63.3815 10.2C 62.7148 10.2 62.1348 10.36 61.6415 10.68C 61.1615 11 60.7882 11.4733 60.5215 12.1L 59.3415 11.24C 59.6082 10.4933 60.1015 9.9 60.8215 9.46C 61.5548 9.02 62.4082 8.8 63.3815 8.8C 64.5682 8.8 65.5215 9.08667 66.2415 9.66C 66.9615 10.2333 67.3215 11.08 67.3215 12.2L 67.3215 17.12C 67.3215 17.36 67.3815 17.54 67.5015 17.66C 67.6215 17.78 67.8148 17.84 68.0815 17.84ZM 62.6415 17.8C 63.4815 17.8 64.2015 17.6 64.8015 17.2C 65.4148 16.8 65.7215 16.28 65.7215 15.64L 65.7215 14.26L 63.4815 14.68C 62.5882 14.84 61.9215 15.0733 61.4815 15.38C 61.0415 15.6733 60.8215 16.0533 60.8215 16.52C 60.8215 16.9333 60.9815 17.2533 61.3015 17.48C 61.6215 17.6933 62.0682 17.8 62.6415 17.8ZM 76.939 18.3C 76.2723 18.9 75.4123 19.2 74.359 19.2C 73.5457 19.2 72.879 18.98 72.359 18.54C 71.8523 18.1 71.5923 17.4267 71.579 16.52L 71.579 10.38L 69.579 10.38L 69.579 9L 71.579 9L 71.579 6.6L 73.179 6.16L 73.179 9L 76.879 9L 76.879 10.38L 73.179 10.38L 73.179 16.24C 73.179 16.72 73.3123 17.0867 73.579 17.34C 73.859 17.58 74.2257 17.7 74.679 17.7C 75.319 17.7 75.8857 17.4533 76.379 16.96L 76.939 18.3ZM 92.5543 14.6L 85.9543 14.6L 85.9543 12.94L 92.5543 12.94L 92.5543 14.6ZM 113.966 15.62C 113.553 16.74 112.873 17.62 111.926 18.26C 110.979 18.8867 109.886 19.2 108.646 19.2C 107.406 19.2 106.326 18.9267 105.406 18.38C 104.486 17.82 103.773 17.0333 103.266 16.02C 102.773 14.9933 102.526 13.7867 102.526 12.4C 102.526 11.0267 102.773 9.82667 103.266 8.8C 103.773 7.77333 104.486 6.98667 105.406 6.44C 106.326 5.88 107.393 5.6 108.606 5.6C 109.873 5.6 110.933 5.86 111.786 6.38C 112.653 6.9 113.299 7.66667 113.726 8.68L 112.146 9.42C 111.853 8.64667 111.426 8.06667 110.866 7.68C 110.306 7.29333 109.593 7.1 108.726 7.1C 107.819 7.1 107.026 7.31333 106.346 7.74C 105.666 8.15333 105.139 8.76 104.766 9.56C 104.393 10.36 104.206 11.3067 104.206 12.4C 104.206 14.0533 104.599 15.3533 105.386 16.3C 106.186 17.2333 107.273 17.7 108.646 17.7C 109.539 17.7 110.313 17.4733 110.966 17.02C 111.619 16.5667 112.086 15.9 112.366 15.02L 113.966 15.62ZM 121.597 8.8C 122.73 8.8 123.664 9.12667 124.397 9.78C 125.13 10.4333 125.497 11.3733 125.497 12.6L 125.497 19L 123.897 19L 123.897 13.16C 123.897 12.12 123.67 11.3667 123.217 10.9C 122.777 10.4333 122.184 10.2 121.437 10.2C 120.917 10.2 120.417 10.32 119.937 10.56C 119.47 10.8 119.084 11.1867 118.777 11.72C 118.484 12.24 118.337 12.9 118.337 13.7L 118.337 19L 116.737 19L 116.737 4.4L 118.337 4.4L 118.337 10.5C 118.67 9.92667 119.117 9.5 119.677 9.22C 120.25 8.94 120.89 8.8 121.597 8.8ZM 137.7 13.48C 137.7 13.8533 137.673 14.2267 137.62 14.6L 130.08 14.6C 130.173 15.6133 130.506 16.4 131.08 16.96C 131.666 17.52 132.42 17.8 133.34 17.8C 134.073 17.8 134.68 17.6733 135.16 17.42C 135.653 17.1667 135.986 16.8 136.16 16.32L 137.5 17.02C 137.1 17.7267 136.566 18.2667 135.9 18.64C 135.233 19.0133 134.38 19.2 133.34 19.2C 131.833 19.2 130.646 18.74 129.78 17.82C 128.926 16.9 128.5 15.6267 128.5 14C 128.5 12.3733 128.906 11.1 129.72 10.18C 130.546 9.26 131.713 8.8 133.22 8.8C 134.153 8.8 134.96 9.00667 135.64 9.42C 136.32 9.83333 136.833 10.3933 137.18 11.1C 137.526 11.8067 137.7 12.6 137.7 13.48ZM 133.22 10.2C 132.34 10.2 131.626 10.46 131.08 10.98C 130.546 11.5 130.22 12.2333 130.1 13.18L 136.16 13.18C 136.053 12.2467 135.746 11.52 135.24 11C 134.733 10.4667 134.06 10.2 133.22 10.2ZM 145.461 8.8C 145.941 8.8 146.308 8.86667 146.561 9L 146.241 10.56C 145.921 10.3867 145.501 10.3 144.981 10.3C 144.554 10.3 144.134 10.4267 143.721 10.68C 143.321 10.92 142.988 11.2933 142.721 11.8C 142.468 12.2933 142.341 12.8933 142.341 13.6L 142.341 19L 140.741 19L 140.741 9L 142.041 9L 142.261 10.64C 142.821 9.41333 143.888 8.8 145.461 8.8ZM 153.625 8.8C 154.105 8.8 154.472 8.86667 154.725 9L 154.405 10.56C 154.085 10.3867 153.665 10.3 153.145 10.3C 152.718 10.3 152.298 10.4267 151.885 10.68C 151.485 10.92 151.152 11.2933 150.885 11.8C 150.632 12.2933 150.505 12.8933 150.505 13.6L 150.505 19L 148.905 19L 148.905 9L 150.205 9L 150.425 10.64C 150.985 9.41333 152.052 8.8 153.625 8.8ZM 160.869 20.68C 160.482 21.64 160.049 22.3133 159.569 22.7C 159.089 23.1 158.469 23.3 157.709 23.3C 157.202 23.3 156.776 23.2333 156.429 23.1C 156.096 22.9667 155.789 22.7533 155.509 22.46L 156.069 21.1C 156.456 21.6333 156.996 21.9 157.689 21.9C 158.076 21.9 158.416 21.78 158.709 21.54C 159.016 21.3133 159.282 20.8933 159.509 20.28L 160.029 18.98L 155.849 9L 157.669 9L 160.169 15.52L 160.789 17.3L 161.509 15.32L 163.849 9L 165.569 9L 160.869 20.68Z"/>
<path id="path11_fill" d="M 6.08789 20.87L 165.909 20.87L 165.909 21.87L 6.08789 21.87L 6.08789 20.87Z"/>
<path id="path12_fill" d="M 0 10C 0 4.47715 4.47715 0 10 0L 152 0C 157.523 0 162 4.47715 162 10L 162 18C 162 23.5228 157.523 28 152 28L 10 28C 4.47715 28 0 23.5228 0 18L 0 10Z"/>
<path id="path13_fill" d="M 24.0332 2.692C 24.2499 2.692 24.4319 2.77 24.5792 2.926C 24.7352 3.07333 24.8132 3.25533 24.8132 3.472C 24.8132 3.68867 24.7352 3.875 24.5792 4.031C 24.4319 4.17833 24.2499 4.252 24.0332 4.252C 23.8165 4.252 23.6302 4.17833 23.4742 4.031C 23.3269 3.875 23.2532 3.68867 23.2532 3.472C 23.2532 3.25533 23.3269 3.07333 23.4742 2.926C 23.6302 2.77 23.8165 2.692 24.0332 2.692ZM 24.5532 12.663C 24.5532 13.3997 24.3539 13.937 23.9552 14.275C 23.5652 14.6217 23.1059 14.795 22.5772 14.795C 22.3172 14.795 22.0745 14.756 21.8492 14.678C 21.6239 14.6 21.4332 14.496 21.2772 14.366L 21.4982 13.378C 21.8015 13.6467 22.1569 13.781 22.5642 13.781C 23.1969 13.781 23.5132 13.3737 23.5132 12.559L 23.5132 5.5L 24.5532 5.5L 24.5532 12.663ZM 27.4863 4.252C 27.2523 4.252 27.0617 4.18267 26.9143 4.044C 26.7757 3.89667 26.7063 3.706 26.7063 3.472C 26.7063 3.238 26.7757 3.05167 26.9143 2.913C 27.0617 2.76567 27.2523 2.692 27.4863 2.692C 27.7203 2.692 27.9067 2.76567 28.0453 2.913C 28.1927 3.05167 28.2663 3.238 28.2663 3.472C 28.2663 3.706 28.1927 3.89667 28.0453 4.044C 27.9067 4.18267 27.7203 4.252 27.4863 4.252ZM 28.0063 12L 26.9663 12L 26.9663 5.5L 28.0063 5.5L 28.0063 12ZM 34.0464 11.168C 34.6618 11.168 35.1428 11.3067 35.4894 11.584C 35.8361 11.8613 36.0094 12.2383 36.0094 12.715C 36.0094 13.131 35.8664 13.495 35.5804 13.807C 35.2944 14.1277 34.9044 14.3703 34.4104 14.535C 33.9251 14.7083 33.3878 14.795 32.7984 14.795C 31.8104 14.795 31.0651 14.6347 30.5624 14.314C 30.0598 14.002 29.8084 13.5903 29.8084 13.079C 29.8084 12.7843 29.9081 12.5243 30.1074 12.299C 30.3154 12.0737 30.5971 11.9133 30.9524 11.818C 30.6838 11.688 30.4671 11.5233 30.3024 11.324C 30.1464 11.1247 30.0684 10.8907 30.0684 10.622C 30.0684 10.3013 30.1551 10.037 30.3284 9.829C 30.5018 9.61233 30.7401 9.452 31.0434 9.348C 30.7314 9.15733 30.4931 8.91033 30.3284 8.607C 30.1724 8.295 30.0944 7.94833 30.0944 7.567C 30.0944 7.14233 30.2071 6.76533 30.4324 6.436C 30.6578 6.098 30.9741 5.838 31.3814 5.656C 31.7888 5.46533 32.2481 5.37 32.7594 5.37C 33.2448 5.37 33.6868 5.45667 34.0854 5.63C 34.3281 4.746 34.9391 4.304 35.9184 4.304L 36.1524 5.214C 35.3031 5.214 34.7874 5.45233 34.6054 5.929C 34.8654 6.12833 35.0648 6.36667 35.2034 6.644C 35.3508 6.92133 35.4244 7.229 35.4244 7.567C 35.4244 7.99167 35.3118 8.373 35.0864 8.711C 34.8611 9.04033 34.5448 9.30033 34.1374 9.491C 33.7301 9.673 33.2708 9.764 32.7594 9.764C 32.3781 9.764 32.0444 9.725 31.7584 9.647C 31.4984 9.70767 31.3121 9.803 31.1994 9.933C 31.0868 10.063 31.0304 10.2407 31.0304 10.466C 31.0304 10.6913 31.1084 10.8647 31.2644 10.986C 31.4204 11.1073 31.6284 11.168 31.8884 11.168L 34.0464 11.168ZM 32.7594 6.215C 32.3088 6.215 31.9318 6.34067 31.6284 6.592C 31.3251 6.84333 31.1734 7.16833 31.1734 7.567C 31.1734 7.96567 31.3251 8.29067 31.6284 8.542C 31.9318 8.79333 32.3088 8.919 32.7594 8.919C 33.2101 8.919 33.5871 8.79333 33.8904 8.542C 34.1938 8.29067 34.3454 7.96567 34.3454 7.567C 34.3454 7.16833 34.1938 6.84333 33.8904 6.592C 33.5871 6.34067 33.2101 6.215 32.7594 6.215ZM 32.9154 13.924C 33.5741 13.924 34.0941 13.8157 34.4754 13.599C 34.8568 13.391 35.0474 13.1353 35.0474 12.832C 35.0474 12.5807 34.9478 12.39 34.7484 12.26C 34.5578 12.13 34.2284 12.065 33.7604 12.065L 32.0184 12.065C 31.6198 12.065 31.3121 12.1343 31.0954 12.273C 30.8788 12.4203 30.7704 12.6197 30.7704 12.871C 30.7704 13.2003 30.9524 13.456 31.3164 13.638C 31.6804 13.8287 32.2134 13.924 32.9154 13.924ZM 38.0742 10.44C 38.3255 10.44 38.5292 10.518 38.6852 10.674C 38.8412 10.83 38.9192 11.0337 38.9192 11.285C 38.9192 11.5363 38.8412 11.74 38.6852 11.896C 38.5292 12.052 38.3255 12.13 38.0742 12.13C 37.8229 12.13 37.6192 12.052 37.4632 11.896C 37.3072 11.74 37.2292 11.5363 37.2292 11.285C 37.2292 11.0337 37.3072 10.83 37.4632 10.674C 37.6192 10.518 37.8229 10.44 38.0742 10.44ZM 43.2173 12.13C 42.5933 12.13 42.03 12.0087 41.5273 11.766C 41.0247 11.5147 40.6563 11.1463 40.4223 10.661L 41.2673 10.076C 41.4147 10.4573 41.6703 10.7433 42.0343 10.934C 42.3983 11.1247 42.8273 11.22 43.3213 11.22C 43.8327 11.22 44.2227 11.129 44.4913 10.947C 44.76 10.765 44.8943 10.5353 44.8943 10.258C 44.8943 10.0067 44.7687 9.80733 44.5173 9.66C 44.266 9.504 43.824 9.36967 43.1913 9.257C 42.5673 9.14433 42.0733 9.01 41.7093 8.854C 41.3453 8.68933 41.081 8.48567 40.9163 8.243C 40.7517 7.99167 40.6693 7.684 40.6693 7.32C 40.6693 6.96467 40.7733 6.63967 40.9813 6.345C 41.1893 6.05033 41.4883 5.81633 41.8783 5.643C 42.2683 5.461 42.719 5.37 43.2303 5.37C 43.9237 5.37 44.4783 5.5 44.8943 5.76C 45.319 6.01133 45.6223 6.40133 45.8043 6.93L 44.9203 7.45C 44.7817 7.034 44.5693 6.735 44.2833 6.553C 44.006 6.371 43.655 6.28 43.2303 6.28C 42.8057 6.28 42.446 6.37533 42.1513 6.566C 41.8567 6.75667 41.7093 6.97767 41.7093 7.229C 41.7093 7.515 41.835 7.736 42.0863 7.892C 42.3463 8.048 42.8057 8.18233 43.4643 8.295C 44.3657 8.44233 45.0027 8.66333 45.3753 8.958C 45.748 9.25267 45.9343 9.66867 45.9343 10.206C 45.9343 10.5787 45.8217 10.9123 45.5963 11.207C 45.3797 11.493 45.0633 11.7183 44.6473 11.883C 44.24 12.0477 43.7633 12.13 43.2173 12.13ZM 51.0218 5.37C 51.7585 5.37 52.3651 5.58233 52.8418 6.007C 53.3185 6.43167 53.5568 7.04267 53.5568 7.84L 53.5568 12L 52.5168 12L 52.5168 8.204C 52.5168 7.528 52.3695 7.03833 52.0748 6.735C 51.7888 6.43167 51.4031 6.28 50.9178 6.28C 50.5798 6.28 50.2548 6.358 49.9428 6.514C 49.6395 6.67 49.3881 6.92133 49.1888 7.268C 48.9981 7.606 48.9028 8.035 48.9028 8.555L 48.9028 12L 47.8628 12L 47.8628 2.51L 48.9028 2.51L 48.9028 6.475C 49.1195 6.10233 49.4098 5.825 49.7738 5.643C 50.1465 5.461 50.5625 5.37 51.0218 5.37ZM 56.0416 12.91L 55.0666 12.91L 59.0446 2.51L 60.0196 2.51L 56.0416 12.91ZM 66.4721 11.246C 66.6454 11.246 66.8188 11.2243 66.9921 11.181L 66.9271 12C 66.6844 12.0867 66.4244 12.13 66.1471 12.13C 65.8091 12.13 65.5404 12.0563 65.3411 11.909C 65.1504 11.7617 65.0291 11.5147 64.9771 11.168C 64.7778 11.4713 64.4831 11.7097 64.0931 11.883C 63.7118 12.0477 63.3088 12.13 62.8841 12.13C 62.2428 12.13 61.7141 11.9827 61.2981 11.688C 60.8821 11.3847 60.6741 10.9513 60.6741 10.388C 60.6741 9.894 60.8908 9.46933 61.3241 9.114C 61.7574 8.75 62.3858 8.49867 63.2091 8.36L 64.9381 8.074L 64.9381 7.71C 64.9381 7.27667 64.8038 6.93 64.5351 6.67C 64.2664 6.41 63.8938 6.28 63.4171 6.28C 62.9838 6.28 62.6068 6.384 62.2861 6.592C 61.9741 6.8 61.7314 7.10767 61.5581 7.515L 60.7911 6.956C 60.9644 6.47067 61.2851 6.085 61.7531 5.799C 62.2298 5.513 62.7844 5.37 63.4171 5.37C 64.1884 5.37 64.8081 5.55633 65.2761 5.929C 65.7441 6.30167 65.9781 6.852 65.9781 7.58L 65.9781 10.778C 65.9781 10.934 66.0171 11.051 66.0951 11.129C 66.1731 11.207 66.2988 11.246 66.4721 11.246ZM 62.9361 11.22C 63.4821 11.22 63.9501 11.09 64.3401 10.83C 64.7388 10.57 64.9381 10.232 64.9381 9.816L 64.9381 8.919L 63.4821 9.192C 62.9014 9.296 62.4681 9.44767 62.1821 9.647C 61.8961 9.83767 61.7531 10.0847 61.7531 10.388C 61.7531 10.6567 61.8571 10.8647 62.0651 11.012C 62.2731 11.1507 62.5634 11.22 62.9361 11.22ZM 71.5734 5.37C 71.8854 5.37 72.1237 5.41333 72.2884 5.5L 72.0804 6.514C 71.8724 6.40133 71.5994 6.345 71.2614 6.345C 70.9841 6.345 70.7111 6.42733 70.4424 6.592C 70.1824 6.748 69.9657 6.99067 69.7924 7.32C 69.6277 7.64067 69.5454 8.03067 69.5454 8.49L 69.5454 12L 68.5054 12L 68.5054 5.5L 69.3504 5.5L 69.4934 6.566C 69.8574 5.76867 70.5507 5.37 71.5734 5.37ZM 76.152 3.29C 76.9927 3.29 77.6774 3.48933 78.206 3.888C 78.7347 4.28667 78.999 4.824 78.999 5.5C 78.999 6.21933 78.7737 6.78267 78.323 7.19C 77.8724 7.58867 77.283 7.827 76.555 7.905L 76.555 9.296L 75.476 9.296L 75.476 7.346C 76.3514 7.216 76.9754 7.021 77.348 6.761C 77.7207 6.501 77.907 6.124 77.907 5.63C 77.907 5.20533 77.751 4.87167 77.439 4.629C 77.127 4.38633 76.672 4.265 76.074 4.265C 75.502 4.265 75.034 4.42533 74.67 4.746C 74.3147 5.058 74.1024 5.487 74.033 6.033L 73.11 5.5C 73.2574 4.824 73.5997 4.28667 74.137 3.888C 74.6744 3.48933 75.346 3.29 76.152 3.29ZM 75.996 10.44C 76.2474 10.44 76.451 10.518 76.607 10.674C 76.763 10.83 76.841 11.0337 76.841 11.285C 76.841 11.5363 76.763 11.74 76.607 11.896C 76.451 12.052 76.2474 12.13 75.996 12.13C 75.7447 12.13 75.541 12.052 75.385 11.896C 75.229 11.74 75.151 11.5363 75.151 11.285C 75.151 11.0337 75.229 10.83 75.385 10.674C 75.541 10.518 75.7447 10.44 75.996 10.44ZM 86.4349 8.412C 86.4349 8.65467 86.4176 8.89733 86.3829 9.14L 81.4819 9.14C 81.5426 9.79867 81.7593 10.31 82.1319 10.674C 82.5133 11.038 83.0029 11.22 83.6009 11.22C 84.0776 11.22 84.4719 11.1377 84.7839 10.973C 85.1046 10.8083 85.3213 10.57 85.4339 10.258L 86.3049 10.713C 86.0449 11.1723 85.6983 11.5233 85.2649 11.766C 84.8316 12.0087 84.2769 12.13 83.6009 12.13C 82.6216 12.13 81.8503 11.831 81.2869 11.233C 80.7323 10.635 80.4549 9.80733 80.4549 8.75C 80.4549 7.69267 80.7193 6.865 81.2479 6.267C 81.7853 5.669 82.5436 5.37 83.5229 5.37C 84.1296 5.37 84.6539 5.50433 85.0959 5.773C 85.5379 6.04167 85.8716 6.40567 86.0969 6.865C 86.3223 7.32433 86.4349 7.84 86.4349 8.412ZM 83.5229 6.28C 82.9509 6.28 82.4873 6.449 82.1319 6.787C 81.7853 7.125 81.5729 7.60167 81.4949 8.217L 85.4339 8.217C 85.3646 7.61033 85.1653 7.138 84.8359 6.8C 84.5066 6.45333 84.0689 6.28 83.5229 6.28ZM 94.2226 7.242L 88.0346 7.242L 88.0346 6.267L 94.2226 6.267L 94.2226 7.242ZM 94.2226 9.842L 88.0346 9.842L 88.0346 8.867L 94.2226 8.867L 94.2226 9.842ZM 101.531 3.42L 101.531 4.395C 100.465 5.513 99.6849 6.69167 99.1909 7.931C 98.7055 9.17033 98.4629 10.5267 98.4629 12L 97.3969 12C 97.3969 10.596 97.6482 9.24833 98.1509 7.957C 98.6622 6.657 99.4119 5.46967 100.4 4.395L 95.2129 4.395L 95.2129 3.42L 101.531 3.42ZM 105.769 12.13C 104.729 12.13 103.936 11.753 103.39 10.999C 102.844 10.245 102.571 9.14867 102.571 7.71C 102.571 6.27133 102.844 5.175 103.39 4.421C 103.936 3.667 104.729 3.29 105.769 3.29C 106.809 3.29 107.602 3.667 108.148 4.421C 108.694 5.175 108.967 6.27133 108.967 7.71C 108.967 9.14867 108.694 10.245 108.148 10.999C 107.602 11.753 106.809 12.13 105.769 12.13ZM 105.769 11.194C 106.454 11.194 106.978 10.8993 107.342 10.31C 107.706 9.712 107.888 8.84533 107.888 7.71C 107.888 6.57467 107.706 5.71233 107.342 5.123C 106.978 4.525 106.454 4.226 105.769 4.226C 105.084 4.226 104.56 4.525 104.196 5.123C 103.832 5.71233 103.65 6.57467 103.65 7.71C 103.65 8.84533 103.832 9.712 104.196 10.31C 104.56 10.8993 105.084 11.194 105.769 11.194ZM 113.856 6.501C 114.671 6.501 115.325 6.75667 115.819 7.268C 116.313 7.77067 116.56 8.438 116.56 9.27C 116.56 10.1627 116.3 10.8647 115.78 11.376C 115.26 11.8787 114.541 12.13 113.622 12.13C 112.851 12.13 112.222 11.9653 111.737 11.636C 111.26 11.298 110.892 10.8083 110.632 10.167L 111.646 9.634C 111.793 10.1367 112.01 10.518 112.296 10.778C 112.591 11.0293 113.02 11.155 113.583 11.155C 114.172 11.155 114.636 10.9947 114.974 10.674C 115.312 10.3533 115.481 9.91133 115.481 9.348C 115.481 8.74133 115.325 8.27767 115.013 7.957C 114.701 7.63633 114.25 7.476 113.661 7.476C 112.768 7.476 112.131 7.75333 111.75 8.308L 110.827 8.308L 111.347 3.42L 116.17 3.42L 116.17 4.395L 112.231 4.395L 111.893 7.099L 111.88 7.216L 111.893 7.216C 112.352 6.73933 113.007 6.501 113.856 6.501ZM 124.217 3.42L 124.217 4.395C 123.151 5.513 122.371 6.69167 121.877 7.931C 121.392 9.17033 121.149 10.5267 121.149 12L 120.083 12C 120.083 10.596 120.335 9.24833 120.837 7.957C 121.349 6.657 122.098 5.46967 123.086 4.395L 117.899 4.395L 117.899 3.42L 124.217 3.42ZM 128.417 3.303C 129.249 3.303 129.912 3.50667 130.406 3.914C 130.9 4.31267 131.147 4.85867 131.147 5.552C 131.147 5.994 131.038 6.384 130.822 6.722C 130.614 7.05133 130.319 7.30267 129.938 7.476L 129.938 7.489C 130.44 7.67967 130.83 7.96133 131.108 8.334C 131.394 8.70667 131.537 9.15733 131.537 9.686C 131.537 10.18 131.407 10.6133 131.147 10.986C 130.895 11.35 130.531 11.6317 130.055 11.831C 129.587 12.0303 129.041 12.13 128.417 12.13C 127.793 12.13 127.247 12.0303 126.779 11.831C 126.311 11.6317 125.947 11.35 125.687 10.986C 125.427 10.6133 125.297 10.18 125.297 9.686C 125.297 9.166 125.435 8.71533 125.713 8.334C 125.999 7.95267 126.397 7.671 126.909 7.489L 126.909 7.476C 126.527 7.31133 126.228 7.06 126.012 6.722C 125.795 6.384 125.687 5.994 125.687 5.552C 125.687 4.85867 125.934 4.31267 126.428 3.914C 126.922 3.50667 127.585 3.303 128.417 3.303ZM 128.417 4.278C 127.905 4.278 127.502 4.39933 127.208 4.642C 126.913 4.88467 126.766 5.22267 126.766 5.656C 126.766 6.072 126.917 6.40567 127.221 6.657C 127.524 6.89967 127.923 7.021 128.417 7.021C 128.911 7.021 129.309 6.89967 129.613 6.657C 129.916 6.40567 130.068 6.072 130.068 5.656C 130.068 5.22267 129.92 4.88467 129.626 4.642C 129.331 4.39933 128.928 4.278 128.417 4.278ZM 128.417 11.155C 129.049 11.155 129.548 11.0163 129.912 10.739C 130.276 10.453 130.458 10.0673 130.458 9.582C 130.458 9.088 130.271 8.70233 129.899 8.425C 129.535 8.139 129.041 7.996 128.417 7.996C 127.801 7.996 127.307 8.139 126.935 8.425C 126.562 8.711 126.376 9.09667 126.376 9.582C 126.376 10.0673 126.558 10.453 126.922 10.739C 127.294 11.0163 127.793 11.155 128.417 11.155ZM 135.952 3.29C 136.516 3.29 136.997 3.394 137.395 3.602C 137.803 3.80133 138.11 4.07 138.318 4.408C 138.526 4.746 138.63 5.11867 138.63 5.526C 138.63 5.92467 138.557 6.28433 138.409 6.605C 138.262 6.92567 138.063 7.18133 137.811 7.372C 137.569 7.554 137.304 7.645 137.018 7.645L 137.018 7.671C 137.564 7.671 138.002 7.87033 138.331 8.269C 138.661 8.659 138.825 9.13567 138.825 9.699C 138.825 10.1583 138.7 10.5743 138.448 10.947C 138.206 11.3197 137.855 11.61 137.395 11.818C 136.936 12.026 136.407 12.13 135.809 12.13C 134.379 12.13 133.391 11.4453 132.845 10.076L 133.807 9.569C 133.981 10.0977 134.219 10.4963 134.522 10.765C 134.834 11.025 135.289 11.155 135.887 11.155C 136.468 11.155 136.923 11.012 137.252 10.726C 137.582 10.4313 137.746 10.0543 137.746 9.595C 137.746 9.06633 137.586 8.698 137.265 8.49C 136.953 8.27333 136.455 8.165 135.77 8.165L 135.432 8.165L 135.432 7.19L 135.77 7.19C 136.958 7.19 137.551 6.70467 137.551 5.734C 137.551 5.24867 137.413 4.88467 137.135 4.642C 136.867 4.39067 136.477 4.265 135.965 4.265C 135.463 4.265 135.06 4.382 134.756 4.616C 134.462 4.84133 134.258 5.162 134.145 5.578L 133.17 5.123C 133.378 4.55967 133.729 4.11333 134.223 3.784C 134.726 3.45467 135.302 3.29 135.952 3.29ZM 147.068 9.751L 145.547 9.751L 145.547 12L 144.507 12L 144.507 9.751L 140.321 9.751L 140.321 8.984L 144.234 3.42L 145.547 3.42L 145.547 8.854L 147.068 8.854L 147.068 9.751ZM 141.426 8.854L 144.507 8.854L 144.507 5.643L 144.559 4.265L 144.533 4.265C 144.316 4.707 144.03 5.18367 143.675 5.695L 141.426 8.854Z"/>
<path id="path14_fill" d="M 10.6207 0L 19.8184 20.4438L 1.4229 20.4438L 10.6207 0Z"/>
<path id="path15_fill" d="M 0 10C 0 4.47715 4.47715 0 10 0L 85 0C 90.5229 0 95 4.47715 95 10L 95 18C 95 23.5228 90.5229 28 85 28L 10 28C 4.47715 28 0 23.5228 0 18L 0 10Z"/>
<path id="path16_fill" d="M 7.436 4.395L 4.446 4.395L 4.446 12L 3.406 12L 3.406 4.395L 0.416 4.395L 0.416 3.42L 7.436 3.42L 7.436 4.395ZM 11.9598 5.37C 12.6965 5.37 13.3031 5.58233 13.7798 6.007C 14.2565 6.43167 14.4948 7.04267 14.4948 7.84L 14.4948 12L 13.4548 12L 13.4548 8.204C 13.4548 7.528 13.3075 7.03833 13.0128 6.735C 12.7268 6.43167 12.3411 6.28 11.8558 6.28C 11.5178 6.28 11.1928 6.358 10.8808 6.514C 10.5775 6.67 10.3261 6.92133 10.1268 7.268C 9.93613 7.606 9.8408 8.035 9.8408 8.555L 9.8408 12L 8.8008 12L 8.8008 2.51L 9.8408 2.51L 9.8408 6.475C 10.0575 6.10233 10.3478 5.825 10.7118 5.643C 11.0845 5.461 11.5005 5.37 11.9598 5.37ZM 22.1796 11.246C 22.353 11.246 22.5263 11.2243 22.6996 11.181L 22.6346 12C 22.392 12.0867 22.132 12.13 21.8546 12.13C 21.5166 12.13 21.248 12.0563 21.0486 11.909C 20.858 11.7617 20.7366 11.5147 20.6846 11.168C 20.4853 11.4713 20.1906 11.7097 19.8006 11.883C 19.4193 12.0477 19.0163 12.13 18.5916 12.13C 17.9503 12.13 17.4216 11.9827 17.0056 11.688C 16.5896 11.3847 16.3816 10.9513 16.3816 10.388C 16.3816 9.894 16.5983 9.46933 17.0316 9.114C 17.465 8.75 18.0933 8.49867 18.9166 8.36L 20.6456 8.074L 20.6456 7.71C 20.6456 7.27667 20.5113 6.93 20.2426 6.67C 19.974 6.41 19.6013 6.28 19.1246 6.28C 18.6913 6.28 18.3143 6.384 17.9936 6.592C 17.6816 6.8 17.439 7.10767 17.2656 7.515L 16.4986 6.956C 16.672 6.47067 16.9926 6.085 17.4606 5.799C 17.9373 5.513 18.492 5.37 19.1246 5.37C 19.896 5.37 20.5156 5.55633 20.9836 5.929C 21.4516 6.30167 21.6856 6.852 21.6856 7.58L 21.6856 10.778C 21.6856 10.934 21.7246 11.051 21.8026 11.129C 21.8806 11.207 22.0063 11.246 22.1796 11.246ZM 18.6436 11.22C 19.1896 11.22 19.6576 11.09 20.0476 10.83C 20.4463 10.57 20.6456 10.232 20.6456 9.816L 20.6456 8.919L 19.1896 9.192C 18.609 9.296 18.1756 9.44767 17.8896 9.647C 17.6036 9.83767 17.4606 10.0847 17.4606 10.388C 17.4606 10.6567 17.5646 10.8647 17.7726 11.012C 17.9806 11.1507 18.271 11.22 18.6436 11.22ZM 27.937 11.545C 27.5037 11.935 26.9447 12.13 26.26 12.13C 25.7313 12.13 25.298 11.987 24.96 11.701C 24.6307 11.415 24.4617 10.9773 24.453 10.388L 24.453 6.397L 23.153 6.397L 23.153 5.5L 24.453 5.5L 24.453 3.94L 25.493 3.654L 25.493 5.5L 27.898 5.5L 27.898 6.397L 25.493 6.397L 25.493 10.206C 25.493 10.518 25.5797 10.7563 25.753 10.921C 25.935 11.077 26.1733 11.155 26.468 11.155C 26.884 11.155 27.2523 10.9947 27.573 10.674L 27.937 11.545ZM 29.8993 2.9C 30.2026 2.9 30.441 3.017 30.6143 3.251C 30.7876 3.485 30.8743 3.78833 30.8743 4.161C 30.8743 4.62033 30.7573 5.045 30.5233 5.435C 30.2893 5.825 29.934 6.13267 29.4573 6.358L 28.9113 5.851C 29.2493 5.73833 29.531 5.56067 29.7563 5.318C 29.9816 5.07533 30.1246 4.811 30.1853 4.525L 30.1333 4.499C 30.0553 4.55967 29.934 4.59 29.7693 4.59C 29.5873 4.59 29.4226 4.52067 29.2753 4.382C 29.128 4.23467 29.0543 4.031 29.0543 3.771C 29.0543 3.537 29.1366 3.33333 29.3013 3.16C 29.466 2.98667 29.6653 2.9 29.8993 2.9ZM 34.3194 12.13C 33.6954 12.13 33.1321 12.0087 32.6294 11.766C 32.1267 11.5147 31.7584 11.1463 31.5244 10.661L 32.3694 10.076C 32.5167 10.4573 32.7724 10.7433 33.1364 10.934C 33.5004 11.1247 33.9294 11.22 34.4234 11.22C 34.9347 11.22 35.3247 11.129 35.5934 10.947C 35.8621 10.765 35.9964 10.5353 35.9964 10.258C 35.9964 10.0067 35.8707 9.80733 35.6194 9.66C 35.3681 9.504 34.9261 9.36967 34.2934 9.257C 33.6694 9.14433 33.1754 9.01 32.8114 8.854C 32.4474 8.68933 32.1831 8.48567 32.0184 8.243C 31.8537 7.99167 31.7714 7.684 31.7714 7.32C 31.7714 6.96467 31.8754 6.63967 32.0834 6.345C 32.2914 6.05033 32.5904 5.81633 32.9804 5.643C 33.3704 5.461 33.8211 5.37 34.3324 5.37C 35.0257 5.37 35.5804 5.5 35.9964 5.76C 36.4211 6.01133 36.7244 6.40133 36.9064 6.93L 36.0224 7.45C 35.8837 7.034 35.6714 6.735 35.3854 6.553C 35.1081 6.371 34.7571 6.28 34.3324 6.28C 33.9077 6.28 33.5481 6.37533 33.2534 6.566C 32.9587 6.75667 32.8114 6.97767 32.8114 7.229C 32.8114 7.515 32.9371 7.736 33.1884 7.892C 33.4484 8.048 33.9077 8.18233 34.5664 8.295C 35.4677 8.44233 36.1047 8.66333 36.4774 8.958C 36.8501 9.25267 37.0364 9.66867 37.0364 10.206C 37.0364 10.5787 36.9237 10.9123 36.6984 11.207C 36.4817 11.493 36.1654 11.7183 35.7494 11.883C 35.3421 12.0477 34.8654 12.13 34.3194 12.13ZM 49.1675 2.51L 49.1675 12L 48.2575 12L 48.1925 10.869C 48.0019 11.2503 47.7072 11.558 47.3085 11.792C 46.9185 12.0173 46.4722 12.13 45.9695 12.13C 45.0595 12.13 44.3359 11.831 43.7985 11.233C 43.2699 10.6263 43.0055 9.79867 43.0055 8.75C 43.0055 7.70133 43.2699 6.878 43.7985 6.28C 44.3359 5.67333 45.0595 5.37 45.9695 5.37C 46.4462 5.37 46.8709 5.474 47.2435 5.682C 47.6249 5.89 47.9195 6.16733 48.1275 6.514L 48.1275 2.51L 49.1675 2.51ZM 46.0865 11.22C 46.7105 11.22 47.2045 11.0033 47.5685 10.57C 47.9412 10.1367 48.1275 9.556 48.1275 8.828L 48.1275 8.672C 48.1275 7.944 47.9412 7.36333 47.5685 6.93C 47.2045 6.49667 46.7105 6.28 46.0865 6.28C 45.4539 6.28 44.9555 6.50533 44.5915 6.956C 44.2275 7.398 44.0455 7.996 44.0455 8.75C 44.0455 9.504 44.2275 10.1063 44.5915 10.557C 44.9555 10.999 45.4539 11.22 46.0865 11.22ZM 54.327 5.37C 55.3063 5.37 56.0733 5.669 56.628 6.267C 57.1913 6.865 57.473 7.69267 57.473 8.75C 57.473 9.80733 57.1913 10.635 56.628 11.233C 56.0733 11.831 55.3063 12.13 54.327 12.13C 53.3477 12.13 52.5763 11.831 52.013 11.233C 51.4583 10.635 51.181 9.80733 51.181 8.75C 51.181 7.69267 51.4583 6.865 52.013 6.267C 52.5763 5.669 53.3477 5.37 54.327 5.37ZM 54.327 6.267C 53.6683 6.267 53.1527 6.488 52.78 6.93C 52.4073 7.372 52.221 7.97867 52.221 8.75C 52.221 9.52133 52.4073 10.128 52.78 10.57C 53.1527 11.012 53.6683 11.233 54.327 11.233C 54.9857 11.233 55.5013 11.012 55.874 10.57C 56.2467 10.128 56.433 9.52133 56.433 8.75C 56.433 7.97867 56.2467 7.372 55.874 6.93C 55.5013 6.488 54.9857 6.267 54.327 6.267ZM 62.6912 5.37C 63.6012 5.37 64.3205 5.67333 64.8492 6.28C 65.3865 6.878 65.6552 7.70133 65.6552 8.75C 65.6552 9.79867 65.3865 10.6263 64.8492 11.233C 64.3205 11.831 63.6012 12.13 62.6912 12.13C 62.2145 12.13 61.7855 12.026 61.4042 11.818C 61.0315 11.61 60.7412 11.3327 60.5332 10.986L 60.5332 14.73L 59.4932 14.73L 59.4932 5.5L 60.4032 5.5L 60.4682 6.631C 60.6588 6.24967 60.9492 5.94633 61.3392 5.721C 61.7378 5.487 62.1885 5.37 62.6912 5.37ZM 62.5742 11.22C 63.2068 11.22 63.7052 10.999 64.0692 10.557C 64.4332 10.1063 64.6152 9.504 64.6152 8.75C 64.6152 7.996 64.4332 7.398 64.0692 6.956C 63.7052 6.50533 63.2068 6.28 62.5742 6.28C 61.9502 6.28 61.4518 6.49667 61.0792 6.93C 60.7152 7.36333 60.5332 7.944 60.5332 8.672L 60.5332 8.828C 60.5332 9.556 60.7152 10.1367 61.0792 10.57C 61.4518 11.0033 61.9502 11.22 62.5742 11.22ZM 73.2587 8.412C 73.2587 8.65467 73.2413 8.89733 73.2067 9.14L 68.3057 9.14C 68.3663 9.79867 68.583 10.31 68.9557 10.674C 69.337 11.038 69.8267 11.22 70.4247 11.22C 70.9013 11.22 71.2957 11.1377 71.6077 10.973C 71.9283 10.8083 72.145 10.57 72.2577 10.258L 73.1287 10.713C 72.8687 11.1723 72.522 11.5233 72.0887 11.766C 71.6553 12.0087 71.1007 12.13 70.4247 12.13C 69.4453 12.13 68.674 11.831 68.1107 11.233C 67.556 10.635 67.2787 9.80733 67.2787 8.75C 67.2787 7.69267 67.543 6.865 68.0717 6.267C 68.609 5.669 69.3673 5.37 70.3467 5.37C 70.9533 5.37 71.4777 5.50433 71.9197 5.773C 72.3617 6.04167 72.6953 6.40567 72.9207 6.865C 73.146 7.32433 73.2587 7.84 73.2587 8.412ZM 70.3467 6.28C 69.7747 6.28 69.311 6.449 68.9557 6.787C 68.609 7.125 68.3967 7.60167 68.3187 8.217L 72.2577 8.217C 72.1883 7.61033 71.989 7.138 71.6597 6.8C 71.3303 6.45333 70.8927 6.28 70.3467 6.28ZM 75.7554 10.44C 76.0067 10.44 76.2104 10.518 76.3664 10.674C 76.5224 10.83 76.6004 11.0337 76.6004 11.285C 76.6004 11.5363 76.5224 11.74 76.3664 11.896C 76.2104 12.052 76.0067 12.13 75.7554 12.13C 75.504 12.13 75.3004 12.052 75.1444 11.896C 74.9884 11.74 74.9104 11.5363 74.9104 11.285C 74.9104 11.0337 74.9884 10.83 75.1444 10.674C 75.3004 10.518 75.504 10.44 75.7554 10.44Z"/>
<path id="path17_fill" d="M 10.4865 0L 19.568 20.4039L 1.40492 20.4039L 10.4865 0Z"/>
</defs>
</svg>
