<svg width="97" height="24" viewBox="0 0 97 24" version="1.1" xmlns="http://www.w3.org/2000/svg" xmlns:xlink="http://www.w3.org/1999/xlink">
<title>apple-music</title>
<desc>Created using Figma</desc>
<g id="Canvas" transform="translate(-1193 -415)">
<g id="apple-music">
<g id="Group">
<g id="Vector">
<use xlink:href="#path0_fill" transform="translate(1193 415)"/>
</g>
</g>
</g>
</g>
<defs>
<path id="path0_fill" d="M 15.3023 12.7211C 15.2716 10.7685 16.0822 9.2485 17.7324 8.16051C 16.8017 6.75253 15.4292 5.96115 13.6143 5.78423C 12.9687 5.72116 12.1433 5.87992 11.1393 6.26454C 10.0593 6.68115 9.45129 6.88822 9.31644 6.88822C 9.03135 6.88822 8.48395 6.71314 7.67276 6.36023C 6.86334 6.00823 6.17281 5.83223 5.60264 5.83223C 4.64269 5.84854 3.74958 6.12454 2.92479 6.66022C 2.0997 7.19652 1.43992 7.92913 0.945159 8.85619C 0.314363 10.0088 0 11.3851 0 12.9848C 0 14.4247 0.231854 15.8644 0.696744 17.3053C 1.13177 18.6816 1.68774 19.8896 2.36201 20.9287C 2.96146 21.8729 3.48845 22.5609 3.93708 22.9936C 4.58295 23.6652 5.24214 23.9858 5.91818 23.9532C 6.35291 23.9366 6.92249 23.7689 7.62781 23.448C 8.28729 23.1455 8.94796 22.9932 9.60832 22.9932C 10.2232 22.9932 10.8602 23.1446 11.5211 23.448C 12.2557 23.7689 12.8563 23.9286 13.3212 23.9286C 14.0115 23.8972 14.6562 23.5849 15.2571 22.9936C 15.4662 22.8006 15.6954 22.5369 15.9426 22.2009C 16.228 21.8096 16.5021 21.4094 16.7644 21.001C 16.9831 20.6487 17.1895 20.2885 17.3834 19.921C 17.5914 19.5252 17.7755 19.1163 17.9347 18.6967C 18.0089 18.5207 18.0763 18.341 18.1369 18.157C 18.1967 17.973 18.2567 17.7856 18.3167 17.5933C 17.7616 17.3379 17.2589 16.9764 16.8091 16.5121C 15.8202 15.4896 15.3174 14.225 15.3023 12.7211ZM 31.6199 16.9998L 31.5108 16.9998L 26.9409 6.13408L 23.3522 6.13408L 23.3522 23.6652L 26.4798 23.6652L 26.4798 12.3112L 26.625 12.3112L 30.4441 21.3271L 32.6375 21.3271L 36.4445 12.3112L 36.5903 12.3112L 36.5903 23.6652L 39.754 23.6652L 39.754 6.13408L 36.1899 6.13408L 31.6199 16.9998ZM 12.4663 3.84057C 13.2618 2.80027 13.6596 1.68029 13.6596 0.479994L 13.6596 0.240305C 13.6596 0.15969 13.6519 0.079999 13.6371 3.75763e-16C 13.0817 0.0319996 12.4932 0.216305 11.8701 0.551685C 11.2479 0.888296 10.7342 1.31291 10.3284 1.82398C 9.51872 2.83289 9.11327 3.91226 9.11327 5.06455L 9.11327 5.29193C 9.11327 5.36455 9.12096 5.44024 9.13574 5.52085C 10.3814 5.64854 11.4915 5.08824 12.4663 3.84057ZM 76.3088 6.13408L 79.8242 6.13408L 79.8242 23.6655L 76.3088 23.6655L 76.3088 6.13408ZM 90.4416 8.92081C 92.5265 8.92081 93.629 10.5906 93.629 12.3888L 97 12.3888L 97 12.0162C 97 8.62574 94.5147 5.80054 90.417 5.80054C 86.0284 5.80054 83.4102 8.80573 83.4102 13.9306L 83.4102 15.9087C 83.4102 21.032 86.0041 24 90.4046 24C 94.6114 24 97 21.1348 97 17.9502L 97 17.565L 93.6292 17.565C 93.6292 19.3767 92.5507 20.8791 90.4664 20.8791C 88.3321 20.8791 86.9741 19.2991 86.9741 15.9207L 86.9741 13.9441C 86.9741 10.5774 88.3445 8.92081 90.4416 8.92081ZM 53.1992 17.2047C 53.1992 19.5557 51.8778 20.8524 49.9384 20.8524C 47.9866 20.8524 46.6656 19.5681 46.6656 17.2047L 46.6656 6.13408L 43.1739 6.13408L 43.1739 17.7185C 43.1739 21.457 45.7192 23.9997 49.9378 23.9997C 54.1446 23.9997 56.7021 21.457 56.7021 17.7185L 56.7021 6.13408L 53.1992 6.13408L 53.1992 17.2047ZM 68.3329 13.4549L 65.824 12.8648C 64.3453 12.5426 63.5693 11.8623 63.5693 10.8472C 63.5693 9.49926 64.6236 8.65127 66.3217 8.65127C 68.2368 8.65127 69.1944 9.79434 69.279 11.0276L 72.5522 11.0276C 72.5158 7.9319 70.031 5.77439 66.3332 5.77439C 62.8303 5.77439 60.0661 7.68852 60.0661 11.1303C 60.0661 14.11 62.0061 15.4961 64.3335 16.0241L 66.8182 16.6272C 68.4912 17.0253 69.3396 17.6038 69.3396 18.7973C 69.3396 20.1597 68.2969 21.0847 66.3456 21.0847C 64.2483 21.0847 63.1449 19.9284 63.0485 18.6308L 59.6781 18.6308C 59.7275 21.1099 61.3031 23.9997 66.1765 23.9997C 70.2735 23.9997 72.8077 21.8806 72.8077 18.4373C 72.8065 15.2521 70.7577 14.0063 68.3329 13.4549Z"/>
</defs>
</svg>
