<svg width="36" height="34" viewBox="0 0 36 34" version="1.1" xmlns="http://www.w3.org/2000/svg" xmlns:xlink="http://www.w3.org/1999/xlink">
<title></title>
<desc>Created using Figma</desc>
<g id="Canvas" transform="translate(-995 100)">
<g>
<g id="g10">
<g id="g12">
<g id="g14">
<g id="g20">
<g id="path22">
<use xlink:href="#path0_fill" transform="matrix(1.25 0 0 -1.25 995 -66.0462)"/>
</g>
</g>
</g>
</g>
</g>
</g>
</g>
<defs>
<path id="path0_fill" d="M 26.8542 27.1169L 9.25599 25.1007C 8.48276 25.0119 7.85005 24.3073 7.85005 23.535L 7.85005 23.3807L 7.85005 20.1097L 7.85005 8.89634C 7.13569 9.18626 6.33891 9.35226 5.49503 9.35226C 2.46099 9.35226 2.87477e-07 7.25969 2.87477e-07 4.67613C 2.87477e-07 2.09335 2.46099 9.9893e-07 5.49503 9.9893e-07C 8.52907 9.9893e-07 10.9901 2.09335 10.9901 4.67613L 10.9901 19.0646L 25.1201 20.6833L 25.1201 10.4551C 24.4058 10.745 23.609 10.911 22.7651 10.911C 19.7311 10.911 17.2701 8.81841 17.2701 6.23484C 17.2701 3.65206 19.7311 1.55871 22.7651 1.55871C 25.7992 1.55871 28.2602 3.65206 28.2602 6.23484L 28.2602 22.4478L 28.2602 25.873C 28.2602 26.6454 27.6274 27.2057 26.8542 27.1169Z"/>
</defs>
</svg>
