<svg width="40" height="35" viewBox="0 0 40 35" version="1.1" xmlns="http://www.w3.org/2000/svg" xmlns:xlink="http://www.w3.org/1999/xlink">
<title>Group 2.1</title>
<desc>Created using Figma</desc>
<g id="Canvas" transform="translate(155 108)">
<g id="Group 2.1">
<g id="Rectangle 8">
<use xlink:href="#path0_fill" transform="translate(-155 -108)" fill="#CCD6DD"/>
</g>
<g>
<g id="g10">
<g id="g12">
<g id="g14">
<g id="g20">
<g id="path22">
<use xlink:href="#path1_fill" transform="matrix(1.25 0 0 -1.25 -147 -80.1)"/>
</g>
</g>
</g>
</g>
</g>
</g>
</g>
</g>
<defs>
<path id="path0_fill" d="M 0 10C 0 4.47715 4.47715 0 10 0L 30 0C 35.5228 0 40 4.47715 40 10L 40 25C 40 30.5228 35.5228 35 30 35L 10 35C 4.47715 35 0 30.5228 0 25L 0 10Z"/>
<path id="path1_fill" d="M 16.7244 16.7143L 5.76449 15.4716C 5.28293 15.4168 4.88889 14.9825 4.88889 14.5065L 4.88889 14.4114L 4.88889 12.3952L 4.88889 5.48352C 4.444 5.66222 3.94778 5.76454 3.42222 5.76454C 1.53267 5.76454 1.79036e-07 4.47473 1.79036e-07 2.88227C 1.79036e-07 1.2903 1.53267 6.1572e-07 3.42222 6.1572e-07C 5.31178 6.1572e-07 6.84444 1.2903 6.84444 2.88227L 6.84444 11.751L 15.6444 12.7488L 15.6444 6.44428C 15.1996 6.62298 14.7033 6.7253 14.1778 6.7253C 12.2882 6.7253 10.7556 5.43548 10.7556 3.84303C 10.7556 2.25105 12.2882 0.960758 14.1778 0.960758C 16.0673 0.960758 17.6 2.25105 17.6 3.84303L 17.6 13.8363L 17.6 15.9476C 17.6 16.4237 17.206 16.7691 16.7244 16.7143Z"/>
</defs>
</svg>
