<svg width="178" height="82" viewBox="0 0 178 82" version="1.1" xmlns="http://www.w3.org/2000/svg" xmlns:xlink="http://www.w3.org/1999/xlink">
<title>soundcloud</title>
<desc>Created using Figma</desc>
<g id="Canvas" transform="translate(-981 -645)">
<g id="soundcloud">
<g id="Vector">
<use xlink:href="#path0_fill" transform="translate(981 645)" fill="url(#paint0_linear)"/>
</g>
</g>
</g>
<defs>
<linearGradient id="paint0_linear" x1="0" y1="0" x2="1" y2="0" gradientUnits="userSpaceOnUse" gradientTransform="matrix(0 107 101.469 0 38.2572 -0.0149423)">
<stop offset="0"/>
<stop offset="0.994475"/>
</linearGradient>
<path id="path0_fill" d="M 2.01588 48.7542C 1.64447 48.7542 1.34967 49.0571 1.30165 49.4889L 0 59.9152L 1.30165 70.1619C 1.34967 70.5938 1.64429 70.8946 2.01588 70.8946C 2.3756 70.8946 2.66859 70.5958 2.72597 70.1657L 4.26881 59.915L 2.72597 49.4869C 2.67039 49.0569 2.3738 48.7542 2.01588 48.7542ZM 9.33603 43.0576C 9.27469 42.6096 8.97037 42.3006 8.59518 42.3006C 8.21801 42.3006 7.90595 42.6197 7.85433 43.0576C 7.85433 43.0616 6.10465 59.9152 6.10465 59.9152L 7.85433 76.3994C 7.90416 76.8415 8.21622 77.1605 8.59518 77.1605C 8.96839 77.1605 9.2729 76.8497 9.33405 76.4036L 11.3247 59.9152L 9.33603 43.0576ZM 36.9094 27.5081C 36.1916 27.5081 35.598 28.1277 35.5637 28.915L 34.1701 59.9293L 35.5637 79.9723C 35.6 80.7555 36.1916 81.3732 36.9094 81.3732C 37.6234 81.3732 38.215 80.7534 38.2571 79.9683L 38.2571 79.9744L 39.8325 59.9293L 38.2571 28.915C 38.2148 28.1277 37.6233 27.5081 36.9094 27.5081ZM 22.6383 38.2875C 22.0871 38.2875 21.6372 38.7518 21.593 39.3715L 20.0233 59.9211L 21.593 79.8026C 21.6351 80.4182 22.0869 80.8825 22.6383 80.8825C 23.1839 80.8825 23.6337 80.4182 23.6817 79.8026L 25.4658 59.9211L 23.6817 39.3673C 23.6337 38.7518 23.1839 38.2875 22.6383 38.2875ZM 51.4121 81.3713C 52.3022 81.3713 53.0258 80.6141 53.0621 79.6451L 54.4291 59.9393L 53.0641 18.6481C 53.0278 17.6791 52.304 16.9221 51.4141 16.9221C 50.5162 16.9221 49.7908 17.6812 49.7619 18.6502L 48.5501 59.9372L 49.7619 79.6512C 49.7906 80.6122 50.516 81.3713 51.4121 81.3713ZM 81.1026 81.4642C 82.3278 81.4642 83.3386 80.4004 83.3615 79.0923L 84.3149 59.9515L 83.3613 12.2632C 83.3402 10.9571 82.3276 9.89142 81.1024 9.89142C 79.8754 9.89142 78.8628 10.9553 78.8435 12.2653L 77.9917 59.9353C 77.9917 59.9657 78.8435 79.1042 78.8435 79.1042C 78.863 80.4002 79.8774 81.4642 81.1026 81.4642ZM 66.1443 81.3895C 67.2107 81.3895 68.0701 80.4871 68.0988 79.3366L 68.0988 79.3506L 69.2588 59.9435L 68.0969 18.3535C 68.0681 17.2028 67.2087 16.3027 66.1423 16.3027C 65.0684 16.3027 64.209 17.203 64.186 18.3535L 63.1543 59.9456L 64.188 79.3487C 64.211 80.4871 65.0704 81.3895 66.1443 81.3895ZM 29.7461 81.2078C 30.3797 81.2078 30.8929 80.6728 30.9407 79.9683L 32.6215 59.9213L 30.9407 40.8512C 30.8948 40.1468 30.3819 39.6157 29.7461 39.6157C 29.1031 39.6157 28.5899 40.1506 28.5498 40.8594L 27.0699 59.9213L 28.5498 79.9664C 28.5919 80.6728 29.1029 81.2078 29.7461 81.2078ZM 15.5882 80.1096C 16.0513 80.1096 16.4265 79.7241 16.4801 79.1911L 18.3676 59.9171L 16.4819 39.9166C 16.4263 39.3817 16.0511 38.9959 15.588 38.9959C 15.1189 38.9959 14.7437 39.3836 14.6959 39.9166L 13.0343 59.9171L 14.6959 79.1871C 14.7419 79.722 15.1171 80.1096 15.5882 80.1096ZM 73.5948 17.6611C 72.4367 17.6611 71.5081 18.6321 71.4853 19.8756L 70.5435 59.9475L 71.4853 79.2294C 71.5083 80.4567 72.4347 81.4278 73.5948 81.4278C 74.751 81.4278 75.6739 80.4588 75.7005 79.2154L 75.7005 79.2315L 76.7572 59.9496L 75.7005 19.8714C 75.6737 18.6321 74.7508 17.6611 73.5948 17.6611ZM 44.1339 81.4117C 44.9341 81.4117 45.5945 80.7232 45.6328 79.8451L 47.103 59.9351L 45.6328 21.8274C 45.5925 20.9472 44.9341 20.261 44.1339 20.261C 43.3261 20.261 42.6676 20.9493 42.6331 21.8274L 41.3314 59.9351L 42.6351 79.8532C 42.6674 80.7232 43.3259 81.4117 44.1339 81.4117ZM 60.5508 79.5323L 60.5508 79.5221L 61.8142 59.9414L 60.5508 17.2593C 60.5201 16.1997 59.7276 15.368 58.7493 15.368C 57.7653 15.368 56.9728 16.1976 56.9462 17.2593L 55.8244 59.9393L 56.948 79.5302C 56.9748 80.5798 57.7675 81.4094 58.7495 81.4094C 59.7296 81.4094 60.5183 80.5798 60.551 79.5241L 60.5508 79.5323ZM 156.108 35.3382C 153.108 35.3382 150.246 35.9782 147.639 37.1308C 145.897 16.3228 129.35 0 109.166 0C 104.227 0 99.4126 1.02552 95.161 2.75944C 93.509 3.4337 93.0687 4.12806 93.0534 5.4745L 93.0534 78.7509C 93.0707 80.1639 94.1101 81.3408 95.4177 81.4802C 95.4733 81.4862 155.716 81.5185 156.106 81.5185C 168.197 81.5185 178 71.181 178 58.4294C 178 45.6776 168.199 35.3382 156.108 35.3382ZM 88.5778 5.41001C 87.2626 5.41001 86.1831 6.54857 86.1639 7.94735L 85.1761 59.9575L 86.1658 78.8338C 86.1831 80.2126 87.2628 81.3491 88.5778 81.3491C 89.889 81.3491 90.9687 80.2126 90.9877 78.8137L 90.9877 78.8358L 92.0617 59.9575L 90.9877 7.94337C 90.9687 6.54857 89.889 5.41001 88.5778 5.41001Z"/>
</defs>
</svg>
