<svg width="559" height="168" viewBox="0 0 559 168" version="1.1" xmlns="http://www.w3.org/2000/svg" xmlns:xlink="http://www.w3.org/1999/xlink">
<title>Spotify_logo_with_text 2</title>
<desc>Created using Figma</desc>
<g id="Canvas" transform="translate(-955 -316)">
<g id="Spotify_logo_with_text 2">
<g id="Vector">
<use xlink:href="#path0_fill" transform="translate(955 316)"/>
</g>
</g>
</g>
<defs>
<path id="path0_fill" d="M 83.743 1.00136e-08C 37.494 1.00136e-08 -8.82149e-09 37.493 -8.82149e-09 83.742C -8.82149e-09 129.993 37.494 167.483 83.743 167.483C 129.997 167.483 167.487 129.993 167.487 83.742C 167.487 37.496 129.997 0.00399999 83.742 0.00399999L 83.743 1.00136e-08L 83.743 1.00136e-08ZM 122.147 120.78C 120.647 123.24 117.427 124.02 114.967 122.51C 95.305 110.5 70.553 107.78 41.403 114.44C 38.594 115.08 35.794 113.32 35.154 110.51C 34.511 107.7 36.264 104.9 39.08 104.26C 70.98 96.972 98.343 100.11 120.417 113.6C 122.877 115.11 123.657 118.32 122.147 120.78L 122.147 120.78ZM 132.397 97.978C 130.507 101.05 126.487 102.02 123.417 100.13C 100.907 86.294 66.594 82.287 39.969 90.369C 36.516 91.412 32.869 89.466 31.821 86.019C 30.781 82.566 32.728 78.926 36.175 77.876C 66.588 68.648 104.397 73.118 130.247 89.003C 133.317 90.893 134.287 94.913 132.397 97.979L 132.397 97.978ZM 133.277 74.234C 106.287 58.203 61.757 56.729 35.988 64.55C 31.85 65.805 27.474 63.469 26.22 59.331C 24.966 55.191 27.3 50.818 31.441 49.56C 61.022 40.58 110.197 42.315 141.271 60.762C 145.001 62.971 146.221 67.778 144.011 71.495C 141.811 75.217 136.991 76.444 133.281 74.234L 133.277 74.234ZM 227.837 77.306C 213.377 73.858 210.807 71.438 210.807 66.353C 210.807 61.549 215.327 58.316 222.057 58.316C 228.577 58.316 235.037 60.771 241.817 65.825C 242.017 65.978 242.277 66.039 242.527 65.999C 242.787 65.961 243.007 65.822 243.157 65.613L 250.217 55.661C 250.507 55.251 250.427 54.686 250.037 54.373C 241.967 47.9 232.887 44.753 222.267 44.753C 206.657 44.753 195.747 54.122 195.747 67.527C 195.747 81.902 205.157 86.992 221.417 90.921C 235.247 94.108 237.587 96.778 237.587 101.55C 237.587 106.84 232.867 110.13 225.267 110.13C 216.827 110.13 209.937 107.28 202.237 100.62C 202.047 100.45 201.787 100.38 201.547 100.39C 201.287 100.41 201.057 100.53 200.897 100.72L 192.977 110.14C 192.647 110.54 192.687 111.12 193.067 111.46C 202.027 119.46 213.047 123.68 224.947 123.68C 241.767 123.68 252.637 114.49 252.637 100.26C 252.667 88.253 245.477 81.603 227.867 77.319L 227.837 77.306L 227.837 77.306ZM 290.697 63.046C 283.407 63.046 277.427 65.918 272.487 71.803L 272.487 65.179C 272.487 64.656 272.067 64.23 271.547 64.23L 258.597 64.23C 258.077 64.23 257.657 64.656 257.657 65.179L 257.657 138.78C 257.657 139.3 258.077 139.73 258.597 139.73L 271.547 139.73C 272.067 139.73 272.487 139.3 272.487 138.78L 272.487 115.55C 277.427 121.08 283.407 123.79 290.697 123.79C 304.247 123.79 317.967 113.36 317.967 93.421C 317.987 73.478 304.267 63.045 290.707 63.045L 290.697 63.046ZM 302.907 93.421C 302.907 103.57 296.657 110.66 287.697 110.66C 278.847 110.66 272.167 103.25 272.167 93.421C 272.167 83.591 278.847 76.183 287.697 76.183C 296.507 76.182 302.907 83.43 302.907 93.42L 302.907 93.421ZM 353.117 63.046C 335.667 63.046 321.997 76.482 321.997 93.638C 321.997 110.61 335.577 123.9 352.907 123.9C 370.417 123.9 384.127 110.51 384.127 93.421C 384.127 76.39 370.507 63.048 353.117 63.048L 353.117 63.046L 353.117 63.046ZM 353.117 110.76C 343.837 110.76 336.837 103.3 336.837 93.416C 336.837 83.487 343.597 76.282 352.907 76.282C 362.247 76.282 369.287 83.739 369.287 93.633C 369.287 103.56 362.487 110.76 353.117 110.76L 353.117 110.76ZM 421.387 64.23L 407.137 64.23L 407.137 49.664C 407.137 49.142 406.717 48.716 406.197 48.716L 393.247 48.716C 392.727 48.716 392.297 49.142 392.297 49.664L 392.297 64.23L 386.077 64.23C 385.557 64.23 385.137 64.656 385.137 65.179L 385.137 76.306C 385.137 76.828 385.557 77.255 386.077 77.255L 392.297 77.255L 392.297 106.05C 392.297 117.68 398.087 123.58 409.517 123.58C 414.157 123.58 418.007 122.62 421.637 120.56C 421.937 120.4 422.117 120.08 422.117 119.74L 422.117 109.14C 422.117 108.82 421.947 108.51 421.667 108.34C 421.387 108.16 421.037 108.15 420.747 108.3C 418.257 109.55 415.847 110.13 413.147 110.13C 408.997 110.13 407.137 108.24 407.137 104.02L 407.137 77.26L 421.387 77.26C 421.907 77.26 422.327 76.834 422.327 76.311L 422.327 65.185C 422.347 64.662 421.927 64.236 421.397 64.236L 421.387 64.23L 421.387 64.23ZM 471.027 64.287L 471.027 62.498C 471.027 57.235 473.047 54.888 477.567 54.888C 480.267 54.888 482.437 55.424 484.867 56.234C 485.167 56.328 485.477 56.281 485.717 56.102C 485.967 55.923 486.107 55.636 486.107 55.332L 486.107 44.422C 486.107 44.005 485.847 43.636 485.437 43.513C 482.877 42.75 479.597 41.967 474.677 41.967C 462.727 41.967 456.397 48.701 456.397 61.434L 456.397 64.174L 450.177 64.174C 449.657 64.174 449.227 64.6 449.227 65.122L 449.227 76.306C 449.227 76.828 449.657 77.255 450.177 77.255L 456.397 77.255L 456.397 121.66C 456.397 122.19 456.827 122.61 457.347 122.61L 470.287 122.61C 470.817 122.61 471.237 122.19 471.237 121.66L 471.237 77.258L 483.327 77.258L 501.847 121.66C 499.747 126.32 497.677 127.25 494.857 127.25C 492.577 127.25 490.167 126.57 487.717 125.22C 487.487 125.1 487.207 125.08 486.967 125.15C 486.717 125.24 486.507 125.42 486.407 125.66L 482.017 135.29C 481.807 135.75 481.987 136.28 482.427 136.52C 487.007 139 491.137 140.06 496.247 140.06C 505.807 140.06 511.097 135.6 515.747 123.62L 538.207 65.583C 538.327 65.291 538.287 64.961 538.107 64.702C 537.937 64.445 537.647 64.29 537.337 64.29L 523.857 64.29C 523.447 64.29 523.087 64.547 522.957 64.926L 509.147 104.36L 494.027 64.9C 493.887 64.533 493.537 64.29 493.147 64.29L 471.027 64.29L 471.027 64.287L 471.027 64.287ZM 442.247 64.23L 429.297 64.23C 428.777 64.23 428.347 64.656 428.347 65.179L 428.347 121.66C 428.347 122.19 428.777 122.61 429.297 122.61L 442.247 122.61C 442.767 122.61 443.197 122.19 443.197 121.66L 443.197 65.183C 443.197 64.66 442.777 64.234 442.247 64.234L 442.247 64.23ZM 435.847 38.511C 430.717 38.511 426.557 42.663 426.557 47.792C 426.557 52.924 430.717 57.081 435.847 57.081C 440.977 57.081 445.127 52.924 445.127 47.792C 445.127 42.664 440.967 38.511 435.847 38.511ZM 549.267 82.391C 544.147 82.391 540.157 78.276 540.157 73.279C 540.157 68.282 544.197 64.12 549.317 64.12C 554.437 64.12 558.427 68.234 558.427 73.227C 558.427 78.224 554.387 82.391 549.267 82.391ZM 549.317 65.026C 544.647 65.026 541.117 68.736 541.117 73.279C 541.117 77.82 544.627 81.48 549.267 81.48C 553.937 81.48 557.467 77.773 557.467 73.227C 557.467 68.686 553.957 65.026 549.317 65.026L 549.317 65.026ZM 551.337 74.164L 553.917 77.772L 551.737 77.772L 549.417 74.462L 547.427 74.462L 547.427 77.772L 545.607 77.772L 545.607 68.208L 549.867 68.208C 552.097 68.208 553.557 69.345 553.557 71.259C 553.567 72.827 552.657 73.785 551.347 74.164L 551.337 74.164ZM 549.797 69.849L 547.427 69.849L 547.427 72.874L 549.797 72.874C 550.977 72.874 551.687 72.295 551.687 71.36C 551.687 70.376 550.977 69.849 549.797 69.849L 549.797 69.849Z"/>
</defs>
</svg>
